<?xml version="1.0" standalone="no"?>
<!DOCTYPE svg PUBLIC "-//W3C//DTD SVG 20010904//EN"
 "http://www.w3.org/TR/2001/REC-SVG-20010904/DTD/svg10.dtd">
<svg version="1.0" xmlns="http://www.w3.org/2000/svg"
 width="980.000000pt" height="830.000000pt" viewBox="0 0 980.000000 830.000000"
 preserveAspectRatio="xMidYMid meet">
<metadata>
Created by potrace 1.16, written by Peter Selinger 2001-2019
</metadata>
<g transform="translate(0.000000,830.000000) scale(0.100000,-0.100000)"
fill="#000000" stroke="none">
<path d="M8659 8289 c-298 -18 -575 -79 -823 -183 -273 -115 -654 -348 -1031
-631 l-160 -120 -125 27 c-278 60 -571 104 -900 135 -236 21 -974 25 -1215 5
-375 -31 -706 -76 -1000 -137 -93 -20 -184 -38 -202 -42 -28 -5 -43 4 -135 74
-412 318 -838 582 -1127 698 -278 111 -632 180 -896 173 l-109 -3 -48 -108
c-276 -619 -319 -1345 -122 -2044 l35 -123 -74 -92 c-321 -403 -538 -871 -647
-1402 -127 -618 -100 -1516 65 -2176 127 -508 334 -889 665 -1221 304 -305
572 -472 1083 -673 596 -234 1043 -328 1922 -401 602 -50 1734 -52 2305 -4
562 47 1198 168 1620 309 379 126 636 261 955 499 158 119 396 349 492 476
320 425 496 917 572 1601 120 1075 -20 1930 -430 2630 -67 115 -187 290 -258
379 -31 39 -60 75 -63 80 -4 6 9 64 27 128 202 700 153 1435 -138 2070 -46
100 -14 90 -238 76z m-5490 -3974 c162 -17 448 -53 731 -91 466 -64 715 -79
1140 -71 337 7 469 18 908 76 279 38 499 64 757 93 166 18 430 15 550 -6 402
-72 703 -277 939 -638 204 -312 297 -684 283 -1123 -14 -420 -109 -730 -322
-1050 -261 -392 -629 -620 -1265 -784 -537 -139 -944 -168 -2215 -158 -694 6
-847 11 -1148 42 -370 38 -829 154 -1122 285 -431 191 -684 430 -891 841 -138
273 -205 624 -191 994 20 499 184 901 497 1215 157 157 309 253 505 319 242
80 464 95 844 56z"/>
<path d="M2871 3754 c-178 -48 -347 -214 -466 -458 -55 -113 -92 -230 -122
-391 -23 -127 -23 -396 1 -530 52 -288 147 -491 311 -664 131 -138 253 -195
420 -195 165 0 288 56 416 190 221 232 333 548 333 939 0 253 -44 456 -139
651 -121 248 -288 411 -470 459 -73 19 -212 18 -284 -1z"/>
<path d="M6641 3754 c-178 -48 -347 -214 -466 -458 -55 -113 -92 -230 -122
-391 -23 -127 -23 -396 1 -530 52 -288 147 -491 311 -664 131 -138 253 -195
420 -195 165 0 288 56 416 190 221 232 333 548 333 939 0 253 -44 457 -138
650 -122 249 -289 412 -471 460 -73 19 -212 18 -284 -1z"/>
</g>
</svg>
