<svg xmlns="http://www.w3.org/2000/svg" xmlns:xlink="http://www.w3.org/1999/xlink" version="1.1" x="0px" y="0px" viewBox="0 0 100 125" enable-background="new 0 0 100 100" xml:space="preserve"><path d="M93.2,71.8c-0.2-0.1-0.4-0.1-0.6-0.2c0.2-0.1,0.4-0.3,0.5-0.5c0.5-0.6-0.3-1.4-0.8-0.8c-0.3,0.3-0.6,0.6-1,0.8  c-0.4-0.4-1-0.7-1.4-1.2c0,0,0,0,0,0c0-0.1,0-0.1,0.1-0.2c0.1,0,0.2-0.1,0.3-0.2c0.1-0.2,0.3-0.2,0.4-0.1c0.7,0.4,1.3-0.6,0.6-1  c-0.5-0.3-1-0.3-1.5-0.1c-0.3-0.5-0.9-0.9-1.5-0.9c-0.2,0-0.3,0-0.4,0.1c1.3-1.4,2.3-3,3-4.7c0.2,0.4,0.6,0.7,1.1,0.7  c0.6,0,1.1-0.5,1.1-1.1s-0.5-1.1-1.1-1.1c-0.2,0-0.4,0.1-0.6,0.2c1.2-4,0.4-8.3-3.6-11.3c4.1-3,5-7.3,3.8-11.5  c0.2,0.1,0.3,0.2,0.5,0.2c0.6,0,1-0.5,1-1s-0.5-1-1-1c-0.4,0-0.8,0.3-0.9,0.7c-0.7-1.7-1.7-3.3-3-4.7c0.1,0,0.1,0,0.2,0  c0.7,0,1.3-0.4,1.5-1c0.2,0.1,0.5,0.2,0.8,0.1c0.8-0.1,0.8-1.3,0-1.2c-0.2,0-0.3,0-0.5-0.1c-0.1-0.1-0.2-0.1-0.2-0.1  c0-0.1-0.1-0.2-0.1-0.3c0.3-0.1,0.6-0.3,1-0.5c0.2-0.2,0.6-0.3,0.9-0.4c0.3,0.2,0.6,0.5,0.8,0.7c0.5,0.5,1.4-0.3,0.8-0.8  c-0.2-0.2-0.4-0.4-0.6-0.5c0.3-0.1,0.6-0.2,0.8-0.4c0.7-0.4,0.1-1.4-0.6-1c-0.2,0.1-0.3,0.2-0.5,0.2c-0.3-0.7-0.6-1.2-0.6-2  c0-0.8-1.2-0.8-1.2,0c0,0.4,0.1,0.9,0.2,1.3c0,0.1,0.3,1,0.5,1.3c0,0,0,0.1,0,0.1c-0.8,0.2-1.4,1-2.2,1.2c0,0-0.1,0-0.1,0  c0-0.3,0-0.6,0-1c0-0.8-1.2-0.8-1.2,0c0,0.3,0,0.7,0,1c0,0,0,0.1,0,0.1c-0.7,0.2-1.2,0.9-1.2,1.6c0,0.1,0,0.1,0,0.2  c-1.1-1-2.3-1.9-3.7-2.6c0.4-0.1,0.8-0.5,0.8-1c0-0.6-0.5-1-1-1s-1,0.5-1,1c0,0.1,0,0.2,0.1,0.4c-2.2-1-4.6-1.6-7.1-1.7  c1.5-0.4,2.5-1.8,2.5-3.4c0-1.6-1-2.9-2.5-3.3c0.3-0.2,0.5-0.6,0.5-1c0-0.3-0.1-0.6-0.4-0.9c0.1-0.7,0.3-1.3,0.5-1.9  c0.1-0.1,0.1-0.1,0.2-0.2c0.3-0.3,0.8-0.5,1.1-0.7c0.5-0.3,1-0.6,1.5-0.9c0.7-0.4,0.1-1.4-0.6-1c-0.8,0.5-1.8,1-2.5,1.6  c-1.1-1.5-2.2-3.1-3.3-4.6c-0.4-0.6-1.5,0-1,0.6c1.2,1.7,2.3,3.3,3.5,5c-0.3,0.6-0.4,1.4-0.6,2.1c-0.5,0.1-0.9,0.6-0.9,1.1  c0,0.3,0.1,0.6,0.3,0.8C71.3,19.6,70,21,70,22.8c0,1.6,1.1,3,2.6,3.4c-2.4,0.2-4.6,0.7-6.8,1.5c0-0.1,0.1-0.2,0.1-0.3  c0-0.5-0.4-0.9-0.9-0.9c-0.5,0-0.9,0.4-0.9,0.9c0,0.4,0.2,0.7,0.5,0.8c-1.1,0.5-2.1,1.1-3.1,1.7c0-0.1,0.1-0.3,0.1-0.4  c0-0.5-0.2-0.9-0.5-1.2c0-0.3,0-0.7,0.1-1c0.1-0.8-1-1.1-1.2-0.3c0,0.2-0.1,0.5-0.1,0.7c-0.1,0-0.1,0-0.2,0c-0.1,0-0.2,0-0.3,0  c-0.3-0.4-0.6-0.8-1-1.2c0.3-0.4,0.7-0.9,1-1.3c0.5-0.6-0.6-1.2-1-0.6c-0.3,0.4-0.5,0.7-0.8,1.1c0,0-0.1,0-0.1,0  c-0.5-0.4-1-0.8-1.5-1.1c-0.7-0.4-1.3,0.7-0.6,1c0.3,0.2,0.6,0.4,0.9,0.6c-0.3,0.2-0.6,0.3-0.8,0.5c-0.7,0.4-0.1,1.4,0.6,1  c0.4-0.2,0.8-0.4,1.2-0.7c0.4,0.4,0.7,0.7,1,1.2c-0.1,0.1-0.3,0.3-0.3,0.5c-0.3,0-0.5,0-0.8,0c-0.8,0-0.8,1.2,0,1.2  c0.2,0,0.4,0,0.6,0c0.2,0.8,0.8,1.4,1.7,1.4c-1.1,0.9-2.2,1.9-3.1,3.1c0,0,0-0.1,0-0.1c0-0.7-0.6-1.2-1.2-1.2s-1.2,0.6-1.2,1.2  c0,0.7,0.6,1.2,1.2,1.2c0.1,0,0.2,0,0.4-0.1c-2.5,3.3-4.2,7.4-4.7,11.8c-0.7-2.2-2.2-4.1-4.2-5.2c0.1,0,0.1,0.1,0.2,0.1  c0.2,0,0.3-0.1,0.3-0.3c0-0.2-0.1-0.3-0.3-0.3c-0.2,0-0.3,0.1-0.3,0.3c0,0.1,0,0.1,0.1,0.2c-0.5-0.3-1-0.5-1.5-0.7  c0.2,0,0.4-0.2,0.4-0.4c0-0.2-0.2-0.4-0.4-0.4c-0.2,0-0.4,0.2-0.4,0.4c0,0.1,0,0.2,0.1,0.3c-0.8-0.2-1.5-0.3-2.4-0.4  c0.2-0.1,0.3-0.3,0.3-0.5c0-0.3-0.3-0.6-0.6-0.6c-0.3,0-0.6,0.3-0.6,0.6c0,0.2,0.1,0.4,0.3,0.5c-1.4,0.1-2.8,0.4-4,1.1  c0.1-0.2,0.2-0.4,0.2-0.6c0-0.5-0.4-0.9-0.8-1c0,0,0,0,0,0c-0.3-0.6-0.1-1.3-0.8-1.7c-0.7-0.4-1.4-0.5-2.2-0.7  c-0.2-0.8-0.2-1.6-0.3-2.5c-0.1-0.5-0.4-0.9-0.9-1c-0.7-0.3-1,0.9-0.3,1.2c0.2,0.1,0.1,1.3,0.1,1.6c0.1,0.5,0.1,1.4,0.5,1.8  c0.4,0.4,1.3,0.4,1.9,0.5c0.8,0.2,0.7,0.9,1,1.4c-0.1,0.2-0.2,0.3-0.2,0.5c0,0.6,0.5,1,1,1c0.1,0,0.1,0,0.1,0  c-0.8,0.5-1.5,1.1-2.1,1.8c-0.1-0.3-0.4-0.6-0.7-0.6c-0.4,0-0.7,0.3-0.7,0.7s0.3,0.7,0.7,0.7c0,0,0,0,0.1,0  c-0.7,1.1-1.2,2.5-1.4,3.9c-0.4-0.7-1.2-1.3-2.1-1.3c-1,0-1.9,0.6-2.2,1.5c-0.2-0.1-0.4-0.4-0.6-0.4c-0.4,0-0.7,0.8-0.8,0.8H15.5  c-0.2,0-0.7-1.7-1.2-1.7c-0.6,0-1,1.7-1.2,1.7H5.6c-0.1,0-0.3,0.3-0.3,0.5s0.1,0.6,0.3,0.6h7.5c0.2,0,0.6,1.5,1.2,1.5  s1.1-1.5,1.2-1.5h11.7c0.2,0,0.5,0.7,0.8,0.7c0.2,0,0.4-0.2,0.6-0.3c0.3,0.9,1.2,1.5,2.2,1.5c0.9,0,1.7-0.5,2.1-1.3  c0.2,1.4,0.7,2.7,1.4,3.9c0,0,0,0-0.1,0c-0.4,0-0.8,0.3-0.8,0.8c0,0.4,0.3,0.8,0.8,0.8c0.4,0,0.7-0.3,0.7-0.6c0.6,0.7,1.3,1.3,2,1.8  c0,0,0,0,0,0c-0.6,0-1,0.4-1,1c0,0.2,0.1,0.3,0.1,0.5c-0.4,0.7-0.9,1.1-1.6,1.5c-0.5,0.3-1.2,0.1-1.7,0.6c-1.2,1-0.7,2.6-1.6,3.8  c-0.4,0.6,0.6,1.2,1,0.6c0.8-1.1,0.3-3.5,2-3.6c1.1-0.1,2.4-1.3,2.9-2.3c0,0,0,0,0,0c0.4-0.1,0.8-0.5,0.8-1c0-0.2-0.1-0.4-0.2-0.5  c1.2,0.6,2.5,1,4,1c-0.2,0.1-0.4,0.3-0.4,0.5c0,0.3,0.3,0.6,0.6,0.6c0.3,0,0.6-0.3,0.6-0.6c0-0.3-0.2-0.5-0.4-0.5  c0.9,0,1.8-0.2,2.6-0.4c-0.1,0.1-0.1,0.2-0.1,0.3c0,0.2,0.2,0.4,0.4,0.4c0.2,0,0.4,0,0.4-0.2S45.2,59,45,59c0,0,0,0,0,0  c0.5-1,1.1-0.6,1.5-0.9c0,0-0.1,0-0.1,0.1c0,0.2,0.1,0.3,0.3,0.3c0.2,0,0.3-0.2,0.3-0.3c0-0.2-0.1-0.3-0.3-0.3  c1.9-1.1,3.3-2.9,4-5.1c0.5,4.3,2.1,8.3,4.6,11.6c-0.7,0-1.2,0.5-1.2,1.2s0.5,1.2,1.2,1.2c0.6,0,1-0.4,1.2-1c0.9,1.1,1.9,2,3,2.9  c-0.7,0.1-1.3,0.5-1.6,1.1c-0.3,0-0.5,0-0.8-0.1c-0.8-0.1-0.8,1.1,0,1.2c0.2,0,0.5,0,0.7,0c0.1,0.3,0.2,0.5,0.3,0.7  c-0.3,0.4-0.6,0.7-0.9,1c-0.4-0.2-0.8-0.4-1.2-0.7c-0.7-0.4-1.3,0.7-0.6,1c0.3,0.2,0.6,0.3,0.8,0.5c-0.3,0.2-0.6,0.4-0.9,0.6  c-0.7,0.4-0.1,1.4,0.6,1c0.5-0.3,1-0.7,1.5-1.1c0,0,0.1,0,0.1,0c0.3,0.4,0.5,0.7,0.8,1.1c0.5,0.6,1.5,0,1-0.6  c-0.3-0.4-0.7-0.9-1-1.3c0.3-0.3,0.5-0.6,0.8-0.9c0.1,0,0.3,0.1,0.5,0.1c0,0,0,0,0,0c0,0.2,0,0.3,0.1,0.5c0.2,0.7,1.4,0.4,1.2-0.3  c-0.1-0.2-0.1-0.4-0.1-0.6c0.4-0.3,0.6-0.8,0.6-1.4c0-0.1,0-0.3-0.1-0.4c1,0.6,2,1.2,3.1,1.7c-0.4,0.2-0.7,0.6-0.7,1.1  c0,0.7,0.5,1.2,1.2,1.2c0.7,0,1.2-0.5,1.2-1.2c0-0.2,0-0.3-0.1-0.4c2,0.7,4.2,1.2,6.5,1.4c-1.5,0.4-2.6,1.8-2.6,3.4  c0,1.8,1.3,3.2,3,3.5c-0.2,0.2-0.3,0.5-0.3,0.9c0,0.6,0.4,1,0.9,1.2c0,0.3,0,0.6,0.1,0.9c0.2,1-0.1,1.8-0.7,2.7  c-0.4,0.6-0.8,1.2-1.2,1.8c-0.3,0.5-0.4,1.5-0.9,1.8c-0.7,0.4-0.1,1.4,0.6,1c1.2-0.7,1.5-2.5,2.2-3.6c0.4-0.5,0.8-0.9,1.1-1.4  c0.8,0.5,1.7,0.9,2.7,1.1c0.8,0.1,1.1-1,0.3-1.2c-0.9-0.2-1.7-0.5-2.5-1.1c0-0.7-0.2-1.6-0.2-2.3c0,0,0,0,0,0c0-0.2,0.3-0.6,0.3-1  c0-0.4-0.3-0.8-0.6-1c1.4-0.5,2.3-1.8,2.3-3.3c0-1.6-1-2.9-2.4-3.3c2.4-0.1,4.6-0.7,6.7-1.6c0,0.1,0,0.1,0,0.2  c0,0.7,0.6,1.3,1.3,1.3s1.3-0.6,1.3-1.3c0-0.5-0.3-1-0.7-1.2c1.2-0.7,2.3-1.6,3.3-2.5c0,0.1,0,0.3,0,0.4c0,0.8,0.5,1.4,1.2,1.6  c0,0.1,0,0.1,0,0.2c0,0.4,0,0.8,0.1,1.3c0,0.8,1.2,0.8,1.2,0c0-0.4,0-0.8-0.1-1.3c0-0.1,0-0.1-0.1-0.2c0.1,0,0.1-0.1,0.2-0.1  c0.3,0.4,0.7,0.8,1.2,1.1c0.9,0.6,0.6,2.1,0.4,3c-0.2,0.8,1,1.1,1.2,0.3c0.2-0.8,0.3-1.7,0.2-2.5c0.3,0.2,0.6,0.3,1,0.4  C93.6,73.1,93.9,72,93.2,71.8z"/><text x="0" y="115" fill="#000000" font-size="5px" font-weight="bold" font-family="'Helvetica Neue', Helvetica, Arial-Unicode, Arial, Sans-serif">Created by Christian Frost</text><text x="0" y="120" fill="#000000" font-size="5px" font-weight="bold" font-family="'Helvetica Neue', Helvetica, Arial-Unicode, Arial, Sans-serif">from the Noun Project</text></svg>