<svg xmlns="http://www.w3.org/2000/svg" xmlns:xlink="http://www.w3.org/1999/xlink" version="1.1" x="0px" y="0px" viewBox="0 0 100 125" enable-background="new 0 0 100 100" xml:space="preserve"><path d="M91.4,30.6c-0.5,0.5-1.4,0.5-1.9,0c-0.1-0.1-0.1-0.1-0.2-0.2c-0.2,1.6-0.9,3-2,4.2c0,0,0.1,0,0.1,0c0.7,0,1.3,0.6,1.3,1.3  c0,0.7-0.6,1.3-1.3,1.3c-0.7,0-1.3-0.6-1.3-1.3c0-0.1,0-0.2,0-0.3c-1.3,1-3,1.6-4.8,1.6c-3.5,0-6.5-2.3-7.6-5.4  c-0.6,5.1-2.8,9.7-6.1,13.3c0.3-0.1,0.7-0.1,1-0.1c2.1,0,3.9,1.7,3.9,3.8c0,2.1-1.7,3.8-3.9,3.8s-3.9-1.7-3.9-3.8  c0-0.4,0.1-0.9,0.2-1.3c-3.5,2.8-7.9,4.7-12.6,5.1c3.2,0.5,6.1,2,8.3,4.1c0-0.1-0.1-0.3-0.1-0.4c0-0.7,0.6-1.3,1.3-1.3  c0.7,0,1.3,0.6,1.3,1.3s-0.6,1.3-1.3,1.3c-0.2,0-0.3,0-0.5-0.1c2.4,2.7,3.9,6.3,3.9,10.2c0,4.1-1.6,7.8-4.3,10.6  c0.1,0,0.3-0.1,0.4-0.1c0.7,0,1.3,0.6,1.3,1.3c0,0.7-0.6,1.3-1.3,1.3c-0.7,0-1.3-0.6-1.3-1.3c0-0.2,0-0.3,0.1-0.5  c-2.4,2.1-5.5,3.5-8.9,3.8c1.3,0.5,2.3,1.8,2.3,3.3c0,1.8-1.3,3.3-3,3.5c0.6,0.2,1,0.7,1,1.4c0,0.8-0.6,1.4-1.4,1.5c0.5,0,1,0.5,1,1  c0,0.6-0.5,1.1-1.1,1.1s-1.1-0.5-1.1-1.1c0-0.6,0.4-1,1-1c-0.8,0-1.4-0.7-1.4-1.5c0-0.6,0.4-1.2,1-1.4c-1.7-0.3-3-1.7-3-3.5  c0-1.5,0.9-2.8,2.3-3.3c-3.6-0.3-6.9-1.9-9.4-4.2c0,0.1,0.1,0.3,0.1,0.4c0,0.7-0.6,1.3-1.3,1.3c-0.7,0-1.3-0.6-1.3-1.3  c0-0.7,0.6-1.3,1.3-1.3c0.2,0,0.3,0,0.5,0.1c-2.4-2.7-3.9-6.3-3.9-10.2c0-4.1,1.6-7.8,4.3-10.6c-0.1,0-0.3,0.1-0.4,0.1  c-0.7,0-1.3-0.6-1.3-1.3c0-0.7,0.6-1.3,1.3-1.3c0.7,0,1.3,0.6,1.3,1.3c0,0.2,0,0.3-0.1,0.5c2.2-1.9,4.9-3.2,7.9-3.7  c-5.3-0.5-10.1-2.7-13.8-6.1c0.1,0.3,0.1,0.7,0.1,1c0,2.1-1.7,3.8-3.9,3.8s-3.9-1.7-3.9-3.8c0-2.1,1.7-3.8,3.9-3.8  c0.4,0,0.9,0.1,1.3,0.2c-2.8-3.5-4.7-7.7-5.2-12.4c-1.1,3.1-4.1,5.3-7.6,5.3c-2.1,0-4-0.8-5.4-2.1c0,0,0,0.1,0,0.1  c0,0.7-0.6,1.3-1.3,1.3s-1.3-0.6-1.3-1.3c0-0.7,0.6-1.3,1.3-1.3c0.1,0,0.2,0,0.3,0c-0.9-1.2-1.5-2.7-1.6-4.3c0,0-0.1,0.1-0.1,0.1  c-0.5,0.5-1.4,0.5-1.9,0c-0.5-0.5-0.5-1.4,0-1.9c0.5-0.5,1.4-0.5,1.9,0c0.1,0.1,0.1,0.1,0.2,0.2c0.2-1.6,0.9-3,2-4.2  c0,0-0.1,0-0.1,0c-0.7,0-1.3-0.6-1.3-1.3c0-0.7,0.6-1.3,1.3-1.3c0.7,0,1.3,0.6,1.3,1.3c0,0.1,0,0.2,0,0.3c1.3-1,3-1.6,4.8-1.6  c3.5,0,6.5,2.3,7.6,5.4c0.6-5.1,2.8-9.7,6.1-13.3c-0.3,0.1-0.7,0.1-1,0.1c-2.1,0-3.9-1.7-3.9-3.8c0-2.1,1.7-3.8,3.9-3.8  s3.9,1.7,3.9,3.8c0,0.4-0.1,0.9-0.2,1.3c4.1-3.3,9.3-5.3,15-5.3c6.2,0,11.9,2.4,16.1,6.2c-0.1-0.3-0.1-0.7-0.1-1  c0-2.1,1.7-3.8,3.9-3.8s3.9,1.7,3.9,3.8c0,2.1-1.7,3.8-3.9,3.8c-0.4,0-0.9-0.1-1.3-0.2c2.8,3.5,4.7,7.7,5.2,12.4  c1.1-3.1,4.1-5.3,7.6-5.3c2.1,0,4,0.8,5.4,2.1c0,0,0-0.1,0-0.1c0-0.7,0.6-1.3,1.3-1.3s1.3,0.6,1.3,1.3c0,0.7-0.6,1.3-1.3,1.3  c-0.1,0-0.2,0-0.3,0c0.9,1.2,1.5,2.7,1.6,4.3c0,0,0.1-0.1,0.1-0.1c0.5-0.5,1.4-0.5,1.9,0C91.9,29.2,91.9,30,91.4,30.6z"/><text x="0" y="115" fill="#000000" font-size="5px" font-weight="bold" font-family="'Helvetica Neue', Helvetica, Arial-Unicode, Arial, Sans-serif">Created by Andrew Hannah</text><text x="0" y="120" fill="#000000" font-size="5px" font-weight="bold" font-family="'Helvetica Neue', Helvetica, Arial-Unicode, Arial, Sans-serif">from the Noun Project</text></svg>