<svg aria-hidden="true" style="position: absolute; width: 0; height: 0; overflow: hidden;" version="1.1" xmlns="http://www.w3.org/2000/svg" xmlns:xlink="http://www.w3.org/1999/xlink">
<defs>
<!-- Header -->
<symbol id="icon-chat" viewBox="0 0 20 20">
<path d="M5.8 12.2v-6.2h-3.8c-1.1 0-2 0.9-2 2v6c0 1.1 0.9 2 2 2h1v3l3-3h5c1.1 0 2-0.9 2-2v-1.82c-0.064 0.014-0.132 0.021-0.2 0.021l-7-0.001zM18 1h-9c-1.1 0-2 0.9-2 2v8h7l3 3v-3h1c1.1 0 2-0.899 2-2v-6c0-1.1-0.9-2-2-2z"></path>
</symbol>

<symbol id="icon-search" viewBox="0 0 20 20">
<path d="M17.545 15.467l-3.779-3.779c0.57-0.935 0.898-2.035 0.898-3.21 0-3.417-2.961-6.377-6.378-6.377s-6.186 2.769-6.186 6.186c0 3.416 2.961 6.377 6.377 6.377 1.137 0 2.2-0.309 3.115-0.844l3.799 3.801c0.372 0.371 0.975 0.371 1.346 0l0.943-0.943c0.371-0.371 0.236-0.84-0.135-1.211zM4.004 8.287c0-2.366 1.917-4.283 4.282-4.283s4.474 2.107 4.474 4.474c0 2.365-1.918 4.283-4.283 4.283s-4.473-2.109-4.473-4.474z"></path>
</symbol>

<symbol id="icon-activity" viewBox="0 0 28 28">
<path d="M1.625 11.031l12.375 15.859-13.563-9.844c-0.375-0.281-0.531-0.766-0.391-1.203l1.578-4.813zM8.844 11.031h10.313l-5.156 15.859zM5.75 1.469l3.094 9.562h-7.219l3.094-9.562c0.172-0.484 0.859-0.484 1.031 0zM26.375 11.031l1.578 4.813c0.141 0.438-0.016 0.922-0.391 1.203l-13.563 9.844 12.375-15.859zM26.375 11.031h-7.219l3.094-9.562c0.172-0.484 0.859-0.484 1.031 0z"></path>
</symbol>
<!-- /Header -->

<!-- Navbar -->
<symbol id="icon-active-now" viewBox="0 0 32 32">
<path d="M16 29.958c-7.709 0-13.958-6.249-13.958-13.958s6.249-13.958 13.958-13.958c7.709 0 13.959 6.249 13.959 13.958s-6.25 13.958-13.959 13.958zM22.92 5.552c-3.723-2.499-6.879-2.088-6.879-2.088l-0.003 9.008c-1.269 0.032-2.36 0.732-2.958 1.761l-7.627-4.886c0 0-2.021 1.979-2.021 6.464s1.937 6.652 1.937 6.652l7.723-4.676c0.601 1.019 1.687 1.709 2.947 1.741l0.003 9.134c0 0 3.157 0.411 6.879-2.087 3.725-2.499 4.316-5.071 4.316-5.071l-7.982-3.887c0.254-0.486 0.41-1.031 0.41-1.617 0-0.53-0.125-1.027-0.334-1.479l8.074-3.814c-0.001-0.001-0.76-2.657-4.485-5.155zM16.126 18.021c-1.116 0-2.021-0.905-2.021-2.021s0.905-2.021 2.021-2.021c1.116 0 2.020 0.905 2.020 2.021s-0.904 2.021-2.020 2.021z"></path>
</symbol>

<symbol id="icon-recent-chat" viewBox="0 0 24 24">
<path d="M18 8.016v-2.016h-12v2.016h12zM14.016 14.016v-2.016h-8.016v2.016h8.016zM6 9v2.016h12v-2.016h-12zM20.016 2.016q0.797 0 1.383 0.586t0.586 1.383v12q0 0.797-0.586 1.406t-1.383 0.609h-14.016l-3.984 3.984v-18q0-0.797 0.586-1.383t1.383-0.586h16.031z"></path>
</symbol>

<symbol id="icon-user-search" viewBox="0 0 28 28">
<path d="M11 5v12c0 0.547-0.453 1-1 1v0 9c0 0.547-0.453 1-1 1h-8c-0.547 0-1-0.453-1-1v-8l3.891-13.641c0.063-0.219 0.266-0.359 0.484-0.359h6.625zM16 5v11h-4v-11h4zM28 19v8c0 0.547-0.453 1-1 1h-8c-0.547 0-1-0.453-1-1v-9c-0.547 0-1-0.453-1-1v-12h6.625c0.219 0 0.422 0.141 0.484 0.359zM11.5 0.5v3.5h-5.5v-3.5c0-0.281 0.219-0.5 0.5-0.5h4.5c0.281 0 0.5 0.219 0.5 0.5zM22 0.5v3.5h-5.5v-3.5c0-0.281 0.219-0.5 0.5-0.5h4.5c0.281 0 0.5 0.219 0.5 0.5z"></path>
</symbol>

<symbol id="icon-user-friend" viewBox="0 0 32 32">
<path d="M17.788 24.32c-0-0.001-0-0.003-0-0.004 0 0.001 0 0.003 0 0.004z"></path>
<path d="M17.831 25.454c-0-0.007-0.001-0.015-0.001-0.022 0 0.007 0.001 0.015 0.001 0.022z"></path>
<path d="M17.807 24.885c-0-0.006-0-0.011-0.001-0.017 0 0.006 0 0.011 0.001 0.017z"></path>
<path d="M30 0h-28c-1.1 0-2 0.9-2 2v28c0 1.1 0.9 2 2 2h15.432c0.001 0 0.003 0 0.004 0s0.003-0 0.004-0h12.56c1.1 0 2-0.9 2-2v-28c0-1.1-0.9-2-2-2zM6 7c0-0.552 0.448-1 1-1s1 0.448 1 1v2c0 0.552-0.448 1-1 1s-1-0.448-1-1v-2zM30 30h-11.721c-0.209-1.315-0.341-2.671-0.418-3.988 0 0.004 0 0.007 0.001 0.011-0.616 0.067-1.237 0.102-1.862 0.102-4.177 0-8.199-1.52-11.328-4.281-0.466-0.411-0.51-1.122-0.099-1.588s1.122-0.51 1.588-0.099c2.717 2.398 6.211 3.718 9.839 3.718 0.596 0 1.189-0.036 1.776-0.107-0.069-3.694 0.215-6.622 0.22-6.669 0.028-0.281-0.064-0.561-0.254-0.77s-0.459-0.329-0.741-0.329h-2.974c0.043-1.082 0.159-2.932 0.467-5.006 0.589-3.961 1.625-7.055 3.005-8.994h12.502v28z"></path>
<path d="M25 10c-0.552 0-1-0.448-1-1v-2c0-0.552 0.448-1 1-1s1 0.448 1 1v2c0 0.552-0.448 1-1 1z"></path>
<path d="M16.89 26.101c-0.114 0.006-0.228 0.011-0.342 0.014 0.114-0.004 0.228-0.008 0.342-0.014z"></path>
<path d="M16 26.125c0.147 0 0.293-0.002 0.439-0.006-0.146 0.004-0.292 0.006-0.439 0.006z"></path>
<path d="M16.846 23.85c0.024-0.001 0.049-0.003 0.073-0.004-0.024 0.002-0.049 0.003-0.073 0.004z"></path>
<path d="M16.409 23.869c0.034-0.001 0.067-0.002 0.101-0.003-0.034 0.001-0.067 0.003-0.101 0.003z"></path>
<path d="M27.427 20.256c-0.411-0.466-1.122-0.51-1.588-0.099-2.27 2.004-5.083 3.254-8.063 3.612 0.013 0.727 0.040 1.484 0.086 2.255 3.499-0.382 6.806-1.832 9.466-4.18 0.466-0.411 0.51-1.122 0.099-1.588z"></path>
<path d="M17.859 26.023c-0.144 0.016-0.288 0.029-0.433 0.041 0.145-0.012 0.289-0.026 0.433-0.041z"></path>
<path d="M17.359 26.070c-0.122 0.010-0.244 0.018-0.367 0.025 0.122-0.007 0.245-0.015 0.367-0.025z"></path>
</symbol>

<symbol id="icon-request-sent" viewBox="0 0 32 32">
<path d="M16 0c-8.838 0-16 7.162-16 16s7.162 16 16 16 16-7.163 16-16-7.163-16-16-16zM23.863 10.969l-2.625 12.369c-0.181 0.881-0.712 1.087-1.45 0.681l-4-2.956-1.919 1.869c-0.225 0.219-0.4 0.4-0.8 0.4-0.519 0-0.431-0.194-0.606-0.688l-1.363-4.475-3.956-1.231c-0.856-0.262-0.862-0.85 0.194-1.269l15.412-5.95c0.7-0.319 1.381 0.169 1.113 1.25z"></path>
</symbol>

<symbol id="icon-request-receive" viewBox="0 0 32 32">
<path d="M16 2c8.837 0 16 7.163 16 16 0 6.025-3.331 11.271-8.25 14h-15.499c-4.92-2.729-8.25-7.975-8.25-14 0-8.837 7.163-16 16-16zM25.060 27.060c2.42-2.42 3.753-5.637 3.753-9.060h-2.813v-2h2.657c-0.219-1.406-0.668-2.755-1.33-4h-3.327v-2h2.009c-0.295-0.368-0.611-0.722-0.949-1.060-1.444-1.444-3.173-2.501-5.060-3.119v2.178h-2v-2.658c-0.656-0.102-1.324-0.155-2-0.155s-1.344 0.053-2 0.155v2.658h-2v-2.178c-1.887 0.617-3.615 1.674-5.060 3.119-0.338 0.338-0.654 0.692-0.949 1.060h2.009v2h-3.327c-0.662 1.245-1.111 2.594-1.33 4h2.657v2h-2.813c0 3.422 1.333 6.64 3.753 9.060 0.335 0.335 0.685 0.648 1.049 0.94h6.011l1.143-16h1.714l1.143 16h6.011c0.364-0.292 0.714-0.606 1.049-0.94z"></path>
</symbol>

<!-- /Navbar -->
<!-- Alerts -->
<symbol id="icon-info" viewBox="0 0 32 32">
<path d="M14 9.5c0-0.825 0.675-1.5 1.5-1.5h1c0.825 0 1.5 0.675 1.5 1.5v1c0 0.825-0.675 1.5-1.5 1.5h-1c-0.825 0-1.5-0.675-1.5-1.5v-1z"></path>
<path d="M20 24h-8v-2h2v-6h-2v-2h6v8h2z"></path>
<path d="M16 0c-8.837 0-16 7.163-16 16s7.163 16 16 16 16-7.163 16-16-7.163-16-16-16zM16 29c-7.18 0-13-5.82-13-13s5.82-13 13-13 13 5.82 13 13-5.82 13-13 13z"></path>
</symbol>

<symbol id="icon-success" viewBox="0 0 32 32">
<path d="M27 4l-15 15-7-7-5 5 12 12 20-20z"></path>
</symbol>

<symbol id="icon-failure" viewBox="0 0 32 32">
<path d="M31.708 25.708c-0-0-0-0-0-0l-9.708-9.708 9.708-9.708c0-0 0-0 0-0 0.105-0.105 0.18-0.227 0.229-0.357 0.133-0.356 0.057-0.771-0.229-1.057l-4.586-4.586c-0.286-0.286-0.702-0.361-1.057-0.229-0.13 0.048-0.252 0.124-0.357 0.228 0 0-0 0-0 0l-9.708 9.708-9.708-9.708c-0-0-0-0-0-0-0.105-0.104-0.227-0.18-0.357-0.228-0.356-0.133-0.771-0.057-1.057 0.229l-4.586 4.586c-0.286 0.286-0.361 0.702-0.229 1.057 0.049 0.13 0.124 0.252 0.229 0.357 0 0 0 0 0 0l9.708 9.708-9.708 9.708c-0 0-0 0-0 0-0.104 0.105-0.18 0.227-0.229 0.357-0.133 0.355-0.057 0.771 0.229 1.057l4.586 4.586c0.286 0.286 0.702 0.361 1.057 0.229 0.13-0.049 0.252-0.124 0.357-0.229 0-0 0-0 0-0l9.708-9.708 9.708 9.708c0 0 0 0 0 0 0.105 0.105 0.227 0.18 0.357 0.229 0.356 0.133 0.771 0.057 1.057-0.229l4.586-4.586c0.286-0.286 0.362-0.702 0.229-1.057-0.049-0.13-0.124-0.252-0.229-0.357z"></path>
</symbol>
<!-- /Alerts -->

<!-- Forms -->
<symbol id="icon-cross" viewBox="0 0 32 32">
<path d="M31.708 25.708c-0-0-0-0-0-0l-9.708-9.708 9.708-9.708c0-0 0-0 0-0 0.105-0.105 0.18-0.227 0.229-0.357 0.133-0.356 0.057-0.771-0.229-1.057l-4.586-4.586c-0.286-0.286-0.702-0.361-1.057-0.229-0.13 0.048-0.252 0.124-0.357 0.228 0 0-0 0-0 0l-9.708 9.708-9.708-9.708c-0-0-0-0-0-0-0.105-0.104-0.227-0.18-0.357-0.228-0.356-0.133-0.771-0.057-1.057 0.229l-4.586 4.586c-0.286 0.286-0.361 0.702-0.229 1.057 0.049 0.13 0.124 0.252 0.229 0.357 0 0 0 0 0 0l9.708 9.708-9.708 9.708c-0 0-0 0-0 0-0.104 0.105-0.18 0.227-0.229 0.357-0.133 0.355-0.057 0.771 0.229 1.057l4.586 4.586c0.286 0.286 0.702 0.361 1.057 0.229 0.13-0.049 0.252-0.124 0.357-0.229 0-0 0-0 0-0l9.708-9.708 9.708 9.708c0 0 0 0 0 0 0.105 0.105 0.227 0.18 0.357 0.229 0.356 0.133 0.771 0.057 1.057-0.229l4.586-4.586c0.286-0.286 0.362-0.702 0.229-1.057-0.049-0.13-0.124-0.252-0.229-0.357z"></path>
</symbol>
<symbol id="icon-show" viewBox="0 0 20 20">
<path d="M0.2 10c1.86-3.592 5.548-6.004 9.8-6.004s7.94 2.412 9.771 5.943l0.029 0.061c-1.86 3.592-5.548 6.004-9.8 6.004s-7.94-2.412-9.771-5.943l-0.029-0.061zM10 14c2.209 0 4-1.791 4-4s-1.791-4-4-4v0c-2.209 0-4 1.791-4 4s1.791 4 4 4v0zM10 12c-1.105 0-2-0.895-2-2s0.895-2 2-2v0c1.105 0 2 0.895 2 2s-0.895 2-2 2v0z"></path>
</symbol>
<symbol id="icon-hide" viewBox="0 0 20 20">
<path d="M12.81 4.36l-1.77 1.78c-0.311-0.087-0.668-0.137-1.037-0.137-2.209 0-4 1.791-4 4 0 0.369 0.050 0.726 0.143 1.065l-0.007-0.028-2.76 2.75c-1.32-1-2.42-2.3-3.18-3.79 1.86-3.591 5.548-6.003 9.799-6.003 0.996 0 1.96 0.132 2.878 0.38l-0.077-0.018zM16.61 6.21c1.33 1 2.43 2.3 3.2 3.79-1.859 3.594-5.549 6.007-9.802 6.007-1.002 0-1.973-0.134-2.895-0.385l0.077 0.018 1.77-1.78c0.311 0.087 0.668 0.137 1.037 0.137 2.209 0 4-1.791 4-4 0-0.369-0.050-0.726-0.143-1.065l0.007 0.028 2.76-2.75zM16.36 2.22l1.42 1.42-14.14 14.14-1.42-1.42 14.14-14.14z"></path>
</symbol>
<!-- /Forms -->

<!-- Chat Panel -->
<symbol id="icon-dot"  viewBox="8 8 4 4">
<path d="M7.8 10c0 1.215 0.986 2.2 2.201 2.2s2.199-0.986 2.199-2.2c0-1.215-0.984-2.199-2.199-2.199s-2.201 0.984-2.201 2.199z"></path>
</symbol>

<symbol id="icon-mark-read"  viewBox="0 0 100 100">
<path d="M13.995,26.46c-0.314-0.294-0.601-0.299-0.86-0.022l0.113,0.551c0.09,0.085,0.322,0.152,0.694,0.203  C14.054,27.074,14.072,26.826,13.995,26.46z M21.283,25.122c0.89-0.952,0.797-1.932-0.281-2.936  c-1.034-0.961-1.992-0.966-2.882-0.014c-0.889,0.955-0.819,1.912,0.214,2.875C19.413,26.052,20.394,26.079,21.283,25.122z   M72.596,80.654c-0.406-0.379-1.004-0.638-1.795-0.78c0.753-1.527,1.25-2.553,1.483-3.074c1.64,0.489,2.997,0.159,4.074-0.992  c1.034-1.113,1.312-2.265,0.83-3.458c2.07,1.109,3.639,1.089,4.717-0.062c0.48-0.515,0.715-1.263,0.702-2.239  c-0.015-0.978-0.398-1.82-1.161-2.533c-0.315-0.293-0.653-0.516-1.016-0.668c-0.361-0.151-0.568-0.248-0.611-0.289  c-0.134-0.125-0.059-0.431,0.224-0.909c0.337-0.725,0.511-1.229,0.526-1.515c1.872,0.334,3.271,0.006,4.195-0.987  c0.704-0.756,1.017-1.724,0.948-2.906c-0.073-1.182-0.586-2.213-1.523-3.09c-0.494-0.462-1.225-0.848-2.198-1.157  c0.088-0.812,0.193-1.42,0.316-1.823c1.946,0.704,3.459,0.476,4.531-0.677c0.632-0.675,0.932-1.582,0.905-2.724  c-0.029-1.137-0.515-2.147-1.458-3.026c-0.535-0.501-1.097-0.803-1.681-0.9c0.344-1.537,0.42-2.654,0.23-3.351  c1.553,0.406,2.678,0.233,3.381-0.522c0.336-0.358,0.513-0.974,0.531-1.85c0.018-0.872-0.286-1.604-0.915-2.188  c-0.405-0.379-1.045-0.639-1.914-0.782c-0.872-0.146-1.588,0.08-2.144,0.675c-0.334,0.36-0.521,0.923-0.571,1.695  c-1.42-0.892-2.222-1.368-2.424-1.438c-0.054-0.211-0.032-0.852,0.069-1.98c1.536,0.691,2.754,0.561,3.644-0.395  c1.333-1.429,1.215-2.877-0.357-4.341c-1.614-1.508-3.089-1.543-4.425-0.115c-0.443,0.479-0.672,1.081-0.683,1.814  c-0.895-0.392-1.519-0.711-1.872-0.965c0.072-0.974,0.051-1.809-0.055-2.504c1.357,0.526,2.464,0.33,3.316-0.584  c1.22-1.313,1.067-2.679-0.459-4.102c-1.479-1.382-2.831-1.417-4.055-0.104c-0.371,0.395-0.569,0.878-0.595,1.446  c-1.078-0.557-1.89-0.944-2.444-1.162c0.186-1.906-0.395-3.49-1.741-4.744c-1.032-0.963-2.264-1.441-3.692-1.437  c0.32-1.785-0.016-3.136-1.003-4.056c-1.661-1.55-3.195-1.567-4.603-0.058c-0.073,0.08-0.23,0.29-0.461,0.63  c-0.232,0.337-0.404,0.568-0.519,0.688c-1.326-0.645-2.368-1.058-3.12-1.239c0.142-1.504-0.281-2.715-1.268-3.636  c-1.752-1.631-3.368-1.652-4.851-0.063c-0.48,0.518-0.737,1.242-0.771,2.175c-1.767-1.347-3.428-1.634-4.987-0.86  c1.116-1.559,1.116-2.862-0.006-3.908c-1.214-1.129-2.319-1.157-3.318-0.084c-1.04,1.111-0.953,2.232,0.26,3.364  c0.675,0.627,1.494,0.873,2.462,0.734l-1.666,2.459c-1.116-0.15-1.985-0.253-2.604-0.31c0.223-1.5-0.114-2.668-1.01-3.505  c-0.54-0.502-1.252-0.796-2.141-0.882c-0.884-0.081-1.606,0.174-2.161,0.769c-0.443,0.478-0.656,1.153-0.633,2.03  c0.023,0.876,0.37,1.627,1.044,2.255c0.404,0.375,1.001,0.636,1.791,0.777c-0.414,0.803-0.763,1.406-1.053,1.805  c-0.827-0.103-1.443-0.161-1.855-0.17c0.179-1.542-0.181-2.732-1.078-3.57c-0.584-0.543-1.298-0.855-2.146-0.939  c-0.846-0.082-1.563,0.194-2.157,0.83c-0.481,0.516-0.706,1.162-0.67,1.935c0.009,0.98,0.354,1.779,1.026,2.409  c0.313,0.292,0.663,0.506,1.043,0.638c0.379,0.13,0.594,0.217,0.639,0.261c0.134,0.124,0.073,0.365-0.176,0.727  c-0.32,0.522-0.489,0.883-0.51,1.086c-0.664-0.099-1.486-0.161-2.468-0.186c0.089-1.178,0.108-1.829,0.055-1.952  c-0.046-0.49-0.341-0.986-0.878-1.488c-1.435-1.34-2.748-1.374-3.93-0.103c-1.147,1.231-1.006,2.518,0.429,3.857  c0.583,0.543,1.179,0.804,1.792,0.779c-0.598,1.45-1.09,2.475-1.48,3.074c-1.677-0.451-3.018-0.14-4.021,0.935  c-0.852,0.915-1.122,2.146-0.809,3.701c-1.847-1.349-3.4-1.349-4.658,0.002c-0.517,0.556-0.768,1.272-0.744,2.147  c0.021,0.875,0.419,1.667,1.181,2.378c0.537,0.502,1.12,0.825,1.748,0.962c-0.037,0.04-0.238,0.524-0.598,1.449  c-0.273,0.563-0.322,1.113-0.149,1.646c-1.722-0.493-3.064-0.223-4.028,0.81c-0.594,0.636-0.86,1.483-0.796,2.543  c0.059,1.061,0.494,1.966,1.302,2.721c0.133,0.125,0.396,0.293,0.784,0.506c0.39,0.214,0.629,0.361,0.717,0.447  c0.135,0.124,0.129,0.491-0.016,1.097c-0.205,0.851-0.313,1.418-0.329,1.701c-1.476-0.485-2.677-0.229-3.604,0.761  c-0.443,0.479-0.668,1.214-0.676,2.21c-0.005,0.998,0.373,1.853,1.135,2.562c0.855,0.797,1.906,1.107,3.157,0.938  c-1.592,2.157-1.466,4.09,0.375,5.808c0.764,0.711,1.681,1.122,2.753,1.229c-0.974,2.215-0.674,4.055,0.899,5.519  c0.805,0.754,1.948,1.148,3.422,1.188c-0.906,2.05-0.64,3.746,0.796,5.086c0.762,0.713,1.659,1.101,2.687,1.168  c1.028,0.068,1.893-0.276,2.597-1.028c0.89-0.956,1.078-2.193,0.563-3.712c1.011,0.72,1.769,1.165,2.275,1.342  c-0.446,1.737-0.604,2.853-0.476,3.343c-1.702-0.694-2.995-0.563-3.886,0.388c-0.519,0.558-0.743,1.314-0.671,2.273  c0.072,0.958,0.444,1.751,1.12,2.379c0.583,0.543,1.357,0.838,2.321,0.885c0.964,0.044,1.727-0.23,2.281-0.825  c0.223-0.241,0.451-0.843,0.684-1.816l1.546,0.773c0.559,0.3,1.124,0.414,1.69,0.352c-0.739,1.686-0.39,3.202,1.047,4.542  c0.626,0.584,1.553,0.944,2.771,1.078c1.218,0.133,2.159-0.158,2.826-0.873c0.781-0.834,1.047-1.663,0.806-2.482  c1.001,0.638,1.906,0.925,2.718,0.864c-0.468,1.939-0.118,3.456,1.047,4.546c0.719,0.668,1.615,1.037,2.684,1.105  c1.07,0.067,1.937-0.254,2.603-0.97c0.334-0.357,0.623-0.982,0.86-1.87c2.562,1.123,4.544,0.932,5.955-0.579  c0.223-0.237,0.539-0.757,0.953-1.561c1.445,0.16,2.456,0.248,3.025,0.263c-0.44,1.369-0.188,2.496,0.756,3.373  c0.493,0.463,1.142,0.711,1.939,0.754c0.804,0.041,1.441-0.196,1.926-0.713c0.408-0.439,0.582-1.056,0.526-1.849  c-0.056-0.796-0.354-1.442-0.89-1.944c-0.405-0.377-1.024-0.659-1.858-0.843c0.645-0.959,1.003-1.661,1.084-2.107  c0.289,0.048,0.766,0.098,1.427,0.157c0.655,0.059,1.109,0.091,1.354,0.098c-0.416,1.168-0.155,2.193,0.788,3.072  c1.347,1.255,2.556,1.309,3.634,0.155C74.077,83.113,73.94,81.91,72.596,80.654z M12.496,35.088  c-0.987-0.922-1.873-0.963-2.649-0.129c-0.817,0.873-0.73,1.772,0.258,2.694c0.943,0.876,1.822,0.88,2.636,0.005  C13.521,36.824,13.438,35.968,12.496,35.088z M10.283,44.614c-0.988-0.92-1.869-0.961-2.647-0.128  c-0.815,0.873-0.729,1.768,0.259,2.69c0.943,0.879,1.82,0.883,2.636,0.008C11.308,46.35,11.227,45.491,10.283,44.614z M49.538,9.129  c0.133,0.125,0.437,0.206,0.911,0.237c0.471,0.032,0.803-0.048,0.988-0.248c0.149-0.158,0.232-0.451,0.251-0.878  c0.021-0.427-0.102-0.768-0.375-1.019c-0.176-0.165-0.505-0.264-0.976-0.299c-0.474-0.032-0.803,0.052-0.988,0.25  c-0.149,0.159-0.221,0.461-0.217,0.909C49.132,8.529,49.269,8.878,49.538,9.129z M6.477,54.771l-0.444,0.475  c0.09,0.532,0.206,0.861,0.341,0.987c0.088,0.083,0.401,0.152,0.939,0.206l0.445-0.476c-0.092-0.532-0.183-0.841-0.271-0.923  C7.35,54.915,7.016,54.823,6.477,54.771z M11.739,61.011c-0.809-0.754-1.528-0.793-2.158-0.118c-0.67,0.716-0.598,1.45,0.211,2.202  c0.807,0.755,1.547,0.773,2.213,0.059C12.634,62.477,12.544,61.764,11.739,61.011z M59.263,12.74  c0.853,0.796,1.652,0.795,2.394,0.001c0.703-0.757,0.625-1.532-0.224-2.327c-0.901-0.835-1.698-0.878-2.401-0.122  C58.288,11.087,58.368,11.902,59.263,12.74z M15.71,67.279c-0.852-0.799-1.65-0.799-2.39-0.002c-0.741,0.795-0.684,1.59,0.169,2.384  c0.898,0.836,1.717,0.859,2.457,0.062C16.685,68.931,16.609,68.117,15.71,67.279z M69.834,15.577  c0.312,0.292,0.646,0.384,1.008,0.27l0.387-0.417c0.124-0.403,0.031-0.752-0.285-1.045c-0.27-0.25-0.599-0.301-0.991-0.149  l-0.392,0.418C69.476,15.019,69.564,15.326,69.834,15.577z M19.607,74.032c-0.223-0.209-0.582-0.34-1.08-0.396  c-0.494-0.052-0.852,0.041-1.077,0.278c-0.663,0.714-0.595,1.452,0.214,2.204c0.223,0.211,0.571,0.328,1.044,0.36  c0.474,0.034,0.842-0.089,1.101-0.364c0.184-0.2,0.265-0.536,0.241-1.006C20.024,74.643,19.877,74.282,19.607,74.032z M72.763,23.1  c0.406,0.376,0.949,0.605,1.628,0.684c0.684,0.077,1.244-0.124,1.694-0.599c0.329-0.357,0.506-0.882,0.52-1.572  c0.017-0.691-0.244-1.29-0.785-1.792c-0.491-0.46-1.086-0.7-1.786-0.717c-0.695-0.019-1.247,0.192-1.654,0.629  c-0.298,0.317-0.453,0.821-0.47,1.512C71.896,21.938,72.179,22.554,72.763,23.1z M33.752,83.432  c-1.032-0.963-1.993-0.968-2.884-0.015c-0.85,0.916-0.761,1.853,0.271,2.816c1.078,1.004,2.042,1.051,2.894,0.134  C34.925,85.414,34.828,84.437,33.752,83.432z M44,86.748c-0.448-0.416-1.041-0.636-1.779-0.655s-1.273,0.149-1.606,0.509  c-0.296,0.316-0.417,0.852-0.368,1.607c0.054,0.754,0.304,1.34,0.753,1.759c0.36,0.334,0.909,0.531,1.649,0.592  c0.744,0.059,1.298-0.109,1.668-0.506c0.3-0.317,0.431-0.843,0.401-1.577C44.688,87.743,44.45,87.168,44,86.748z M88.639,48.597  c0.986,0.919,1.87,0.963,2.646,0.131c0.814-0.877,0.729-1.773-0.257-2.694c-0.944-0.879-1.821-0.882-2.638-0.007  C87.613,46.862,87.697,47.716,88.639,48.597z M53.505,90.595c-0.809-0.752-1.527-0.791-2.157-0.114  c-0.667,0.713-0.598,1.448,0.211,2.202c0.763,0.711,1.479,0.709,2.145-0.005C54.335,92.001,54.268,91.31,53.505,90.595z   M85.897,58.962c0.535,0.502,1.203,0.775,2.007,0.816c0.802,0.041,1.441-0.196,1.926-0.717c0.405-0.434,0.582-1.05,0.526-1.847  c-0.061-0.795-0.378-1.463-0.961-2.007c-0.494-0.461-1.141-0.709-1.941-0.752c-0.802-0.039-1.425,0.177-1.868,0.651  C84.4,56.381,84.502,57.665,85.897,58.962z M60.267,86.987c-0.493-0.461-1.079-0.689-1.75-0.688  c-0.677,0.004-1.217,0.224-1.622,0.662c-0.296,0.318-0.464,0.813-0.502,1.479c-0.037,0.671,0.232,1.278,0.818,1.825  c0.403,0.375,0.955,0.612,1.663,0.712c0.701,0.101,1.278-0.089,1.722-0.565c0.335-0.357,0.509-0.881,0.524-1.573  C61.135,88.148,60.853,87.532,60.267,86.987z M94.218,54.357c0.07-0.08,0.09-0.325,0.052-0.732c-0.315-0.293-0.6-0.3-0.86-0.021  l-0.007,0.547C93.536,54.277,93.808,54.347,94.218,54.357z M83.104,66.277c-0.05,0.771,0.22,1.429,0.801,1.976  c0.405,0.373,0.961,0.612,1.664,0.714c0.702,0.099,1.297-0.11,1.779-0.627c1-1.071,0.869-2.196-0.384-3.368  c-0.493-0.459-1.079-0.689-1.753-0.688c-0.675,0.005-1.196,0.203-1.567,0.604C83.312,65.243,83.133,65.707,83.104,66.277z   M78.399,77.936c-1.078-1.007-2.061-1.03-2.95-0.078c-0.852,0.914-0.741,1.872,0.338,2.879c1.032,0.963,1.975,0.987,2.83,0.071  C79.507,79.855,79.432,78.896,78.399,77.936z M91.83,63.939c0.069-0.079,0.112-0.302,0.118-0.668  c-0.314-0.295-0.604-0.302-0.861-0.021l-0.009,0.547C91.214,63.922,91.462,63.97,91.83,63.939z M83.521,75.686  c-0.581-0.014-0.881,0-0.918,0.038c-0.111,0.119-0.105,0.427,0.028,0.918c0.423,0.171,0.752,0.223,0.991,0.146  C83.711,76.423,83.677,76.059,83.521,75.686z"/>
<path d="M7.8 10c0 1.215 0.986 2.2 2.201 2.2s2.199-0.986 2.199-2.2c0-1.215-0.984-2.199-2.199-2.199s-2.201 0.984-2.201 2.199z"></path>
</symbol>

<symbol id="icon-unmark-read"  viewBox="0 0 100 100">
<path d="M13.995,26.46c-0.314-0.294-0.601-0.299-0.86-0.022l0.113,0.551c0.09,0.085,0.322,0.152,0.694,0.203  C14.054,27.074,14.072,26.826,13.995,26.46z M21.283,25.122c0.89-0.952,0.797-1.932-0.281-2.936  c-1.034-0.961-1.992-0.966-2.882-0.014c-0.889,0.955-0.819,1.912,0.214,2.875C19.413,26.052,20.394,26.079,21.283,25.122z   M72.596,80.654c-0.406-0.379-1.004-0.638-1.795-0.78c0.753-1.527,1.25-2.553,1.483-3.074c1.64,0.489,2.997,0.159,4.074-0.992  c1.034-1.113,1.312-2.265,0.83-3.458c2.07,1.109,3.639,1.089,4.717-0.062c0.48-0.515,0.715-1.263,0.702-2.239  c-0.015-0.978-0.398-1.82-1.161-2.533c-0.315-0.293-0.653-0.516-1.016-0.668c-0.361-0.151-0.568-0.248-0.611-0.289  c-0.134-0.125-0.059-0.431,0.224-0.909c0.337-0.725,0.511-1.229,0.526-1.515c1.872,0.334,3.271,0.006,4.195-0.987  c0.704-0.756,1.017-1.724,0.948-2.906c-0.073-1.182-0.586-2.213-1.523-3.09c-0.494-0.462-1.225-0.848-2.198-1.157  c0.088-0.812,0.193-1.42,0.316-1.823c1.946,0.704,3.459,0.476,4.531-0.677c0.632-0.675,0.932-1.582,0.905-2.724  c-0.029-1.137-0.515-2.147-1.458-3.026c-0.535-0.501-1.097-0.803-1.681-0.9c0.344-1.537,0.42-2.654,0.23-3.351  c1.553,0.406,2.678,0.233,3.381-0.522c0.336-0.358,0.513-0.974,0.531-1.85c0.018-0.872-0.286-1.604-0.915-2.188  c-0.405-0.379-1.045-0.639-1.914-0.782c-0.872-0.146-1.588,0.08-2.144,0.675c-0.334,0.36-0.521,0.923-0.571,1.695  c-1.42-0.892-2.222-1.368-2.424-1.438c-0.054-0.211-0.032-0.852,0.069-1.98c1.536,0.691,2.754,0.561,3.644-0.395  c1.333-1.429,1.215-2.877-0.357-4.341c-1.614-1.508-3.089-1.543-4.425-0.115c-0.443,0.479-0.672,1.081-0.683,1.814  c-0.895-0.392-1.519-0.711-1.872-0.965c0.072-0.974,0.051-1.809-0.055-2.504c1.357,0.526,2.464,0.33,3.316-0.584  c1.22-1.313,1.067-2.679-0.459-4.102c-1.479-1.382-2.831-1.417-4.055-0.104c-0.371,0.395-0.569,0.878-0.595,1.446  c-1.078-0.557-1.89-0.944-2.444-1.162c0.186-1.906-0.395-3.49-1.741-4.744c-1.032-0.963-2.264-1.441-3.692-1.437  c0.32-1.785-0.016-3.136-1.003-4.056c-1.661-1.55-3.195-1.567-4.603-0.058c-0.073,0.08-0.23,0.29-0.461,0.63  c-0.232,0.337-0.404,0.568-0.519,0.688c-1.326-0.645-2.368-1.058-3.12-1.239c0.142-1.504-0.281-2.715-1.268-3.636  c-1.752-1.631-3.368-1.652-4.851-0.063c-0.48,0.518-0.737,1.242-0.771,2.175c-1.767-1.347-3.428-1.634-4.987-0.86  c1.116-1.559,1.116-2.862-0.006-3.908c-1.214-1.129-2.319-1.157-3.318-0.084c-1.04,1.111-0.953,2.232,0.26,3.364  c0.675,0.627,1.494,0.873,2.462,0.734l-1.666,2.459c-1.116-0.15-1.985-0.253-2.604-0.31c0.223-1.5-0.114-2.668-1.01-3.505  c-0.54-0.502-1.252-0.796-2.141-0.882c-0.884-0.081-1.606,0.174-2.161,0.769c-0.443,0.478-0.656,1.153-0.633,2.03  c0.023,0.876,0.37,1.627,1.044,2.255c0.404,0.375,1.001,0.636,1.791,0.777c-0.414,0.803-0.763,1.406-1.053,1.805  c-0.827-0.103-1.443-0.161-1.855-0.17c0.179-1.542-0.181-2.732-1.078-3.57c-0.584-0.543-1.298-0.855-2.146-0.939  c-0.846-0.082-1.563,0.194-2.157,0.83c-0.481,0.516-0.706,1.162-0.67,1.935c0.009,0.98,0.354,1.779,1.026,2.409  c0.313,0.292,0.663,0.506,1.043,0.638c0.379,0.13,0.594,0.217,0.639,0.261c0.134,0.124,0.073,0.365-0.176,0.727  c-0.32,0.522-0.489,0.883-0.51,1.086c-0.664-0.099-1.486-0.161-2.468-0.186c0.089-1.178,0.108-1.829,0.055-1.952  c-0.046-0.49-0.341-0.986-0.878-1.488c-1.435-1.34-2.748-1.374-3.93-0.103c-1.147,1.231-1.006,2.518,0.429,3.857  c0.583,0.543,1.179,0.804,1.792,0.779c-0.598,1.45-1.09,2.475-1.48,3.074c-1.677-0.451-3.018-0.14-4.021,0.935  c-0.852,0.915-1.122,2.146-0.809,3.701c-1.847-1.349-3.4-1.349-4.658,0.002c-0.517,0.556-0.768,1.272-0.744,2.147  c0.021,0.875,0.419,1.667,1.181,2.378c0.537,0.502,1.12,0.825,1.748,0.962c-0.037,0.04-0.238,0.524-0.598,1.449  c-0.273,0.563-0.322,1.113-0.149,1.646c-1.722-0.493-3.064-0.223-4.028,0.81c-0.594,0.636-0.86,1.483-0.796,2.543  c0.059,1.061,0.494,1.966,1.302,2.721c0.133,0.125,0.396,0.293,0.784,0.506c0.39,0.214,0.629,0.361,0.717,0.447  c0.135,0.124,0.129,0.491-0.016,1.097c-0.205,0.851-0.313,1.418-0.329,1.701c-1.476-0.485-2.677-0.229-3.604,0.761  c-0.443,0.479-0.668,1.214-0.676,2.21c-0.005,0.998,0.373,1.853,1.135,2.562c0.855,0.797,1.906,1.107,3.157,0.938  c-1.592,2.157-1.466,4.09,0.375,5.808c0.764,0.711,1.681,1.122,2.753,1.229c-0.974,2.215-0.674,4.055,0.899,5.519  c0.805,0.754,1.948,1.148,3.422,1.188c-0.906,2.05-0.64,3.746,0.796,5.086c0.762,0.713,1.659,1.101,2.687,1.168  c1.028,0.068,1.893-0.276,2.597-1.028c0.89-0.956,1.078-2.193,0.563-3.712c1.011,0.72,1.769,1.165,2.275,1.342  c-0.446,1.737-0.604,2.853-0.476,3.343c-1.702-0.694-2.995-0.563-3.886,0.388c-0.519,0.558-0.743,1.314-0.671,2.273  c0.072,0.958,0.444,1.751,1.12,2.379c0.583,0.543,1.357,0.838,2.321,0.885c0.964,0.044,1.727-0.23,2.281-0.825  c0.223-0.241,0.451-0.843,0.684-1.816l1.546,0.773c0.559,0.3,1.124,0.414,1.69,0.352c-0.739,1.686-0.39,3.202,1.047,4.542  c0.626,0.584,1.553,0.944,2.771,1.078c1.218,0.133,2.159-0.158,2.826-0.873c0.781-0.834,1.047-1.663,0.806-2.482  c1.001,0.638,1.906,0.925,2.718,0.864c-0.468,1.939-0.118,3.456,1.047,4.546c0.719,0.668,1.615,1.037,2.684,1.105  c1.07,0.067,1.937-0.254,2.603-0.97c0.334-0.357,0.623-0.982,0.86-1.87c2.562,1.123,4.544,0.932,5.955-0.579  c0.223-0.237,0.539-0.757,0.953-1.561c1.445,0.16,2.456,0.248,3.025,0.263c-0.44,1.369-0.188,2.496,0.756,3.373  c0.493,0.463,1.142,0.711,1.939,0.754c0.804,0.041,1.441-0.196,1.926-0.713c0.408-0.439,0.582-1.056,0.526-1.849  c-0.056-0.796-0.354-1.442-0.89-1.944c-0.405-0.377-1.024-0.659-1.858-0.843c0.645-0.959,1.003-1.661,1.084-2.107  c0.289,0.048,0.766,0.098,1.427,0.157c0.655,0.059,1.109,0.091,1.354,0.098c-0.416,1.168-0.155,2.193,0.788,3.072  c1.347,1.255,2.556,1.309,3.634,0.155C74.077,83.113,73.94,81.91,72.596,80.654z M12.496,35.088  c-0.987-0.922-1.873-0.963-2.649-0.129c-0.817,0.873-0.73,1.772,0.258,2.694c0.943,0.876,1.822,0.88,2.636,0.005  C13.521,36.824,13.438,35.968,12.496,35.088z M10.283,44.614c-0.988-0.92-1.869-0.961-2.647-0.128  c-0.815,0.873-0.729,1.768,0.259,2.69c0.943,0.879,1.82,0.883,2.636,0.008C11.308,46.35,11.227,45.491,10.283,44.614z M49.538,9.129  c0.133,0.125,0.437,0.206,0.911,0.237c0.471,0.032,0.803-0.048,0.988-0.248c0.149-0.158,0.232-0.451,0.251-0.878  c0.021-0.427-0.102-0.768-0.375-1.019c-0.176-0.165-0.505-0.264-0.976-0.299c-0.474-0.032-0.803,0.052-0.988,0.25  c-0.149,0.159-0.221,0.461-0.217,0.909C49.132,8.529,49.269,8.878,49.538,9.129z M6.477,54.771l-0.444,0.475  c0.09,0.532,0.206,0.861,0.341,0.987c0.088,0.083,0.401,0.152,0.939,0.206l0.445-0.476c-0.092-0.532-0.183-0.841-0.271-0.923  C7.35,54.915,7.016,54.823,6.477,54.771z M11.739,61.011c-0.809-0.754-1.528-0.793-2.158-0.118c-0.67,0.716-0.598,1.45,0.211,2.202  c0.807,0.755,1.547,0.773,2.213,0.059C12.634,62.477,12.544,61.764,11.739,61.011z M59.263,12.74  c0.853,0.796,1.652,0.795,2.394,0.001c0.703-0.757,0.625-1.532-0.224-2.327c-0.901-0.835-1.698-0.878-2.401-0.122  C58.288,11.087,58.368,11.902,59.263,12.74z M15.71,67.279c-0.852-0.799-1.65-0.799-2.39-0.002c-0.741,0.795-0.684,1.59,0.169,2.384  c0.898,0.836,1.717,0.859,2.457,0.062C16.685,68.931,16.609,68.117,15.71,67.279z M69.834,15.577  c0.312,0.292,0.646,0.384,1.008,0.27l0.387-0.417c0.124-0.403,0.031-0.752-0.285-1.045c-0.27-0.25-0.599-0.301-0.991-0.149  l-0.392,0.418C69.476,15.019,69.564,15.326,69.834,15.577z M19.607,74.032c-0.223-0.209-0.582-0.34-1.08-0.396  c-0.494-0.052-0.852,0.041-1.077,0.278c-0.663,0.714-0.595,1.452,0.214,2.204c0.223,0.211,0.571,0.328,1.044,0.36  c0.474,0.034,0.842-0.089,1.101-0.364c0.184-0.2,0.265-0.536,0.241-1.006C20.024,74.643,19.877,74.282,19.607,74.032z M72.763,23.1  c0.406,0.376,0.949,0.605,1.628,0.684c0.684,0.077,1.244-0.124,1.694-0.599c0.329-0.357,0.506-0.882,0.52-1.572  c0.017-0.691-0.244-1.29-0.785-1.792c-0.491-0.46-1.086-0.7-1.786-0.717c-0.695-0.019-1.247,0.192-1.654,0.629  c-0.298,0.317-0.453,0.821-0.47,1.512C71.896,21.938,72.179,22.554,72.763,23.1z M33.752,83.432  c-1.032-0.963-1.993-0.968-2.884-0.015c-0.85,0.916-0.761,1.853,0.271,2.816c1.078,1.004,2.042,1.051,2.894,0.134  C34.925,85.414,34.828,84.437,33.752,83.432z M44,86.748c-0.448-0.416-1.041-0.636-1.779-0.655s-1.273,0.149-1.606,0.509  c-0.296,0.316-0.417,0.852-0.368,1.607c0.054,0.754,0.304,1.34,0.753,1.759c0.36,0.334,0.909,0.531,1.649,0.592  c0.744,0.059,1.298-0.109,1.668-0.506c0.3-0.317,0.431-0.843,0.401-1.577C44.688,87.743,44.45,87.168,44,86.748z M88.639,48.597  c0.986,0.919,1.87,0.963,2.646,0.131c0.814-0.877,0.729-1.773-0.257-2.694c-0.944-0.879-1.821-0.882-2.638-0.007  C87.613,46.862,87.697,47.716,88.639,48.597z M53.505,90.595c-0.809-0.752-1.527-0.791-2.157-0.114  c-0.667,0.713-0.598,1.448,0.211,2.202c0.763,0.711,1.479,0.709,2.145-0.005C54.335,92.001,54.268,91.31,53.505,90.595z   M85.897,58.962c0.535,0.502,1.203,0.775,2.007,0.816c0.802,0.041,1.441-0.196,1.926-0.717c0.405-0.434,0.582-1.05,0.526-1.847  c-0.061-0.795-0.378-1.463-0.961-2.007c-0.494-0.461-1.141-0.709-1.941-0.752c-0.802-0.039-1.425,0.177-1.868,0.651  C84.4,56.381,84.502,57.665,85.897,58.962z M60.267,86.987c-0.493-0.461-1.079-0.689-1.75-0.688  c-0.677,0.004-1.217,0.224-1.622,0.662c-0.296,0.318-0.464,0.813-0.502,1.479c-0.037,0.671,0.232,1.278,0.818,1.825  c0.403,0.375,0.955,0.612,1.663,0.712c0.701,0.101,1.278-0.089,1.722-0.565c0.335-0.357,0.509-0.881,0.524-1.573  C61.135,88.148,60.853,87.532,60.267,86.987z M94.218,54.357c0.07-0.08,0.09-0.325,0.052-0.732c-0.315-0.293-0.6-0.3-0.86-0.021  l-0.007,0.547C93.536,54.277,93.808,54.347,94.218,54.357z M83.104,66.277c-0.05,0.771,0.22,1.429,0.801,1.976  c0.405,0.373,0.961,0.612,1.664,0.714c0.702,0.099,1.297-0.11,1.779-0.627c1-1.071,0.869-2.196-0.384-3.368  c-0.493-0.459-1.079-0.689-1.753-0.688c-0.675,0.005-1.196,0.203-1.567,0.604C83.312,65.243,83.133,65.707,83.104,66.277z   M78.399,77.936c-1.078-1.007-2.061-1.03-2.95-0.078c-0.852,0.914-0.741,1.872,0.338,2.879c1.032,0.963,1.975,0.987,2.83,0.071  C79.507,79.855,79.432,78.896,78.399,77.936z M91.83,63.939c0.069-0.079,0.112-0.302,0.118-0.668  c-0.314-0.295-0.604-0.302-0.861-0.021l-0.009,0.547C91.214,63.922,91.462,63.97,91.83,63.939z M83.521,75.686  c-0.581-0.014-0.881,0-0.918,0.038c-0.111,0.119-0.105,0.427,0.028,0.918c0.423,0.171,0.752,0.223,0.991,0.146  C83.711,76.423,83.677,76.059,83.521,75.686z"/>
<path d="M7.8 10c0 1.215 0.986 2.2 2.201 2.2s2.199-0.986 2.199-2.2c0-1.215-0.984-2.199-2.199-2.199s-2.201 0.984-2.201 2.199z"></path>
</symbol>

<symbol id="icon-pin-chat" viewBox="0 0 20 20">
<path d="M9.5 18.419C4.574 18.419.581 14.426.581 9.5S4.574.581 9.5.581s8.919 3.993 8.919 8.919-3.993 8.919-8.919 8.919zm2.121-5.708l-.082-2.99 1.647-1.963a1.583 1.583 0 0 0-.188-2.232l-.32-.269a1.58 1.58 0 0 0-2.231.203L8.803 7.42l-2.964.439a.282.282 0 0 0-.14.496l5.458 4.58c.186.157.47.019.464-.224zM5.62 13.994a.504.504 0 0 0 .688-.038l2.204-2.307-1.085-.91-1.889 2.571a.504.504 0 0 0 .082.684z"></path>
</symbol>

<symbol id="icon-unpin-chat" viewBox="0 0 1000 1000">
<g transform="translate(0.000000,511.000000) scale(0.100000,-0.100000)">
<path d="M1036.6,4983.2c-102.4-35.6-460.8-380.7-514.2-492c-40.1-84.6-44.5-213.7-8.9-282.7c35.6-69,8499.7-8537.5,8573.2-8577.6c77.9-40.1,204.8-40.1,296.1,2.2c40.1,20,162.5,126.9,273.8,240.4c227.1,233.8,273.8,329.5,227.1,478.6c-22.3,66.8-886,941.7-4272.1,4332.2C2655.1,3643,1341.6,4945.3,1279.3,4974.2C1174.7,5023.2,1150.2,5023.2,1036.6,4983.2z"/><path d="M6370.7,4920.8c-118-37.9-285-202.6-360.7-358.4c-98-200.4-133.6-351.8-133.6-592.2v-211.5l1386.9-1386.9L8648.1,987.1h193.7c247.1,0,389.6,31.2,587.7,124.7c340.6,160.3,478.6,438.6,374,756.9c-33.4,100.2-167,240.4-1487.1,1558.4C6998.5,4747.2,6858.2,4880.7,6758,4914.1C6635.6,4954.2,6482,4956.4,6370.7,4920.8z"/><path d="M5063.9,2901.6L4396,2233.8l1358-1358l1358-1358l672.3,672.3l674.5,674.5L7107.5,2216c-745.8,745.8-1358,1353.5-1364.7,1353.5C5736.2,3569.5,5431.2,3269,5063.9,2901.6z"/><path d="M1408.4,1844.2c-236-51.2-391.8-151.4-703.5-454.2l-285-278.3L1673.3-141.6L2926.7-1395l-928.3-928.3l-926.1-930.5l-472-732.4C54.9-4836.7,70.5-4812.2,126.1-4781c24.5,11.1,371.8,233.8,776.9,492l732.4,472l930.6,926.1l928.3,928.3l1246.7-1246.7L5987.8-4456l289.4,289.4c320.6,320.6,405.2,449.7,456.4,699c28.9,138,28.9,202.6-11.1,650.1l-44.5,498.7L4623.1-264.1L2568.3,1790.8l-487.5,42.3C1517.5,1884.3,1586.5,1882,1408.4,1844.2z"/>
</g>
</symbol>

<symbol id="icon-mute-notification" viewBox="0 0 20 20">
<path d="M11.52 9.206c0-1.4-.778-2.567-1.944-3.111v1.711L11.52 9.75v-.544zm1.945 0c0 .7-.156 1.4-.389 2.022l1.167 1.167c.544-.933.778-2.1.778-3.267 0-3.344-2.333-6.144-5.444-6.844v1.633c2.255.778 3.888 2.8 3.888 5.289zm-11.433-7L1.02 3.217l3.656 3.656H1.02v4.667h3.111l3.889 3.889v-5.211l3.344 3.344c-.544.389-1.089.7-1.789.933v1.633a6.64 6.64 0 0 0 2.878-1.4l1.556 1.556 1.011-1.011-7-7-5.988-6.067zm5.988.778L6.387 4.617 8.02 6.25V2.984z"></path>
</symbol>

<symbol id="icon-unmute-notification" viewBox="0 0 32 32">
<path d="M22.485 25.985c-0.384 0-0.768-0.146-1.061-0.439-0.586-0.586-0.586-1.535 0-2.121 4.094-4.094 4.094-10.755 0-14.849-0.586-0.586-0.586-1.536 0-2.121s1.536-0.586 2.121 0c2.55 2.55 3.954 5.94 3.954 9.546s-1.404 6.996-3.954 9.546c-0.293 0.293-0.677 0.439-1.061 0.439v0zM17.157 23.157c-0.384 0-0.768-0.146-1.061-0.439-0.586-0.586-0.586-1.535 0-2.121 2.534-2.534 2.534-6.658 0-9.192-0.586-0.586-0.586-1.536 0-2.121s1.535-0.586 2.121 0c3.704 3.704 3.704 9.731 0 13.435-0.293 0.293-0.677 0.439-1.061 0.439z"></path>
<path d="M13 30c-0.26 0-0.516-0.102-0.707-0.293l-7.707-7.707h-3.586c-0.552 0-1-0.448-1-1v-10c0-0.552 0.448-1 1-1h3.586l7.707-7.707c0.286-0.286 0.716-0.372 1.090-0.217s0.617 0.519 0.617 0.924v26c0 0.404-0.244 0.769-0.617 0.924-0.124 0.051-0.254 0.076-0.383 0.076z"></path>
</symbol>

<symbol id="icon-add-favourite" viewBox="0 0 32 32">
<path d="M32 12.408l-11.056-1.607-4.944-10.018-4.944 10.018-11.056 1.607 8 7.798-1.889 11.011 9.889-5.199 9.889 5.199-1.889-11.011 8-7.798z"></path>
</symbol>
<symbol id="icon-remove-favourite" viewBox="0 0 32 32">
<path d="M32 12.408l-11.056-1.607-4.944-10.018-4.944 10.018-11.056 1.607 8 7.798-1.889 11.011 9.889-5.199 9.889 5.199-1.889-11.011 8-7.798zM16 23.547l-6.983 3.671 1.334-7.776-5.65-5.507 7.808-1.134 3.492-7.075 3.492 7.075 7.807 1.134-5.65 5.507 1.334 7.776-6.983-3.671z"></path>
</symbol>


<symbol id="icon-delete" viewBox="0 0 32 32">
<path d="M4 10v20c0 1.1 0.9 2 2 2h18c1.1 0 2-0.9 2-2v-20h-22zM10 28h-2v-14h2v14zM14 28h-2v-14h2v14zM18 28h-2v-14h2v14zM22 28h-2v-14h2v14z"></path>
<path d="M26.5 4h-6.5v-2.5c0-0.825-0.675-1.5-1.5-1.5h-7c-0.825 0-1.5 0.675-1.5 1.5v2.5h-6.5c-0.825 0-1.5 0.675-1.5 1.5v2.5h26v-2.5c0-0.825-0.675-1.5-1.5-1.5zM18 4h-6v-1.975h6v1.975z"></path>
</symbol>
<symbol id="icon-instruction-console" viewBox="0 0 32 32">
<path d="M31 4h-30c-0.552 0-1 0.448-1 1v22c0 0.553 0.448 1 1 1h30c0.553 0 1-0.447 1-1v-22c0-0.552-0.447-1-1-1zM30 25c0 0.553-0.447 1-1 1h-26c-0.552 0-1-0.447-1-1v-18c0-0.552 0.448-1 1-1h26c0.553 0 1 0.448 1 1v18zM9.498 12.141l-3.855-3.856c-0.375-0.375-0.983-0.375-1.358 0s-0.375 0.983 0 1.358l3.358 3.357-3.358 3.358c-0.375 0.375-0.375 0.982 0 1.357s0.983 0.375 1.358 0l3.855-3.855c0.076-0.042 0.153-0.080 0.217-0.144 0.197-0.197 0.285-0.458 0.274-0.716 0.010-0.258-0.077-0.519-0.274-0.715-0.064-0.064-0.141-0.102-0.217-0.144zM19 16h-6c-0.552 0-1 0.448-1 1 0 0.553 0.448 1 1 1h6c0.553 0 1-0.447 1-1 0-0.552-0.447-1-1-1z"></path>
</symbol>
<!-- / Chat Panel -->

<!-- Chat Box -->
<symbol id="icon-drag" viewBox="0 0 64 80">
<path d="M62,51h-1v-3c0-0.553-0.448-1-1-1H28V24c0-0.553-0.448-1-1-1h-9V2c0-0.553-0.448-1-1-1H2C1.448,1,1,1.447,1,2v50v10   c0,0.553,0.448,1,1,1h60c0.552,0,1-0.447,1-1V52C63,51.447,62.552,51,62,51z M59,49v2H28v-2H59z M26,25v26h-8V25H26z M16,41H3   v-1.323l13-5.2V41z M16,31H3v-1.323l13-5.2V31z M16,21H3v-1.323l13-5.2V21z M16,11H3V9.677l13-5.2V11z M3,13h11.307L3,17.523V13z    M3,23h11.307L3,27.523V23z M3,33h11.307L3,37.523V33z M3,43h11.307L3,47.523V43z M3,49.677l13-5.2V51H3V49.677z M14.307,3L3,7.523   V3H14.307z M61,61H3v-8h58V61z"/><path d="M46,27c2.206,0,4-1.794,4-4s-1.794-4-4-4s-4,1.794-4,4S43.794,27,46,27z M46,21c1.103,0,2,0.897,2,2s-0.897,2-2,2   s-2-0.897-2-2S44.897,21,46,21z"/><rect x="45" y="41" width="2" height="4"/><rect x="39.586" y="40.586" transform="matrix(0.7072 -0.707 0.707 0.7072 -17.2255 41.5807)" width="4" height="2"/><rect x="49.586" y="39.586" transform="matrix(0.707 -0.7072 0.7072 0.707 -14.5889 47.9554)" width="2" height="4"/><path d="M27,21c1.65,0,3.249-0.593,4.504-1.651c1.118,0.741,2.357,1.221,3.659,1.463l-4.911,5.524   c-0.261,0.294-0.326,0.715-0.165,1.073C30.249,27.769,30.606,28,31,28h7v6c0,0.553,0.448,1,1,1h1v2c0,1.103,0.897,2,2,2h8   c1.103,0,2-0.897,2-2v-2h1c0.552,0,1-0.447,1-1v-6h7c0.394,0,0.751-0.231,0.912-0.591c0.162-0.358,0.097-0.779-0.165-1.073   l-6.862-7.719C55.55,18.866,56.263,19,57,19c3.309,0,6-2.691,6-6c0-3.242-2.585-5.892-5.802-5.997C56.136,5.158,54.166,4,52,4   c-1.017,0-1.99,0.256-2.865,0.735l-2.316-3.308C46.632,1.159,46.326,1,46,1s-0.632,0.159-0.819,0.427l-1.505,2.151   C41.853,1.932,39.499,1,37,1c-4.03,0-7.618,2.398-9.184,6.051C23.622,6.527,20,9.871,20,14C20,17.859,23.14,21,27,21z M33.227,26   L38,20.63V26H33.227z M40,13h12v2H40V13z M52,29H40V17h12V29z M50,37h-8v-2h8V37z M40,33v-2h12v2H40z M54,26v-5.37L58.773,26H54z    M52,6c1.605,0,3.05,0.955,3.68,2.433c0.169,0.395,0.567,0.641,1,0.604c0.071-0.006,0.141-0.015,0.21-0.024   C56.926,9.008,56.962,9,57,9c2.206,0,4,1.794,4,4s-1.794,4-4,4c-1.171,0-2.24-0.514-3-1.391V12c0-0.205-0.063-0.405-0.181-0.573   l-3.525-5.036C50.824,6.14,51.399,6,52,6z M46,3.744l1.98,2.829L51.079,11H40.921L46,3.744z M28.211,9.155   c0.506,0.128,1.029-0.159,1.193-0.657C30.488,5.21,33.54,3,37,3c2.081,0,4.042,0.803,5.522,2.224l-4.342,6.202   C38.063,11.595,38,11.795,38,12v5.62l-1.211,1.363c-1.737-0.045-3.377-0.627-4.751-1.715c-0.411-0.327-1.004-0.278-1.358,0.107   C29.719,18.423,28.412,19,27,19c-2.757,0-5-2.243-5-5C22,10.85,24.929,8.334,28.211,9.155z"/>
</symbol>



<symbol id="icon-back" viewBox="0 0 20 20">
<path d="M3.828 9l6.071-6.071-1.414-1.414-8.485 8.485 8.485 8.485 1.414-1.414-6.071-6.071h16.172v-2h-16.172z"></path>
</symbol>

<symbol id="icon-dots" viewBox="0 0 20 20">
<path d="M10.001 7.8c-1.215 0-2.201 0.985-2.201 2.2s0.986 2.2 2.201 2.2c1.215 0 2.199-0.985 2.199-2.2s-0.984-2.2-2.199-2.2zM10.001 5.2c1.215 0 2.199-0.986 2.199-2.2s-0.984-2.2-2.199-2.2c-1.215 0-2.201 0.985-2.201 2.2s0.986 2.2 2.201 2.2zM10.001 14.8c-1.215 0-2.201 0.985-2.201 2.2s0.986 2.2 2.201 2.2c1.215 0 2.199-0.985 2.199-2.2s-0.984-2.2-2.199-2.2z"></path>
</symbol>

<symbol id="icon-copy" viewBox="0 0 24 24">
<path d="M11 8c-0.828 0-1.58 0.337-2.121 0.879s-0.879 1.293-0.879 2.121v9c0 0.828 0.337 1.58 0.879 2.121s1.293 0.879 2.121 0.879h9c0.828 0 1.58-0.337 2.121-0.879s0.879-1.293 0.879-2.121v-9c0-0.828-0.337-1.58-0.879-2.121s-1.293-0.879-2.121-0.879zM11 10h9c0.276 0 0.525 0.111 0.707 0.293s0.293 0.431 0.293 0.707v9c0 0.276-0.111 0.525-0.293 0.707s-0.431 0.293-0.707 0.293h-9c-0.276 0-0.525-0.111-0.707-0.293s-0.293-0.431-0.293-0.707v-9c0-0.276 0.111-0.525 0.293-0.707s0.431-0.293 0.707-0.293zM5 14h-1c-0.276 0-0.525-0.111-0.707-0.293s-0.293-0.431-0.293-0.707v-9c0-0.276 0.111-0.525 0.293-0.707s0.431-0.293 0.707-0.293h9c0.276 0 0.525 0.111 0.707 0.293s0.293 0.431 0.293 0.707v1c0 0.552 0.448 1 1 1s1-0.448 1-1v-1c0-0.828-0.337-1.58-0.879-2.121s-1.293-0.879-2.121-0.879h-9c-0.828 0-1.58 0.337-2.121 0.879s-0.879 1.293-0.879 2.121v9c0 0.828 0.337 1.58 0.879 2.121s1.293 0.879 2.121 0.879h1c0.552 0 1-0.448 1-1s-0.448-1-1-1z"></path>
</symbol>

<symbol id="icon-edit" viewBox="0 0 24 24">
<path d="M3.95 16.7v3.4h3.4l9.8-9.9-3.4-3.4-9.8 9.9zm15.8-9.1c.4-.4.4-.9 0-1.3l-2.1-2.1c-.4-.4-.9-.4-1.3 0l-1.6 1.6 3.4 3.4 1.6-1.6z"></path>
</symbol>

<symbol id="icon-like" viewBox="0 0 28 28">
<path d="M26 9.312c0-4.391-2.969-5.313-5.469-5.313-2.328 0-4.953 2.516-5.766 3.484-0.375 0.453-1.156 0.453-1.531 0-0.812-0.969-3.437-3.484-5.766-3.484-2.5 0-5.469 0.922-5.469 5.313 0 2.859 2.891 5.516 2.922 5.547l9.078 8.75 9.063-8.734c0.047-0.047 2.938-2.703 2.938-5.563zM28 9.312c0 3.75-3.437 6.891-3.578 7.031l-9.734 9.375c-0.187 0.187-0.438 0.281-0.688 0.281s-0.5-0.094-0.688-0.281l-9.75-9.406c-0.125-0.109-3.563-3.25-3.563-7 0-4.578 2.797-7.313 7.469-7.313 2.734 0 5.297 2.156 6.531 3.375 1.234-1.219 3.797-3.375 6.531-3.375 4.672 0 7.469 2.734 7.469 7.313z"></path>
</symbol>

<symbol id="icon-unlike" viewBox="0 0 28 28">
<path d="M14 26c-0.25 0-0.5-0.094-0.688-0.281l-9.75-9.406c-0.125-0.109-3.563-3.25-3.563-7 0-4.578 2.797-7.313 7.469-7.313 2.734 0 5.297 2.156 6.531 3.375 1.234-1.219 3.797-3.375 6.531-3.375 4.672 0 7.469 2.734 7.469 7.313 0 3.75-3.437 6.891-3.578 7.031l-9.734 9.375c-0.187 0.187-0.438 0.281-0.688 0.281z"></path>
</symbol>

<symbol id="icon-reply" viewBox="0 0 20 20">
<path d="M15 17v-2.99c0-0.003 0-0.006 0-0.010 0-2.209-1.791-4-4-4 0 0-0 0-0 0h-3v5l-6-6 6-6v5h3c3.314 0 6 2.686 6 6v0 3h-2z"></path>
</symbol>

<symbol id="icon-sent" viewBox="0 0 20 20">
<path d="M0 11l2-2 5 5 11-11 2 2-13 13z"></path>
</symbol>

<symbol id="icon-delivered" viewBox="0 0 32 32">
<path d="M21.82 13.030l-1.002-1.002c-0.185-0.185-0.484-0.185-0.668 0l-6.014 6.013-2.859-2.882c-0.186-0.185-0.484-0.185-0.67 0l-1.002 1.003c-0.185 0.185-0.185 0.484 0 0.668l4.193 4.223c0.185 0.184 0.484 0.184 0.668 0l7.354-7.354c0.186-0.185 0.186-0.484 0-0.669zM16 3c-7.18 0-13 5.82-13 13s5.82 13 13 13 13-5.82 13-13-5.82-13-13-13zM16 26c-5.522 0-10-4.478-10-10 0-5.523 4.478-10 10-10 5.523 0 10 4.477 10 10 0 5.522-4.477 10-10 10z"></path>
</symbol>

<symbol id="icon-seen" viewBox="0 0 32 32">
<path d="M16 3c-7.18 0-13 5.82-13 13s5.82 13 13 13 13-5.82 13-13-5.82-13-13-13zM23.258 12.307l-9.486 9.485c-0.238 0.237-0.623 0.237-0.861 0l-0.191-0.191-0.001 0.001-5.219-5.256c-0.238-0.238-0.238-0.624 0-0.862l1.294-1.293c0.238-0.238 0.624-0.238 0.862 0l3.689 3.716 7.756-7.756c0.238-0.238 0.624-0.238 0.862 0l1.294 1.294c0.239 0.237 0.239 0.623 0.001 0.862z"></path>
</symbol>

<symbol id="icon-emoji" viewBox="0 0 32 32">
<path d="M16 32c8.837 0 16-7.163 16-16s-7.163-16-16-16-16 7.163-16 16 7.163 16 16 16zM16 3c7.18 0 13 5.82 13 13s-5.82 13-13 13-13-5.82-13-13 5.82-13 13-13zM16 18.711c3.623 0 7.070-0.963 10-2.654-0.455 5.576-4.785 9.942-10 9.942s-9.544-4.371-10-9.947c2.93 1.691 6.377 2.658 10 2.658zM8 11c0-1.657 0.895-3 2-3s2 1.343 2 3c0 1.657-0.895 3-2 3s-2-1.343-2-3zM20 11c0-1.657 0.895-3 2-3s2 1.343 2 3c0 1.657-0.895 3-2 3s-2-1.343-2-3z"></path>
</symbol>

<symbol id="icon-location" viewBox="0 0 24 24">
<path d="M22 10c0-2.761-1.12-5.263-2.929-7.071s-4.31-2.929-7.071-2.929-5.263 1.12-7.071 2.929-2.929 4.31-2.929 7.071c0 0.569 0.053 1.128 0.15 1.676 0.274 1.548 0.899 3.004 1.682 4.32 2.732 4.591 7.613 7.836 7.613 7.836 0.331 0.217 0.765 0.229 1.109 0 0 0 4.882-3.245 7.613-7.836 0.783-1.316 1.408-2.772 1.682-4.32 0.098-0.548 0.151-1.107 0.151-1.676zM20 10c0 0.444-0.041 0.887-0.119 1.328-0.221 1.25-0.737 2.478-1.432 3.646-1.912 3.214-5.036 5.747-6.369 6.74-1.398-0.916-4.588-3.477-6.53-6.74-0.695-1.168-1.211-2.396-1.432-3.646-0.077-0.441-0.118-0.884-0.118-1.328 0-2.209 0.894-4.208 2.343-5.657s3.448-2.343 5.657-2.343 4.208 0.894 5.657 2.343 2.343 3.448 2.343 5.657zM16 10c0-1.104-0.449-2.106-1.172-2.828s-1.724-1.172-2.828-1.172-2.106 0.449-2.828 1.172-1.172 1.724-1.172 2.828 0.449 2.106 1.172 2.828 1.724 1.172 2.828 1.172 2.106-0.449 2.828-1.172 1.172-1.724 1.172-2.828zM14 10c0 0.553-0.223 1.051-0.586 1.414s-0.861 0.586-1.414 0.586-1.051-0.223-1.414-0.586-0.586-0.861-0.586-1.414 0.223-1.051 0.586-1.414 0.861-0.586 1.414-0.586 1.051 0.223 1.414 0.586 0.586 0.861 0.586 1.414z"></path>
</symbol>

<symbol id="icon-attach" viewBox="0 0 20 20">
<path d="M5.602 19.8c-1.293 0-2.504-0.555-3.378-1.44-1.695-1.716-2.167-4.711 0.209-7.116 1.391-1.408 6.966-7.053 9.748-9.87 0.988-1 2.245-1.387 3.448-1.060 1.183 0.32 2.151 1.301 2.468 2.498 0.322 1.22-0.059 2.493-1.046 3.493l-9.323 9.44c-0.532 0.539-1.134 0.858-1.738 0.922-0.599 0.064-1.17-0.13-1.57-0.535-0.724-0.736-0.828-2.117 0.378-3.337l6.548-6.63c0.269-0.272 0.705-0.272 0.974 0s0.269 0.714 0 0.986l-6.549 6.631c-0.566 0.572-0.618 1.119-0.377 1.364 0.106 0.106 0.266 0.155 0.451 0.134 0.283-0.029 0.606-0.216 0.909-0.521l9.323-9.439c0.64-0.648 0.885-1.41 0.69-2.145-0.192-0.725-0.778-1.318-1.493-1.513-0.726-0.197-1.48 0.052-2.12 0.7-2.782 2.818-8.356 8.462-9.748 9.87-1.816 1.839-1.381 3.956-0.209 5.143 1.173 1.187 3.262 1.629 5.079-0.212l9.748-9.87c0.269-0.272 0.705-0.272 0.974 0s0.269 0.714 0 0.987l-9.748 9.87c-1.149 1.162-2.436 1.65-3.648 1.65z"></path>
</symbol>

<symbol id="icon-camera" viewBox="0 0 24 24">
<path d="M24 19v-11c0-0.828-0.337-1.58-0.879-2.121s-1.293-0.879-2.121-0.879h-3.465l-1.703-2.555c-0.182-0.27-0.486-0.445-0.832-0.445h-6c-0.326 0.002-0.64 0.158-0.832 0.445l-1.703 2.555h-3.465c-0.828 0-1.58 0.337-2.121 0.879s-0.879 1.293-0.879 2.121v11c0 0.828 0.337 1.58 0.879 2.121s1.293 0.879 2.121 0.879h18c0.828 0 1.58-0.337 2.121-0.879s0.879-1.293 0.879-2.121zM22 19c0 0.276-0.111 0.525-0.293 0.707s-0.431 0.293-0.707 0.293h-18c-0.276 0-0.525-0.111-0.707-0.293s-0.293-0.431-0.293-0.707v-11c0-0.276 0.111-0.525 0.293-0.707s0.431-0.293 0.707-0.293h4c0.346 0 0.65-0.175 0.832-0.445l1.703-2.555h4.93l1.703 2.555c0.192 0.287 0.506 0.443 0.832 0.445h4c0.276 0 0.525 0.111 0.707 0.293s0.293 0.431 0.293 0.707zM17 13c0-1.38-0.561-2.632-1.464-3.536s-2.156-1.464-3.536-1.464-2.632 0.561-3.536 1.464-1.464 2.156-1.464 3.536 0.561 2.632 1.464 3.536 2.156 1.464 3.536 1.464 2.632-0.561 3.536-1.464 1.464-2.156 1.464-3.536zM15 13c0 0.829-0.335 1.577-0.879 2.121s-1.292 0.879-2.121 0.879-1.577-0.335-2.121-0.879-0.879-1.292-0.879-2.121 0.335-1.577 0.879-2.121 1.292-0.879 2.121-0.879 1.577 0.335 2.121 0.879 0.879 1.292 0.879 2.121z"></path>
</symbol>

<symbol id="icon-send" viewBox="0 0 20 20">
<path d="M0 0l20 10-20 10v-20zM0 8v4l10-2-10-2z"></path>
</symbol>
<!-- /Chat Box -->

<!-- Chat Profile -->
<symbol id="icon-profile" viewBox="0 0 20 20">
<path d="M10 20c-5.523 0-10-4.477-10-10s4.477-10 10-10v0c5.523 0 10 4.477 10 10s-4.477 10-10 10v0zM7 6v2c0 1.657 1.343 3 3 3s3-1.343 3-3v0-2c0-1.657-1.343-3-3-3s-3 1.343-3 3v0zM3.35 14.44c1.456 2.155 3.89 3.553 6.65 3.553s5.194-1.398 6.632-3.525l0.018-0.028c-1.951-0.918-4.238-1.453-6.65-1.453s-4.699 0.536-6.748 1.495l0.098-0.041z"></path>
</symbol>

<symbol id="icon-theme" viewBox="0 0 24 24">
<path d="M12 1l3.22 3.22h4.56v4.56L23 12l-3.22 3.22v4.56h-4.56L12 23l-3.22-3.22H4.22v-4.56L1 12l3.22-3.22V4.22h4.56L12 1zm0 5v12c3.31 0 6-2.69 6-6a6.005 6.005 0 0 0-5.775-5.996L12 6z" ></path>
</symbol>

<symbol id="icon-setting" viewBox="0 0 32 32">
<path d="M29.181 19.070c-1.679-2.908-0.669-6.634 2.255-8.328l-3.145-5.447c-0.898 0.527-1.943 0.829-3.058 0.829-3.361 0-6.085-2.742-6.085-6.125h-6.289c0.008 1.044-0.252 2.103-0.811 3.070-1.679 2.908-5.411 3.897-8.339 2.211l-3.144 5.447c0.905 0.515 1.689 1.268 2.246 2.234 1.676 2.903 0.672 6.623-2.241 8.319l3.145 5.447c0.895-0.522 1.935-0.82 3.044-0.82 3.35 0 6.067 2.725 6.084 6.092h6.289c-0.003-1.034 0.259-2.080 0.811-3.038 1.676-2.903 5.399-3.894 8.325-2.219l3.145-5.447c-0.899-0.515-1.678-1.266-2.232-2.226zM16 22.479c-3.578 0-6.479-2.901-6.479-6.479s2.901-6.479 6.479-6.479c3.578 0 6.479 2.901 6.479 6.479s-2.901 6.479-6.479 6.479z"></path>
</symbol>

<symbol id="icon-logout" viewBox="0 0 32 32">
<path d="M22 0c-5.523 0-10 4.477-10 10 0 0.626 0.058 1.238 0.168 1.832l-12.168 12.168v6c0 1.105 0.895 2 2 2h2v-2h4v-4h4v-4h4l2.595-2.595c1.063 0.385 2.209 0.595 3.405 0.595 5.523 0 10-4.477 10-10s-4.477-10-10-10zM24.996 10.004c-1.657 0-3-1.343-3-3s1.343-3 3-3 3 1.343 3 3-1.343 3-3 3z"></path>
</symbol>

<symbol id="icon-avatar" viewBox="0 0 20 20">
<path d="M0 11l2-2 5 5 11-11 2 2-13 13z"></path>
</symbol>

<symbol id="icon-send-request" viewBox="0 0 32 32">
<path d="M12 23c0-4.726 2.996-8.765 7.189-10.319 0.509-1.142 0.811-2.411 0.811-3.681 0-4.971 0-9-6-9s-6 4.029-6 9c0 3.096 1.797 6.191 4 7.432v1.649c-6.784 0.555-12 3.888-12 7.918h12.416c-0.271-0.954-0.416-1.96-0.416-3z"></path>
<path d="M23 14c-4.971 0-9 4.029-9 9s4.029 9 9 9c4.971 0 9-4.029 9-9s-4.029-9-9-9zM28 24h-4v4h-2v-4h-4v-2h4v-4h2v4h4v2z"></path>
</symbol>


<symbol id="icon-cancel-request" viewBox="0 0 58 58">
<circle cx="24.87" cy="13.811" r="13.811"/>
<path d="M6.972,52.484l9.718,2.56c4.215,1.109,11.004,0.979,15.173-0.293l3.93-1.205c2.209,2.614,5.505,4.281,9.188,4.281
    c6.633,0,12.03-5.397,12.03-12.03c0-6.635-5.397-12.032-12.03-12.032c-1.124,0-2.207,0.167-3.239,0.456
    c-2.494-3.016-5.696-5.299-9.631-6.58c-2.292,1.345-4.947,2.129-7.791,2.129c-2.857,0-5.527-0.792-7.826-2.149
    c-7.347,2.302-12.55,7.888-15.278,15.2C-0.311,46.905,2.757,51.374,6.972,52.484z M44.95,35.346
    c5.732,0,10.378,4.646,10.378,10.38c0,5.732-4.646,10.379-10.378,10.379s-10.379-4.646-10.379-10.379
    C34.572,39.992,39.217,35.346,44.95,35.346z"/>
<path d="M39.138,51.036c0.365,0.402,0.866,0.604,1.37,0.604c0.446,0,0.896-0.16,1.251-0.485l3.19-2.916l3.189,2.916
    c0.356,0.325,0.805,0.485,1.251,0.485c0.502,0,1.003-0.203,1.37-0.604c0.691-0.755,0.638-1.93-0.118-2.621l-2.943-2.691
    l2.943-2.691c0.756-0.691,0.809-1.864,0.118-2.621c-0.691-0.757-1.864-0.808-2.621-0.118l-3.189,2.918l-3.19-2.918
    c-0.757-0.691-1.929-0.638-2.621,0.118c-0.691,0.757-0.639,1.93,0.118,2.621l2.944,2.691l-2.944,2.691
    C38.5,49.106,38.448,50.281,39.138,51.036z"/>
</symbol>


<symbol id="icon-remove-friend" viewBox="0 0 32 32">
<path d="M12 23c0-4.726 2.996-8.765 7.189-10.319 0.509-1.142 0.811-2.411 0.811-3.681 0-4.971 0-9-6-9s-6 4.029-6 9c0 3.096 1.797 6.191 4 7.432v1.649c-6.784 0.555-12 3.888-12 7.918h12.416c-0.271-0.954-0.416-1.96-0.416-3z"></path>
<path d="M23 14c-4.971 0-9 4.029-9 9s4.029 9 9 9c4.971 0 9-4.029 9-9s-4.029-9-9-9zM28 24h-10v-2h10v2z"></path>
</symbol>

<symbol id="icon-send-message" viewBox="0 0 32 32">
<path d="M16 2c8.837 0 16 5.82 16 13s-7.163 13-16 13c-0.849 0-1.682-0.054-2.495-0.158-3.437 3.437-7.539 4.053-11.505 4.144v-0.841c2.142-1.049 4-2.961 4-5.145 0-0.305-0.024-0.604-0.068-0.897-3.619-2.383-5.932-6.024-5.932-10.103 0-7.18 7.163-13 16-13z"></path>
</symbol>

<symbol id="icon-accept-request" viewBox="0 0 20 20">
<path d="M0 11l2-2 5 5 11-11 2 2-13 13z"></path>
</symbol>

<symbol id="icon-decline-request" viewBox="0 0 20 20">
<path d="M10 8.586l-7.071-7.071-1.414 1.414 7.071 7.071-7.071 7.071 1.414 1.414 7.071-7.071 7.071 7.071 1.414-1.414-7.071-7.071 7.071-7.071-1.414-1.414-7.071 7.071z"></path>
</symbol>

<symbol id="icon-setting-color" viewBox="0 0 32 32">
<path d="M30.828 1.172c-1.562-1.562-4.095-1.562-5.657 0l-5.379 5.379-3.793-3.793-4.243 4.243 3.326 3.326-14.754 14.754c-0.252 0.252-0.358 0.592-0.322 0.921h-0.008v5c0 0.552 0.448 1 1 1h5c0 0 0.083 0 0.125 0 0.288 0 0.576-0.11 0.795-0.329l14.754-14.754 3.326 3.326 4.243-4.243-3.793-3.793 5.379-5.379c1.562-1.562 1.562-4.095 0-5.657zM5.409 30h-3.409v-3.409l14.674-14.674 3.409 3.409-14.674 14.674z"></path>
</symbol>

<symbol id="icon-setting-wallpaper" viewBox="0 0 24 24">
<path d="M4.9 5.9h6.4V4.1H4.9c-1 0-1.8.8-1.8 1.8v6.4h1.8V5.9zm5.3 8l-3.6 4.4h10.7l-2.7-3.6-1.8 2.4-2.6-3.2zm6.2-4c0-.7-.6-1.3-1.3-1.3s-1.3.6-1.3 1.3.6 1.3 1.3 1.3 1.3-.6 1.3-1.3zm2.7-5.8h-6.4v1.8h6.4v6.4h1.8V5.9c0-1-.8-1.8-1.8-1.8zm0 16h-6.4v1.8h6.4c1 0 1.8-.8 1.8-1.8v-6.4h-1.8v6.4zM4.9 13.7H3.1v6.4c0 1 .8 1.8 1.8 1.8h6.4v-1.8H4.9v-6.4z"></path>
</symbol>

<symbol id="icon-setting-privacy" viewBox="0 0 24 24">
<path d="M12 0.984l-9 4.031v6q0 2.063 0.68 4.008t1.898 3.586 2.859 2.789 3.563 1.617q1.922-0.469 3.563-1.617t2.859-2.789 1.898-3.586 0.68-4.008v-6l-9-4.031zM11.016 6.984h1.969v2.016h-1.969v-2.016zM11.016 11.016h1.969v6h-1.969v-6z"></path>
</symbol>
<symbol id="icon-setting-password" viewBox="0 0 32 32">
<path d="M22 0c-5.523 0-10 4.477-10 10 0 0.626 0.058 1.238 0.168 1.832l-12.168 12.168v6c0 1.105 0.895 2 2 2h2v-2h4v-4h4v-4h4l2.595-2.595c1.063 0.385 2.209 0.595 3.405 0.595 5.523 0 10-4.477 10-10s-4.477-10-10-10zM24.996 10.004c-1.657 0-3-1.343-3-3s1.343-3 3-3 3 1.343 3 3-1.343 3-3 3z"></path>
</symbol>

<symbol id="icon-setting-delete" viewBox="0 0 32 32">
<path d="M4 10v20c0 1.1 0.9 2 2 2h18c1.1 0 2-0.9 2-2v-20h-22zM10 28h-2v-14h2v14zM14 28h-2v-14h2v14zM18 28h-2v-14h2v14zM22 28h-2v-14h2v14z"></path>
<path d="M26.5 4h-6.5v-2.5c0-0.825-0.675-1.5-1.5-1.5h-7c-0.825 0-1.5 0.675-1.5 1.5v2.5h-6.5c-0.825 0-1.5 0.675-1.5 1.5v2.5h26v-2.5c0-0.825-0.675-1.5-1.5-1.5zM18 4h-6v-1.975h6v1.975z"></path>
</symbol>
<symbol id="icon-activity-animate" viewBox="0 0 100 100">
<path d="M7.1,27.2L46.1,86h11.4h1.8l0.7-1.6L58,81.5v0L29.6,37h8.4l20.2,30.8l28.1-48.9l4,6.2l-32,56.4l1.9,2.9L93.9,25L88,15.7  L86.9,14h-1.4l-72.4,0l-6,9.9l-1,1.7L7.1,27.2z M23,33v0.6l0.1,0l0.4,0.4l31.7,48.8l-7.7-0.1L10.8,27.2l54.4,0l-3.4,5.9L61.8,33H23z   M60.1,37l-8.5,15.4L41.5,37H60.1z M14.9,17.1l68.7,0L58,61.6L53.6,55l10-18h0l0.4-1l1.7-3.2l4.8-8.8h-0.1h0H10.7L14.9,17.1z"/>
</symbol>
<symbol id="icon-activity-game" viewBox="0 0 100 100">
<g><path d="M95.2,52.8c-2.4-11.8-7.5-27.6-23-28c-3.3-0.1-7,0.3-11,1.1c-2.9,0.6-5.8,0.9-8.8,1V14.7c0-1.3-1.1-2.4-2.4-2.4     c-1.3,0-2.4,1.1-2.4,2.4v12.2c-3-0.1-5.9-0.5-8.8-1c-3.9-0.8-7.7-1.1-11-1.1c-15.5,0.3-20.6,16.1-23,28C2.1,65.9,1.2,75.9,5.3,82     c2,2.9,5,4.7,8.9,5.4c10.2,1.8,19.9-6.2,26.7-21.8l18.2,0c6.1,14.2,14.6,22,23.8,22c0.9,0,1.9-0.1,2.8-0.2c4-0.7,7-2.5,8.9-5.4     C98.8,75.9,97.9,65.9,95.2,52.8z M90.7,79.4c-1.2,1.8-3.1,2.9-5.8,3.4c-11.2,1.9-18.7-12.6-21.4-18.9c-0.8-1.8-2.5-2.9-4.4-2.9     H40.9c-1.9,0-3.6,1.1-4.4,2.9c-2.7,6.3-10.2,20.9-21.4,18.9c-2.7-0.5-4.6-1.6-5.8-3.4c-3.4-5-1.9-15.3,0.2-25.6     c3.4-16.5,9.1-23.9,18.4-24.1c0.2,0,0.5,0,0.7,0c2.8,0,5.9,0.3,9.2,1c7.9,1.6,16.3,1.6,24.2,0c3.6-0.7,7-1,9.9-1     c9.4,0.2,15.1,7.7,18.4,24.1C92.6,64.1,94.1,74.4,90.7,79.4z"/><path d="M37.3,45.7h-4.8v-4.8c0-0.6-0.5-1.2-1.2-1.2h-3.6c-0.6,0-1.2,0.5-1.2,1.2v4.8h-4.8c-0.6,0-1.2,0.5-1.2,1.2v3.6     c0,0.6,0.5,1.2,1.2,1.2h4.8v4.8c0,0.6,0.5,1.2,1.2,1.2h3.6c0.6,0,1.2-0.5,1.2-1.2v-4.8h4.8c0.6,0,1.2-0.5,1.2-1.2v-3.6     C38.5,46.3,38,45.7,37.3,45.7z"/><path d="M70,39c-1.8,0-3.2,1.4-3.2,3.2c0,1.8,1.4,3.2,3.2,3.2c1.8,0,3.2-1.4,3.2-3.2C73.2,40.5,71.8,39,70,39z"/><path d="M76.4,45.5c-1.8,0-3.2,1.4-3.2,3.2c0,1.8,1.4,3.2,3.2,3.2c1.8,0,3.2-1.4,3.2-3.2C79.6,46.9,78.2,45.5,76.4,45.5z"/><path d="M63.5,45.5c-1.8,0-3.2,1.4-3.2,3.2c0,1.8,1.4,3.2,3.2,3.2c1.8,0,3.2-1.4,3.2-3.2C66.7,47,65.3,45.5,63.5,45.5z"/><path d="M69.9,52c-1.8,0-3.2,1.4-3.2,3.2c0,1.8,1.4,3.2,3.2,3.2c1.8,0,3.2-1.4,3.2-3.2C73.1,53.4,71.7,52,69.9,52z"/></g>
</symbol>

<symbol id="icon-animate-bubble-sort" viewBox="0 0 512 512">   
<path d="M106.23,0H75.86L1.496,212.467h42.273l11.172-31.92h71.37l11.012,31.92h42.207L106.23,0z M68.906,140.647l21.976-62.791
l21.664,62.791H68.906z"/>
<polygon points="483.288,359.814 407.478,435.624 407.478,0 367.578,0 367.578,435.624 291.768,359.814 263.555,388.027 
387.528,512 511.501,388.027"/>
<polygon points="182.043,299.247 0.499,299.247 0.499,339.147 122.039,339.147 0.499,480.372 0.499,511.717 180.048,511.717 
180.048,471.817 60.503,471.817 182.043,330.592"/>
</symbol>

<symbol id="icon-animate-approximating-pi" viewBox="0 0 512 512">
<ellipse cx="270.214" cy="241.634" rx="126.731" ry="126.731" transform="matrix(.924 -.383 .383 .924 -71.9 121.8)"/>
<path d="m426.01 120.618c24.03 0 43.58-19.55 43.58-43.581s-19.55-43.581-43.58-43.581-43.581 19.55-43.581 43.581 19.55 43.581 43.581 43.581z"/>
<path d="m142.553 72.834c36.981-28.022 81.126-42.834 127.661-42.834 33.66 0 65.841 7.672 95.648 22.803l13.58-26.751c-34.055-17.287-70.805-26.052-109.228-26.052-53.131 0-103.54 16.917-145.779 48.923-40.855 30.958-71.352 74.933-85.871 123.826l28.76 8.54c12.712-42.812 39.429-81.328 75.229-108.455z"/>
<path d="m479.464 120.738-25.963 15.031c18.545 32.032 28.347 68.639 28.347 105.865 0 46.535-14.812 90.68-42.834 127.662-27.127 35.8-65.644 62.517-108.455 75.23l8.539 28.759c48.894-14.519 92.869-45.015 123.827-85.871 32.006-42.239 48.923-92.649 48.923-145.78 0-42.497-11.199-84.302-32.384-120.896z"/>
<path d="m67.323 301.978-28.759 8.54c11.374 38.304 32.398 73.563 60.801 101.965 28.402 28.402 63.661 49.427 101.965 60.801l8.54-28.759c-33.532-9.958-64.409-28.373-89.292-53.256-24.882-24.883-43.298-55.759-53.255-89.291z"/>
<path d="m270.214 424.686c-24.03 0-43.58 19.55-43.58 43.581 0 24.03 19.55 43.581 43.58 43.581s43.581-19.55 43.581-43.581-19.551-43.581-43.581-43.581z"/>
<circle cx="43.581" cy="241.634" r="43.581"/>
</symbol>

<symbol id="icon-animate-pathfinding-visualization" viewBox="0 0 445 445">
<path d="M339.734,133.344c22.749,0,41.255-18.507,41.255-41.255s-18.507-41.255-41.255-41.255  c-22.748,0-41.254,18.507-41.254,41.255S316.987,133.344,339.734,133.344z M339.734,68.834c12.823,0,23.255,10.432,23.255,23.255  s-10.432,23.255-23.255,23.255c-12.822,0-23.254-10.432-23.254-23.255S326.912,68.834,339.734,68.834z M104.157,308.875  c-22.748,0-41.254,18.507-41.254,41.255s18.507,41.255,41.254,41.255c22.749,0,41.255-18.507,41.255-41.255  S126.905,308.875,104.157,308.875z M104.157,373.385c-12.822,0-23.254-10.432-23.254-23.255s10.432-23.255,23.254-23.255  c12.823,0,23.255,10.432,23.255,23.255S116.98,373.385,104.157,373.385z M418.337,258.288  c-11.108-27.495-38.254-46.179-68.207-46.179H247.18c-3.739-10.801-14.014-18.578-26.07-18.578s-22.331,7.777-26.07,18.578H92.089  c-21.525,0-41.133-12.788-50.211-31.936c7.956-4.844,13.279-13.599,13.279-23.574s-5.323-18.731-13.279-23.575  c9.078-19.147,28.687-31.936,50.211-31.936h174.684c4.45,36.306,35.474,64.511,72.961,64.511c40.534,0,73.51-32.977,73.51-73.511  c0-40.533-32.977-73.51-73.51-73.51c-37.488,0-68.511,28.205-72.961,64.51H92.089c-29.952,0-57.099,18.684-68.208,46.179  C10.417,131.08,0,142.646,0,156.6s10.417,25.519,23.881,27.331c11.108,27.495,38.255,46.179,68.208,46.179H195.04  c3.739,10.801,14.014,18.578,26.07,18.578s22.331-7.777,26.07-18.578h102.95c21.525,0,41.133,12.788,50.21,31.936  c-7.956,4.844-13.279,13.599-13.279,23.574s5.323,18.731,13.279,23.575c-9.077,19.147-28.686,31.936-50.21,31.936H177.12  c-4.451-36.306-35.475-64.511-72.963-64.511c-40.533,0-73.509,32.977-73.509,73.511c0,40.533,32.976,73.51,73.509,73.51  c37.489,0,68.513-28.205,72.963-64.51h173.01c29.953,0,57.099-18.684,68.207-46.179c13.465-1.813,23.882-13.379,23.882-27.332  S431.802,260.101,418.337,258.288z M339.734,36.579c30.608,0,55.51,24.901,55.51,55.51s-24.902,55.511-55.51,55.511  c-30.608,0-55.509-24.902-55.509-55.511S309.126,36.579,339.734,36.579z M29.085,166.06c-0.074,0.01-0.147,0.021-0.222,0.032  c-0.42,0.057-0.849,0.086-1.285,0.086c-5.282,0-9.579-4.297-9.579-9.578c0-5.282,4.297-9.579,9.579-9.579  c0.434,0,0.861,0.029,1.28,0.085c0.077,0.013,0.153,0.023,0.23,0.034c4.566,0.727,8.067,4.692,8.067,9.46  C37.156,161.368,33.653,165.335,29.085,166.06z M221.11,230.688c-5.281,0-9.578-4.297-9.578-9.578s4.296-9.578,9.578-9.578  s9.578,4.297,9.578,9.578S226.391,230.688,221.11,230.688z M104.157,405.64c-30.608,0-55.509-24.901-55.509-55.51  s24.901-55.511,55.509-55.511c30.609,0,55.511,24.902,55.511,55.511S134.766,405.64,104.157,405.64z M414.639,295.198  c-0.433,0-0.86-0.029-1.278-0.085c-0.078-0.013-0.156-0.024-0.234-0.034c-4.565-0.728-8.065-4.693-8.065-9.46  c0-4.769,3.502-8.734,8.07-9.46c0.075-0.01,0.149-0.021,0.224-0.032c0.42-0.057,0.849-0.086,1.284-0.086  c5.282,0,9.58,4.297,9.58,9.578C424.219,290.901,419.921,295.198,414.639,295.198z"/>
</symbol>
<symbol id="icon-animate-fractal-tree" viewBox="0 0 585 585">
<path d="M220.462,214.11c-13.415,5.324-27.438,8.315-41.567,9.241c-1.534-1.102-3.317-2.023-5.496-2.603    c-11.967-3.17-19.192-12.726-27.104-21.612c-9.523-10.698-20.359-19.576-32.171-27.613c-11.734-7.985-25.365-13.333-38.797-17.679    c-13.211-4.272-30.114-6.671-39.037-18.511c-12.497-16.589-40.861-0.355-28.185,16.475c19.931,26.459,50.2,27.756,78.185,41.327    c9.71,4.708,17.858,11.587,25.545,19.037c-5.712-2.338-11.306-4.978-16.712-7.98c-18.417-10.229-34.872,17.964-16.475,28.185    c29.531,16.406,61.62,24.313,95.386,23.827c16.553-0.236,33.208-3.623,48.968-8.454c12.456-3.819,46.284-24.929,58.556-12.211    c0.478,4.435,1.028,8.898,1.636,13.399c3.664,27.128,3.439,53.869-0.93,80.527c-18.854-20.302-48.536-29.882-75.668-36.834    c-43.313-11.098-91.641-14.945-128.03-43.497c-16.357-12.832-39.629,10.094-23.081,23.081    c13.578,10.653,28.07,18.682,43.26,25.047c-14.7,6.871-28.062,11.281-46.459,7.699c-20.559-4.007-29.327,27.45-8.678,31.473    c17.891,3.484,34.746,3.146,52.387-1.542c9.27-2.464,18.091-7.283,26.194-12.252c10.894-6.68,20.861-6.802,33.264-6.178    c2.081,0.106,3.892-0.199,5.561-0.689c32.86,7.189,95.092,12.596,106.006,51.024c0.743,2.615,1.93,4.729,3.399,6.418    l-8.16,212.327h77.52L331.622,362.5c0-1.293-0.114-2.509-0.245-3.713c1.126-1.163,2.175-2.509,3.027-4.247    c7.14-14.586,17.124-23.558,28.833-29.164c21.519,5.899,32.84,20.172,48.532,37.014c13.451,14.436,31.681,24.179,50.698,28.735    c20.461,4.9,29.139-26.573,8.678-31.473c-24.7-5.916-37.707-22.448-53.852-40.486c-1.024-1.146-2.163-2.187-3.261-3.26    c19.878-0.742,40.434-0.347,58.785-4.618c0.669,0.094,1.298,0.236,2.016,0.257c16.422,0.478,28.062,13.224,38.911,24.121    c10.416,10.461,21.24,20.339,34.729,26.638c18.947,8.854,35.533-19.277,16.475-28.185c-22.211-10.379-36.36-30.522-55.275-43.407    c3.398-3.778,6.54-8.083,9.318-13.146c10.131-18.462-18.058-34.929-28.185-16.475c-5.242,9.555-13.227,15.397-22.717,18.963    c-0.082,0.033-0.168,0.062-0.245,0.094c-25.708,9.515-62.428,2.333-86.435,5.757c-0.114,0.016-0.229,0.041-0.347,0.061    c17.111-10.522,35.973-18.943,52.231-26.598c42.474-19.996,84.081-47.479,97.598-95.043c5.766-20.29-25.729-28.891-31.473-8.678    c-6.356,22.371-20.882,38.499-38.821,51.363c0.506-18.735-0.955-37.548,13.203-52.538c14.435-15.292-8.604-38.413-23.081-23.081    c-11.493,12.17-18.931,25.928-21.53,42.55c-2.546,16.292,4.203,35.749-4.247,50.567c-0.751,1.314-1.252,2.615-1.624,3.896    c-14.74,7.144-29.702,13.566-43.097,20.367c-11.163,5.667-22.158,12.514-32.342,20.388c16.854-51.6,32.13-106.888,77.454-138.81    c46.867-33.007,108.541-33.183,150.499-75.382c14.852-14.937-8.226-38.022-23.08-23.081    c-14.921,15.006-33.044,24.835-52.31,32.897c7.209-13.407,10.726-28.613,13.395-44.285c3.509-20.583-27.944-29.396-31.474-8.678    c-3.684,21.611-7.336,41.501-26.907,54.219c-40.393,26.243-77.435,53.428-101.29,96.537    c-8.507,15.377-15.137,31.718-21.102,48.217c-4.333,11.975-17.152,35.202-15.921,47.749c-0.975-9.906-2.357-19.597-3.247-29.147    c-0.013-0.433-0.062-0.865-0.11-1.306c-1.665-18.891-1.143-37.287,8.964-55.896c26.752-49.254,81.555-76.606,82.726-138.732    c0.396-21.061-32.244-21.02-32.64,0c-0.678,35.712-26.476,61.049-50.449,87.295c-0.853-3.517-2.003-6.997-3.591-10.408    c-5.369-11.546-13.357-21.2-17.16-33.485c-4.075-13.174-2.117-28.543-1.248-42.048c1.354-21.028-31.294-20.898-32.64,0    c-1.522,23.619-0.816,44.986,8.592,66.94c4.174,9.731,11.367,17.116,14.565,27.434c3.032,9.775-0.184,21.665-3.79,32.248    c-10.106-7.536-22.473-12.999-35.451-16.344c-46.569-12.003-95.346-16.605-118.022-65.872    c-8.792-19.103-36.92-2.505-28.185,16.475c3.652,7.939,8.193,15.271,13.427,22.02c-2.542-0.143-5.083-0.29-7.629-0.432    c-18.576-1.057-29.849-5.431-36.026-24.068c-8.556-25.822-6.871-51.184-27.238-71.934c-14.761-15.039-37.83,8.054-23.081,23.081    c11.942,12.167,13.113,29.979,16.059,45.981c3.027,16.43,9.461,31.253,20.898,43.477c9.384,10.024,24.651,13.958,37.764,15.189    c20.539,1.93,41.229,2.677,61.836,3.791c4.68,2.46,9.494,4.696,14.431,6.659c17.528,6.952,35.398,11.081,53.909,14.439    c15.279,2.771,44.158,8.389,48.988,26.222C259.7,198.594,237.704,207.268,220.462,214.11z"/>
</symbol>

<symbol id="icon-animate-uniform-sampling" viewBox="0 0 32 32">
<path d="M27 6h-16c-2.75 0-5 2.25-5 5v16c0 2.75 2.25 5 5 5h16c2.75 0 5-2.25 5-5v-16c0-2.75-2.25-5-5-5zM13 28c-1.657 0-3-1.343-3-3s1.343-3 3-3 3 1.343 3 3-1.343 3-3 3zM13 16c-1.657 0-3-1.343-3-3s1.343-3 3-3 3 1.343 3 3-1.343 3-3 3zM19 22c-1.657 0-3-1.343-3-3s1.343-3 3-3 3 1.343 3 3-1.343 3-3 3zM25 28c-1.657 0-3-1.343-3-3s1.343-3 3-3 3 1.343 3 3-1.343 3-3 3zM25 16c-1.657 0-3-1.343-3-3s1.343-3 3-3 3 1.343 3 3-1.343 3-3 3zM25.899 4c-0.467-2.275-2.491-4-4.899-4h-16c-2.75 0-5 2.25-5 5v16c0 2.408 1.725 4.432 4 4.899v-19.899c0-1.1 0.9-2 2-2h19.899z"></path>
</symbol>

<symbol id="icon-animate-random-sampling" viewBox="0 0 480 480">
<path d="M240,280c-30.88,0-56,25.12-56,56s25.12,56,56,56s56-25.12,56-56S270.88,280,240,280z M240,376c-22.056,0-40-17.944-40-40
c0-22.056,17.944-40,40-40c22.056,0,40,17.944,40,40C280,358.056,262.056,376,240,376z"/>
<path d="M360,152c-30.88,0-56,25.12-56,56s25.12,56,56,56s56-25.12,56-56S390.88,152,360,152z M360,248c-22.056,0-40-17.944-40-40
c0-22.056,17.944-40,40-40c22.056,0,40,17.944,40,40C400,230.056,382.056,248,360,248z"/>
<path d="M424,368c-30.632,0-55.568,24.728-55.96,55.264l-256.072-22.592c0-0.224,0.032-0.448,0.032-0.672
c0-17.888-8.464-33.8-21.56-44.064l42.424-98.984C140.912,261.432,150.16,264,160,264c30.88,0,56-25.12,56-56
c0-7.824-1.624-15.264-4.528-22.032l129.512-86.336C350.576,107.352,362.752,112,376,112c30.88,0,56-25.12,56-56S406.88,0,376,0
c-28.152,0-51.456,20.904-55.36,48H111.36C107.456,20.904,84.152,0,56,0C25.12,0,0,25.12,0,56s25.12,56,56,56
c28.152,0,51.456-20.904,55.36-48h209.28c1.256,8.728,4.488,16.816,9.296,23.76l-126.824,84.552
C192.832,159.912,177.328,152,160,152c-30.88,0-56,25.12-56,56c0,15.096,6.032,28.792,15.776,38.872L76.464,347.928
C70.12,345.424,63.232,344,56,344c-30.88,0-56,25.12-56,56s25.12,56,56,56c25.128,0,46.44-16.64,53.512-39.48l260.728,23.008
C376.984,462.864,398.512,480,424,480c30.88,0,56-25.12,56-56S454.88,368,424,368z M376,16c22.056,0,40,17.944,40,40
c0,22.056-17.944,40-40,40c-22.056,0-40-17.944-40-40C336,33.944,353.944,16,376,16z M56,96c-22.056,0-40-17.944-40-40
c0-22.056,17.944-40,40-40c22.056,0,40,17.944,40,40C96,78.056,78.056,96,56,96z M160,168c22.056,0,40,17.944,40,40
c0,22.056-17.944,40-40,40c-22.056,0-40-17.944-40-40C120,185.944,137.944,168,160,168z M56,440c-22.056,0-40-17.944-40-40
c0-22.056,17.944-40,40-40c22.056,0,40,17.944,40,40C96,422.056,78.056,440,56,440z M424,464c-22.056,0-40-17.944-40-40
c0-22.056,17.944-40,40-40c22.056,0,40,17.944,40,40C464,446.056,446.056,464,424,464z"/>
</symbol>

<symbol id="icon-animate-circle-packing" viewBox="0 0 512 512">
<path d="M509.053,371.184c-5.903-22.032-20.033-40.446-39.787-51.85c-2.069-1.195-4.181-2.275-6.317-3.286    c0.984-8.259,1.493-16.608,1.493-24.947c0-43.031-13.007-84.342-37.613-119.467c-21.785-31.098-51.183-55.387-85.514-70.773    c0.035-1.002,0.077-2.003,0.077-3.012c0-47.086-38.307-85.392-85.392-85.392s-85.392,38.307-85.392,85.392    c0,1.011,0.042,2.011,0.077,3.012c-34.331,15.387-63.729,39.676-85.514,70.773C60.565,206.758,47.558,248.069,47.558,291.1    c0,8.34,0.508,16.688,1.493,24.946c-2.136,1.011-4.248,2.091-6.317,3.286C22.98,330.738,8.85,349.152,2.946,371.184    c-5.903,22.032-2.874,45.044,8.531,64.797c11.404,19.753,29.818,33.883,51.85,39.787c7.358,1.972,14.822,2.947,22.24,2.947    c14.796,0,29.4-3.881,42.557-11.477c2.871-1.658,5.608-3.48,8.233-5.423c35.111,24.724,76.211,37.73,119.642,37.73    c43.431,0,84.532-13.007,119.642-37.73c2.626,1.943,5.363,3.766,8.233,5.423c13.159,7.597,27.76,11.478,42.557,11.477    c7.416,0,14.884-0.975,22.24-2.947c22.032-5.903,40.446-20.033,51.85-39.787C511.927,416.228,514.957,393.217,509.053,371.184z     M256,42.833c30.335,0,55.014,24.68,55.014,55.014c0,30.334-24.68,55.014-55.014,55.014s-55.014-24.679-55.014-55.014    C200.986,67.512,225.665,42.833,256,42.833z M138.568,407.526c-3.804,14.193-12.907,26.056-25.633,33.404    c-12.726,7.346-27.551,9.299-41.746,5.496c-14.195-3.803-26.057-12.907-33.405-25.633s-9.3-27.552-5.496-41.746    c3.803-14.195,12.907-26.057,25.633-33.405c8.477-4.894,17.884-7.394,27.418-7.394c4.777,0,9.589,0.629,14.327,1.899    c14.195,3.803,26.057,12.907,33.406,25.633C140.419,378.506,142.372,393.331,138.568,407.526z M344.088,415.386    c2.311,8.622,5.897,16.68,10.571,23.989c-29.194,19.536-63.007,29.789-98.66,29.789c-35.652,0.001-69.465-10.253-98.659-29.789    c4.674-7.311,8.261-15.367,10.57-23.989c5.903-22.032,2.874-45.044-8.531-64.797s-29.819-33.883-51.851-39.787    c-9.525-2.553-19.233-3.428-28.782-2.685c-0.535-5.647-0.812-11.334-0.812-17.017c0-67.838,39.381-130.144,99.494-159.826    c13.034,30.52,43.343,51.964,78.571,51.964s65.537-21.446,78.571-51.964c60.113,29.682,99.494,91.988,99.494,159.826    c0,5.684-0.277,11.37-0.812,17.018c-9.549-0.742-19.257,0.133-28.782,2.684c-22.032,5.903-40.446,20.033-51.851,39.787    C341.214,370.343,338.185,393.354,344.088,415.386z M474.215,420.793c-7.347,12.726-19.211,21.83-33.404,25.633    c-14.196,3.802-29.02,1.851-41.746-5.496c-12.726-7.347-21.83-19.211-25.633-33.404c-3.803-14.195-1.851-29.02,5.496-41.746    c7.347-12.726,19.211-21.83,33.406-25.633c4.74-1.27,9.549-1.899,14.327-1.899c9.533,0,18.942,2.5,27.418,7.394    c12.726,7.347,21.83,19.211,25.633,33.405C483.514,393.241,481.562,408.066,474.215,420.793z"/>
</symbol>

<symbol id="icon-animate-k-nearest-neighbors" viewBox="0 0 612 612">
<path d="M522.375,89.626c-28.095-28.095-60.818-50.156-97.259-65.569C387.376,8.094,347.3,0,306,0s-81.376,8.094-119.116,24.056    c-8.831,3.735-17.442,7.864-25.823,12.371c-15.277-12.526-34.817-20.046-56.115-20.046c-48.913,0-88.565,39.652-88.565,88.565    c0,21.298,7.52,40.838,20.046,56.115c-4.507,8.381-8.637,16.992-12.371,25.823C8.094,224.623,0.001,264.7,0.001,306    s8.094,81.377,24.056,119.116c15.413,36.441,37.474,69.164,65.569,97.259c28.095,28.095,60.818,50.156,97.259,65.569    C224.624,603.906,264.7,612,306,612s81.376-8.094,119.116-24.056c36.44-15.413,69.164-37.473,97.259-65.569    c28.095-28.095,50.156-60.818,65.569-97.259C603.906,387.377,611.999,347.3,611.999,306s-8.094-81.377-24.056-119.116    C572.531,150.443,550.47,117.721,522.375,89.626z M51.285,101.732c0-7.103,5.758-12.861,12.861-12.861h26.243h55.361    c3.321,0,6.338,1.27,8.62,3.336c2.598,2.353,4.24,5.743,4.24,9.525v6.43c0,7.103-5.758,12.861-12.861,12.861h-25.373H64.145    c-0.626,0-1.237-0.06-1.839-0.147c-6.229-0.894-11.022-6.237-11.022-12.714V101.732z M547.475,407.999    c-13.198,31.203-32.097,59.231-56.171,83.306c-24.074,24.075-52.102,42.973-83.306,56.171    c-32.294,13.659-66.611,20.585-101.999,20.585s-69.705-6.926-101.999-20.585c-31.204-13.198-59.231-32.096-83.306-56.171    c-24.074-24.074-42.973-52.102-56.171-83.306C50.864,375.704,43.939,341.387,43.939,306s6.926-69.704,20.585-101.999    c2.4-5.676,4.995-11.243,7.77-16.705c10.104,4.009,21.12,6.216,32.652,6.216c48.913,0,88.565-39.652,88.565-88.565    c0-11.532-2.206-22.548-6.216-32.652c5.461-2.775,11.029-5.369,16.705-7.77c32.294-13.659,66.611-20.585,101.999-20.585    s69.705,6.926,101.999,20.585c31.204,13.198,59.231,32.096,83.306,56.171c24.074,24.074,42.973,52.102,56.171,83.306    c13.659,32.294,20.585,66.611,20.585,101.999S561.134,375.705,547.475,407.999z"/>
<path d="M306,148.74c-86.852,0-157.26,70.408-157.26,157.261s70.408,157.26,157.26,157.26S463.26,392.853,463.26,306    S392.853,148.74,306,148.74z M374.209,313.572c0,7.103-5.758,12.861-12.861,12.861h-34.915v34.915    c0,7.103-5.758,12.861-12.861,12.861h-15.145c-7.103,0-12.861-5.758-12.861-12.861v-34.915h-34.915    c-7.103,0-12.861-5.758-12.861-12.861v-15.145c0-7.103,5.758-12.861,12.861-12.861h34.915v-34.915    c0-7.103,5.758-12.861,12.861-12.861h15.145c7.103,0,12.861,5.758,12.861,12.861v34.915h34.915    c7.103,0,12.861,5.758,12.861,12.861V313.572z"/>
</symbol>

<symbol id="icon-animate-mandelbrot-set" viewBox="0 0 32 32">
<path d="M26 16v4h-6v8h-8v-4h-6v-4h6v-4h-4v-4h4v-8h8v4h4v4h-4v4h6z"></path>
</symbol>

<symbol id="icon-animate-julia-set" viewBox="0 0 32 32">
<path d="M10 4h-4c-1.1 0-2 0.9-2 2v4c0 1.1 0.9 2 2 2h4c1.1 0 2-0.9 2-2v-4c0-1.1-0.9-2-2-2z"></path>
<path d="M22 12h4c1.1 0 2-0.9 2-2v-4c0-1.1-0.9-2-2-2h-4c-1.1 0-2 0.9-2 2v4c0 1.1 0.9 2 2 2zM22 6h4v4h-4v-4z"></path>
<path d="M10 20h-4c-1.1 0-2 0.9-2 2v4c0 1.1 0.9 2 2 2h4c1.1 0 2-0.9 2-2v-4c0-1.1-0.9-2-2-2zM10 26h-4v-4h4v4z"></path>
<path d="M26 20h-4c-1.1 0-2 0.9-2 2v4c0 1.1 0.9 2 2 2h4c1.1 0 2-0.9 2-2v-4c0-1.1-0.9-2-2-2z"></path>
<path d="M28 16h-2c-2.671 0-5.182-1.040-7.071-2.929s-2.929-4.4-2.929-7.071v-2c0-2.2-1.8-4-4-4h-8c-2.2 0-4 1.8-4 4v8c0 2.2 1.8 4 4 4h2c2.671 0 5.182 1.040 7.071 2.929s2.929 4.4 2.929 7.071v2c0 2.2 1.8 4 4 4h8c2.2 0 4-1.8 4-4v-8c0-2.2-1.8-4-4-4zM30 28c0 0.53-0.209 1.031-0.589 1.411s-0.881 0.589-1.411 0.589h-8c-0.53 0-1.031-0.209-1.411-0.589s-0.589-0.881-0.589-1.411v-2c0-6.627-5.373-12-12-12h-2c-0.53 0-1.031-0.209-1.411-0.589s-0.589-0.881-0.589-1.411v-8c0-0.53 0.209-1.031 0.589-1.411s0.881-0.589 1.411-0.589h8c0.53 0 1.031 0.209 1.411 0.589s0.589 0.881 0.589 1.411v2c0 6.627 5.373 12 12 12h2c0.53 0 1.031 0.209 1.411 0.589s0.589 0.881 0.589 1.411v8z"></path>
</symbol>

<symbol id="icon-animate-flocking" viewBox="0 0 100 100">
<polygon  points="86.871,5.754 94.246,13.129 94.246,5.754 "/><polygon  points="73.352,19.273 80.727,26.648 80.727,19.273 "/><polygon  points="46.313,19.273 53.688,26.648 53.688,19.273 "/><polygon  points="19.148,19.273 26.522,26.648 26.522,19.273 "/><polygon  points="73.352,46.313 80.727,53.688 80.727,46.313 "/><polygon  points="46.313,46.313 53.688,53.688 53.688,46.313 "/><polygon  points="19.148,46.313 26.522,53.688 26.522,46.313 "/><polygon  points="73.352,73.352 80.727,80.727 80.727,73.352 "/><polygon  points="46.313,73.352 53.688,80.727 53.688,73.352 "/><polygon  points="19.148,73.352 26.522,80.727 26.522,73.352 "/><polygon  points="59.832,5.754 67.207,13.129 67.207,5.754 "/><polygon  points="32.793,5.754 40.168,13.129 40.168,5.754 "/><polygon  points="5.754,5.754 13.129,13.129 13.129,5.754 "/><polygon  points="86.871,32.793 94.246,40.168 94.246,32.793 "/><polygon  points="59.832,32.793 67.207,40.168 67.207,32.793 "/><polygon  points="32.793,32.793 40.168,40.168 40.168,32.793 "/><polygon  points="5.754,32.793 13.129,40.168 13.129,32.793 "/><polygon  points="86.871,59.832 94.246,67.207 94.246,59.832 "/><polygon  points="59.832,59.832 67.207,67.207 67.207,59.832 "/><polygon  points="32.793,59.832 40.168,67.207 40.168,59.832 "/><polygon  points="5.754,59.832 13.129,67.207 13.129,59.832 "/><polygon  points="86.871,86.871 94.246,94.246 94.246,86.871 "/><polygon  points="59.832,86.871 67.207,94.246 67.207,86.871 "/><polygon  points="32.793,86.871 40.168,94.246 40.168,86.871 "/><polygon  points="5.754,86.871 13.129,94.246 13.129,86.871 "/>
</symbol>


<symbol id="icon-animate-maze-generator" viewBox="0 0 100 100">
<g><polygon points="50.001,83.748 61.25,83.748 61.25,91.248 38.751,91.248 38.751,68.749 53.751,68.749 53.751,31.249 35.001,31.249    35.001,38.749 46.251,38.749 46.251,61.249 20,61.249 20,68.749 31.251,68.749 31.251,91.248 8.751,91.248 8.751,83.748 20,83.748    20,76.248 8.751,76.248 8.751,53.748 35.001,53.748 35.001,46.248 8.751,46.248 8.751,38.749 23.75,38.749 23.75,20.001    16.25,20.001 16.25,31.249 8.751,31.249 8.751,8.75 20,8.75 20,1.25 1.251,1.25 1.251,98.748 68.75,98.748 68.75,76.248    50.001,76.248  "/><polygon points="35.001,8.75 61.25,8.75 61.25,16.251 35.001,16.251 35.001,23.751 68.75,23.751 68.75,8.75 76.25,8.75    76.25,20.001 83.75,20.001 83.75,8.75 91.249,8.75 91.249,31.249 61.25,31.249 61.25,53.748 80,53.748 80,46.248 68.75,46.248    68.75,38.749 91.249,38.749 91.249,61.249 65,61.249 65,68.749 76.25,68.749 76.25,79.998 83.75,79.998 83.75,68.749    91.249,68.749 91.249,91.25 80,91.25 80,98.75 98.749,98.75 98.749,1.25 35.001,1.25  "/></g>
</symbol>

<symbol id="icon-animate-fourier-series" viewBox="0 0 104 96">
<path d="M4,32c-2.208,0-4,1.788-4,4v24c0,2.212,1.792,4,4,4s4-1.788,4-4V36C8,33.788,6.208,32,4,32z"/><path d="M16,20c-2.208,0-4,1.788-4,4v48c0,2.212,1.792,4,4,4s4-1.788,4-4V24C20,21.788,18.208,20,16,20z"/><path d="M52,32c-2.208,0-4,1.788-4,4v24c0,2.212,1.792,4,4,4s4-1.788,4-4V36C56,33.788,54.208,32,52,32z"/><path d="M40,24c-2.208,0-4,1.788-4,4v40c0,2.212,1.792,4,4,4s4-1.788,4-4V28C44,25.788,42.208,24,40,24z"/><path d="M28,12c-2.208,0-4,1.788-4,4v64c0,2.212,1.792,4,4,4s4-1.788,4-4V16C32,13.788,30.208,12,28,12z"/><path d="M64,24c-2.208,0-4,1.788-4,4v40c0,2.212,1.792,4,4,4s4-1.788,4-4V28C68,25.788,66.208,24,64,24z"/><path d="M100,32c-2.208,0-4,1.788-4,4v24c0,2.212,1.792,4,4,4s4-1.788,4-4V36C104,33.788,102.208,32,100,32z"/><path d="M88,24c-2.208,0-4,1.788-4,4v40c0,2.212,1.792,4,4,4s4-1.788,4-4V28C92,25.788,90.208,24,88,24z"/><path d="M76,16c-2.208,0-4,1.788-4,4v56c0,2.212,1.792,4,4,4s4-1.788,4-4V20C80,17.788,78.208,16,76,16z"/>
</symbol>
<symbol  id="icon-animate-lorenz-attractor" viewBox="0 0 96 120"><path d="M87.226,16.254C75.947,9.428,56.042,35.926,51.12,42.839c-0.224-1.069-0.552-1.915-0.982-2.536   c0.369-4.609,1.995-15.955,5.468-17.332c0.304-0.119,1.229-0.488,2.854,1.004l1.015-1.105c-1.539-1.411-3.027-1.846-4.422-1.293   c-4.394,1.742-5.916,13.458-6.32,17.599c-0.318-0.101-0.58-0.1-0.732-0.086c-0.151-0.014-0.414-0.015-0.731,0.085   c-0.404-4.14-1.927-15.857-6.321-17.598c-1.395-0.553-2.883-0.118-4.421,1.293l1.015,1.105c1.625-1.492,2.551-1.125,2.854-1.004   c3.471,1.375,5.098,12.72,5.469,17.331c-0.431,0.621-0.759,1.467-0.984,2.536C39.957,35.925,20.05,9.429,8.774,16.254   c-3.673,2.223-4.859,6.108-3.428,11.235c2.028,7.266,9.338,16.32,13.426,19.816c-2.305,2.811-4.225,6.478-4.352,10.522   c-0.176,5.599,2.986,10.717,9.397,15.211c3.332,2.335,6.421,3.507,9.229,3.507c1.277,0,2.497-0.242,3.654-0.728   c4.453-1.869,6.95-6.906,8.247-10.699c0.351,4.333,1.024,8.845,2.333,13.295L48,80.86l0.72-2.447   c1.309-4.45,1.982-8.963,2.333-13.296c1.297,3.793,3.794,8.831,8.247,10.7c1.157,0.486,2.376,0.728,3.654,0.728   c2.808,0,5.898-1.172,9.229-3.507c6.411-4.494,9.573-9.612,9.397-15.211c-0.127-4.044-2.047-7.712-4.352-10.522   c4.088-3.496,11.398-12.55,13.426-19.815C92.084,22.363,90.899,18.478,87.226,16.254z M18.427,23.797   c0,1.799-1.463,3.262-3.262,3.262s-3.262-1.463-3.262-3.262s1.463-3.262,3.262-3.262S18.427,21.998,18.427,23.797z M15.771,34.952   c0-0.604,0.491-1.095,1.094-1.095s1.094,0.491,1.094,1.095s-0.491,1.095-1.094,1.095S15.771,35.555,15.771,34.952z M28.329,53.743   l0.505,1.413l-6.74,2.407l-0.505-1.413L28.329,53.743z M34.438,56.283l0.965,1.148l-10.512,8.827l-0.965-1.148L34.438,56.283z    M31.395,69.835l5.938-6.58l1.113,1.005l-5.938,6.58L31.395,69.835z M74.412,56.15l-0.505,1.413l-6.741-2.407l0.505-1.413   L74.412,56.15z M77.575,23.797c0-1.799,1.463-3.262,3.262-3.262s3.262,1.463,3.262,3.262s-1.463,3.262-3.262,3.262   S77.575,25.596,77.575,23.797z M79.134,33.857c0.604,0,1.094,0.491,1.094,1.095s-0.491,1.095-1.094,1.095s-1.094-0.491-1.094-1.095   S78.531,33.857,79.134,33.857z M58.667,63.255l5.938,6.58l-1.113,1.005l-5.938-6.58L58.667,63.255z M60.597,57.431l0.965-1.148   l10.512,8.827l-0.965,1.148L60.597,57.431z"/></symbol>

<svg id="icon-animate-fractal-spirograph" viewBox="0 0 52 65"><path d="M31.3,22.9c-0.3-0.5-0.9-0.6-1.4-0.4l-3,1.7v-3.4c0-0.6-0.4-1-1-1s-1,0.4-1,1v3.4l-3-1.7c-0.5-0.3-1.1-0.1-1.4,0.4   c-0.3,0.5-0.1,1.1,0.4,1.4l3,1.7l-3,1.7c-0.5,0.3-0.6,0.9-0.4,1.4c0.3,0.5,0.9,0.6,1.4,0.4l3-1.7v3.4c0,0.6,0.4,1,1,1s1-0.4,1-1   v-3.4l3,1.7c0.5,0.3,1.1,0.1,1.4-0.4c0.3-0.5,0.1-1.1-0.4-1.4L28,26l3-1.7C31.5,24,31.6,23.4,31.3,22.9z"/><path d="M47.8,34.8l-3.1,0.8l-2.6-1.5l3.1-0.8c0.5-0.1,0.9-0.7,0.7-1.2c-0.1-0.5-0.7-0.9-1.2-0.7l-4.3,1.2l-0.4-3.1   c0-0.3-0.2-0.6-0.5-0.7L34.7,26l4.8-2.8c0.3-0.2,0.4-0.4,0.5-0.7l0.4-3.1l4.3,1.1c0.5,0.1,1.1-0.2,1.2-0.7c0.1-0.5-0.2-1.1-0.7-1.2   l-3.1-0.8l2.6-1.5l3.1,0.8c0.5,0.1,1.1-0.2,1.2-0.7c0.1-0.5-0.2-1.1-0.7-1.2l-2.6-0.7l0.7-2.6c0.1-0.5-0.2-1.1-0.7-1.2   c-0.5-0.1-1.1,0.2-1.2,0.7l-0.8,3.1l-2.6,1.5l0.8-3c0.1-0.5-0.2-1.1-0.7-1.2c-0.5-0.1-1.1,0.2-1.2,0.7l-1.2,4.3L36,15.7   c-0.3-0.1-0.6-0.1-0.9,0.1l-4.7,2.7V13c0-0.3-0.1-0.6-0.4-0.8l-2.5-1.9l3.1-3.1c0.4-0.4,0.4-1,0-1.4s-1-0.4-1.4,0L27,7.9V5l2.3-2.3   c0.4-0.4,0.4-1,0-1.4s-1-0.4-1.4,0L26,3.2l-1.9-1.9c-0.4-0.4-1-0.4-1.4,0c-0.4,0.4-0.4,1,0,1.4L25,5v3l-2.2-2.2   c-0.4-0.4-1-0.4-1.4,0c-0.4,0.4-0.4,1,0,1.4l3.2,3.2l-2.4,1.9c-0.2,0.2-0.4,0.5-0.4,0.8v5.5l-4.8-2.8c-0.3-0.2-0.6-0.2-0.9-0.1   l-2.9,1.2L12,12.5c-0.1-0.5-0.7-0.9-1.2-0.7c-0.5,0.1-0.9,0.7-0.7,1.2l0.8,3.1l-2.6-1.5l-0.8-3.1c-0.1-0.5-0.7-0.9-1.2-0.7   c-0.5,0.1-0.9,0.7-0.7,1.2l0.7,2.6l-2.6,0.7C3.1,15.4,2.8,16,3,16.5c0.1,0.5,0.7,0.8,1.2,0.7l3.1-0.8l2.6,1.5l-3,0.8   c-0.5,0.1-0.9,0.7-0.7,1.2c0.1,0.5,0.7,0.8,1.2,0.7l4.3-1.2l0.4,3.1c0,0.3,0.2,0.6,0.5,0.7l4.7,2.7l-4.8,2.8   c-0.3,0.2-0.4,0.4-0.5,0.7l-0.4,3.1l-4.3-1.1c-0.5-0.1-1.1,0.2-1.2,0.7c-0.1,0.5,0.2,1.1,0.7,1.2l3.1,0.8l-2.6,1.5l-3.1-0.8   C3.7,34.7,3.1,35,3,35.5c-0.1,0.5,0.2,1.1,0.7,1.2l2.6,0.7L5.5,40c-0.1,0.5,0.2,1.1,0.7,1.2c0.5,0.1,1.1-0.2,1.2-0.7l0.8-3.1   l2.6-1.5l-0.8,3c-0.1,0.5,0.2,1.1,0.7,1.2c0.5,0.1,1.1-0.2,1.2-0.7l1.2-4.3l2.9,1.2c0.3,0.1,0.6,0.1,0.9-0.1l4.7-2.7V39   c0,0.3,0.1,0.6,0.4,0.8l2.5,1.9l-3.1,3.1c-0.4,0.4-0.4,1,0,1.4s1,0.4,1.4,0l2.2-2.2v3l-2.3,2.3c-0.4,0.4-0.4,1,0,1.4s1,0.4,1.4,0   l1.9-1.9l1.9,1.9c0.4,0.4,1,0.4,1.4,0c0.4-0.4,0.4-1,0-1.4L27,47v-3l2.2,2.2c0.4,0.4,1,0.4,1.4,0c0.4-0.4,0.4-1,0-1.4l-3.2-3.2   l2.4-1.9c0.2-0.2,0.4-0.5,0.4-0.8v-5.5l4.8,2.8c0.3,0.2,0.6,0.2,0.9,0.1l2.9-1.2l1.1,4.3c0.1,0.5,0.7,0.8,1.2,0.7   c0.5-0.1,0.9-0.7,0.7-1.2l-0.8-3.1l2.6,1.5l0.8,3.1c0.1,0.5,0.7,0.8,1.2,0.7c0.5-0.1,0.9-0.7,0.7-1.2l-0.7-2.6l2.6-0.7   c0.5-0.1,0.9-0.7,0.7-1.2C48.9,35,48.3,34.7,47.8,34.8z M35.7,34.3L29.8,31c-0.3-0.2-0.7-0.2-1,0c-0.3,0.2-0.5,0.5-0.5,0.9v6.7   L26,40.4l-2.3-1.8v-6.8c0-0.4-0.2-0.7-0.5-0.9c-0.3-0.2-0.7-0.2-1,0l-5.8,3.4l-2.8-1.1l0.4-2.9l5.9-3.4c0.3-0.2,0.5-0.5,0.5-0.9   s-0.2-0.7-0.5-0.9L14,21.7l-0.4-2.9l2.8-1.1l5.9,3.4c0.3,0.2,0.7,0.2,1,0c0.3-0.2,0.5-0.5,0.5-0.9v-6.7l2.4-1.8l2.3,1.8v6.8   c0,0.4,0.2,0.7,0.5,0.9c0.3,0.2,0.7,0.2,1,0l5.8-3.4l2.8,1.1L38,21.8l-5.9,3.4c-0.3,0.2-0.5,0.5-0.5,0.9s0.2,0.7,0.5,0.9l5.8,3.4   l0.4,2.9L35.7,34.3z"/></svg>

<svg id="icon-animate-reaction-diffusion" viewBox="0 0 512 512">
<path d="M34.103,261.27c-0.13-0.64-0.32-1.27-0.57-1.87c-0.25-0.6-0.56-1.18-0.92-1.72c-0.36-0.55-0.78-1.06-1.24-1.52    c-0.46-0.47-0.98-0.88-1.52-1.25c-0.55-0.36-1.13-0.67-1.73-0.92s-1.23-0.44-1.87-0.57c-1.29-0.26-2.62-0.26-3.91,0    c-0.64,0.13-1.27,0.32-1.87,0.57s-1.18,0.56-1.73,0.92c-0.54,0.37-1.05,0.78-1.52,1.25c-0.46,0.46-0.87,0.97-1.24,1.52    c-0.36,0.54-0.67,1.12-0.92,1.72c-0.25,0.61-0.44,1.23-0.57,1.87c-0.13,0.65-0.19,1.31-0.19,1.96s0.059,1.31,0.19,1.95    c0.13,0.64,0.32,1.27,0.57,1.87c0.25,0.6,0.56,1.19,0.92,1.73c0.37,0.55,0.78,1.06,1.24,1.52c0.47,0.46,0.98,0.88,1.52,1.24    c0.549,0.36,1.129,0.67,1.729,0.92c0.6,0.25,1.23,0.44,1.87,0.57c0.65,0.13,1.3,0.2,1.961,0.2c0.65,0,1.3-0.07,1.95-0.2    c0.64-0.13,1.27-0.32,1.87-0.57s1.18-0.56,1.73-0.92c0.54-0.36,1.06-0.78,1.52-1.24s0.88-0.97,1.24-1.52    c0.36-0.54,0.67-1.13,0.92-1.73c0.25-0.6,0.44-1.23,0.57-1.87s0.2-1.3,0.2-1.95C34.303,262.58,34.233,261.92,34.103,261.27z"/>
<path d="M355.954,119.595c-0.13-0.63-0.32-1.26-0.57-1.87c-0.25-0.6-0.56-1.18-0.92-1.72c-0.37-0.55-0.78-1.06-1.25-1.52    c-0.46-0.46-0.97-0.88-1.52-1.24c-0.54-0.36-1.12-0.67-1.72-0.92c-0.6-0.25-1.23-0.45-1.87-0.57c-1.29-0.26-2.62-0.26-3.91,0    c-0.64,0.12-1.27,0.32-1.87,0.57c-0.61,0.25-1.19,0.56-1.73,0.92c-0.55,0.36-1.06,0.78-1.52,1.24s-0.88,0.97-1.24,1.52    c-0.36,0.54-0.67,1.12-0.92,1.72c-0.25,0.61-0.44,1.24-0.57,1.87c-0.13,0.65-0.2,1.31-0.2,1.961c0,0.65,0.07,1.31,0.2,1.95    c0.13,0.64,0.32,1.27,0.57,1.87c0.25,0.61,0.56,1.19,0.92,1.73c0.36,0.55,0.78,1.06,1.24,1.52s0.97,0.88,1.52,1.24    c0.54,0.36,1.12,0.67,1.73,0.92c0.6,0.25,1.23,0.44,1.87,0.57s1.3,0.2,1.95,0.2c0.66,0,1.31-0.07,1.96-0.2    c0.64-0.13,1.27-0.32,1.87-0.57c0.6-0.25,1.18-0.56,1.72-0.92c0.55-0.36,1.06-0.78,1.52-1.24c0.47-0.46,0.88-0.97,1.25-1.52    c0.36-0.54,0.67-1.12,0.92-1.73c0.25-0.6,0.44-1.23,0.57-1.87c0.13-0.64,0.19-1.3,0.19-1.95S356.084,120.246,355.954,119.595z"/>
<path d="M256,153.973c-56.258,0-102.027,45.77-102.027,102.027c0,56.258,45.77,102.027,102.027,102.027    s102.027-45.769,102.027-102.027C358.027,199.742,312.258,153.973,256,153.973z M256,338.026    c-45.23,0-82.026-36.796-82.026-82.026S210.77,173.974,256,173.974s82.026,36.796,82.026,82.026S301.23,338.026,256,338.026z"/>
<path d="M256,194.275c-34.036,0-61.726,27.69-61.726,61.725c0,34.036,27.69,61.726,61.726,61.726s61.726-27.69,61.726-61.726    C317.725,221.965,290.036,194.275,256,194.275z M256,297.725c-23.007,0-41.725-18.718-41.725-41.726    c0-23.007,18.718-41.724,41.725-41.724s41.725,18.718,41.725,41.724C297.725,279.007,279.007,297.725,256,297.725z"/>
<path d="M382.18,139.34c-3.75-4.054-10.077-4.3-14.131-0.549c-4.054,3.751-4.3,10.078-0.549,14.131    c26.066,28.173,40.421,64.78,40.421,103.078c0,68.035-46.042,128.032-110.808,146.269c-5.46-17.513-21.825-30.262-41.112-30.262    c-19.287,0-35.652,12.749-41.112,30.262C150.116,384.033,104.08,324.051,104.08,256c0-67.94,46.076-128.029,110.808-146.268    c5.46,17.513,21.825,30.261,41.112,30.261c23.739,0,43.052-19.313,43.052-43.052S279.739,53.89,256,53.89    c-21.156,0-38.795,15.339-42.384,35.478c-35.408,9.029-67.46,29.463-90.782,58.003c-24.991,30.583-38.754,69.161-38.754,108.628    c0,39.616,13.856,78.309,39.017,108.949c23.31,28.386,55.243,48.685,90.518,57.682c3.588,20.141,21.229,35.479,42.384,35.479    c21.156,0,38.796-15.339,42.385-35.479c35.294-9.001,67.245-29.32,90.557-57.727C414.077,334.271,427.92,295.595,427.92,256    C427.92,212.652,411.676,171.221,382.18,139.34z M256,73.891c12.71,0,23.051,10.34,23.051,23.051S268.71,119.993,256,119.993    c-12.71,0-23.051-10.34-23.051-23.051C232.949,84.232,243.29,73.891,256,73.891z M256,438.11c-12.71,0-23.051-10.34-23.051-23.051    c0-12.71,10.34-23.051,23.051-23.051c12.71,0,23.051,10.34,23.051,23.051C279.051,427.769,268.711,438.11,256,438.11z"/>
<path d="M491.518,310.934c4.18-17.935,6.296-36.377,6.296-54.934c0-133.337-108.478-241.815-241.815-241.815    c-81.368,0-156.708,40.593-201.757,108.642c-20.323-5.486-42.185,4.673-50.74,24.563c-9.38,21.807,0.73,47.18,22.537,56.559    c5.528,2.378,11.283,3.503,16.952,3.503c16.689,0,32.605-9.761,39.608-26.04c7.466-17.358,2.583-36.974-10.717-48.987    C113.325,70.858,181.945,34.185,256,34.185c122.308,0,221.814,99.505,221.814,221.814c0,16.44-1.809,32.775-5.382,48.685    c-17.901-1.438-35.55,8.513-43.031,25.903c-7.467,17.359-2.583,36.977,10.72,48.99c-41.431,61.68-109.62,98.235-184.122,98.235    c-105.781,0-197.326-75.294-217.675-179.031c-1.063-5.419-6.314-8.952-11.738-7.888c-5.419,1.063-8.951,6.318-7.888,11.738    c22.185,113.097,121.983,195.183,237.3,195.183c41.938,0,83.284-10.955,119.571-31.681c32.952-18.822,61.231-45.33,82.185-76.96    c3.69,0.996,7.429,1.476,11.133,1.476c16.69,0,32.605-9.762,39.607-26.04C517.039,344.751,509.417,321.937,491.518,310.934z     M64.226,173.51c-5.024,11.676-18.61,17.087-30.284,12.066c-11.675-5.022-17.089-18.608-12.066-30.284    c3.749-8.716,12.27-13.942,21.207-13.942c3.034,0,6.117,0.603,9.076,1.876C63.835,148.249,69.248,161.834,64.226,173.51z     M490.124,356.707c-5.023,11.675-18.607,17.089-30.283,12.066h0.001c-11.676-5.022-17.09-18.608-12.067-30.284    c5.023-11.675,18.609-17.09,30.283-12.066C489.732,331.446,495.146,345.031,490.124,356.707z"/>
</svg>

<svg id="icon-game-tic-tac-toe" viewBox="0 0 512 512">
<path d="M151.129,388.83L207,332.959c4.404-4.403,6.829-10.258,6.829-16.485s-2.425-12.081-6.828-16.485
c-9.09-9.088-23.88-9.087-32.97,0l-55.872,55.872l-55.872-55.872c-9.091-9.09-23.88-9.088-32.97,0.001
c-4.403,4.403-6.828,10.258-6.828,16.484c0,6.228,2.425,12.082,6.828,16.485l55.872,55.871l-55.872,55.872
c-4.403,4.403-6.828,10.258-6.828,16.484c0,6.228,2.425,12.082,6.828,16.484c4.403,4.404,10.258,6.829,16.485,6.829
s12.082-2.425,16.485-6.828l55.872-55.872l55.872,55.872c4.403,4.403,10.258,6.828,16.485,6.828
c6.228,0,12.082-2.425,16.485-6.828c4.403-4.403,6.828-10.258,6.828-16.485s-2.425-12.081-6.828-16.484L151.129,388.83z
M196.394,467.066c-1.57,1.569-3.657,2.435-5.878,2.435c-2.22,0-4.308-0.865-5.878-2.436l-61.175-61.175
c-1.464-1.464-3.384-2.196-5.303-2.196s-3.839,0.732-5.303,2.196l-61.175,61.176c-1.57,1.569-3.657,2.435-5.878,2.435
c-2.221,0-4.308-0.865-5.878-2.436c-1.57-1.569-2.435-3.657-2.435-5.878c0-2.22,0.864-4.308,2.435-5.877l61.175-61.176
c2.929-2.93,2.929-7.678,0-10.607l-61.175-61.175c-1.57-1.569-2.435-3.657-2.435-5.878c0-2.221,0.865-4.309,2.435-5.878
c3.241-3.242,8.516-3.242,11.757,0l61.175,61.175c2.929,2.928,7.678,2.928,10.606,0l61.174-61.175
c3.242-3.24,8.516-3.241,11.757,0.001c1.57,1.569,2.435,3.657,2.435,5.877c-0.001,2.22-0.866,4.308-2.436,5.878l-61.175,61.175
c-2.929,2.93-2.929,7.678,0,10.607l61.175,61.176c1.57,1.569,2.435,3.657,2.435,5.877
C198.829,463.408,197.965,465.496,196.394,467.066z"/>
<path d="M411.463,294.787c-4.071-0.759-7.989,1.927-8.747,5.999c-0.759,4.072,1.927,7.988,5.999,8.747
c38.125,7.104,65.796,40.453,65.796,79.297c0,44.482-36.188,80.672-80.671,80.672c-44.483,0-80.672-36.189-80.672-80.672
c0-38.083,27.025-71.307,64.261-78.999c4.057-0.838,6.665-4.806,5.827-8.862c-0.839-4.057-4.808-6.663-8.862-5.827
c-44.168,9.124-76.226,48.526-76.226,93.688c0,52.754,42.918,95.672,95.672,95.672c52.753,0,95.671-42.918,95.671-95.672
C489.511,342.765,456.687,303.214,411.463,294.787z"/>
<path d="M393.84,321.111c-37.341,0-67.72,30.379-67.72,67.719c0,37.341,30.379,67.72,67.72,67.72s67.72-30.379,67.72-67.72
C461.56,351.49,431.181,321.111,393.84,321.111z M393.84,441.55c-29.07,0-52.72-23.65-52.72-52.72s23.651-52.719,52.72-52.719
c29.069,0,52.72,23.649,52.72,52.719S422.91,441.55,393.84,441.55z"/>
<path d="M426.809,123.17l55.871-55.872c4.404-4.403,6.829-10.258,6.829-16.485c0-6.227-2.425-12.081-6.829-16.485
c-9.09-9.088-23.88-9.088-32.97,0L393.841,90.2l-55.872-55.873c-9.089-9.087-23.88-9.089-32.969,0.001
c-4.404,4.403-6.829,10.258-6.829,16.485s2.425,12.081,6.828,16.484l55.872,55.872L305,179.041
c-4.404,4.403-6.829,10.258-6.829,16.485s2.425,12.081,6.828,16.484c4.404,4.403,10.259,6.828,16.485,6.828
s12.081-2.425,16.484-6.828l14.869-14.868c2.93-2.929,2.93-7.678,0.001-10.606c-2.929-2.928-7.678-2.93-10.606-0.001
l-14.87,14.868c-1.57,1.57-3.657,2.436-5.878,2.436c-2.221,0-4.308-0.865-5.879-2.436c-1.57-1.569-2.435-3.657-2.435-5.877
c0-2.221,0.864-4.309,2.436-5.878l61.175-61.175c2.929-2.93,2.929-7.678,0-10.607L315.605,56.69
c-1.57-1.569-2.435-3.657-2.435-5.878s0.865-4.308,2.435-5.878c3.242-3.242,8.517-3.24,11.757,0l61.175,61.176
c1.407,1.406,3.314,2.196,5.304,2.196s3.896-0.79,5.304-2.196l61.174-61.176c3.242-3.24,8.516-3.241,11.758,0.001
c1.57,1.569,2.435,3.657,2.435,5.878c0,2.22-0.864,4.308-2.436,5.877L410.9,117.866c-2.929,2.93-2.929,7.678,0,10.607
l61.176,61.175c1.57,1.569,2.435,3.657,2.435,5.878c0,2.22-0.864,4.308-2.436,5.877c-1.57,1.57-3.657,2.436-5.878,2.436
c-2.221,0-4.308-0.865-5.878-2.436l-61.175-61.174c-2.929-2.927-7.678-2.929-10.606,0l-22.14,22.139
c-2.93,2.929-2.93,7.678-0.001,10.606c2.929,2.928,7.678,2.93,10.606,0.001l16.837-16.836l55.871,55.871
c4.404,4.403,10.259,6.828,16.485,6.828c6.226,0,12.081-2.425,16.484-6.828c4.404-4.403,6.829-10.258,6.829-16.484
c0-6.228-2.425-12.082-6.828-16.485L426.809,123.17z"/>
<path d="M118.16,27.497c-52.753,0-95.67,42.919-95.67,95.673c0,52.753,42.918,95.67,95.671,95.67
c18.788,0,36.982-5.451,52.616-15.765c3.458-2.281,4.412-6.934,2.13-10.391c-2.281-3.458-6.935-4.412-10.39-2.131
c-13.175,8.692-28.514,13.286-44.356,13.286c-44.482,0-80.671-36.188-80.671-80.67s36.189-80.672,80.671-80.672
s80.671,36.189,80.671,80.672c0,16.311-4.846,32.024-14.014,45.442c-2.337,3.421-1.459,8.087,1.961,10.424
c3.418,2.337,8.086,1.457,10.423-1.961c10.879-15.922,16.629-34.563,16.629-53.905C213.831,70.415,170.913,27.497,118.16,27.497z"/>
<path d="M118.161,55.45c-37.341,0-67.72,30.379-67.72,67.72c0,37.34,30.379,67.719,67.72,67.719s67.72-30.379,67.72-67.719
C185.88,85.829,155.501,55.45,118.161,55.45z M118.161,175.889c-29.07,0-52.72-23.649-52.72-52.719s23.65-52.72,52.72-52.72
s52.72,23.65,52.72,52.72S147.23,175.889,118.161,175.889z"/>
<path d="M504.5,248.5h-241V7.5c0-4.143-3.357-7.5-7.5-7.5c-4.142,0-7.5,3.357-7.5,7.5v241H7.5c-4.142,0-7.5,3.357-7.5,7.5
s3.358,7.5,7.5,7.5h241v241c0,4.143,3.358,7.5,7.5,7.5c4.143,0,7.5-3.357,7.5-7.5v-241h241c4.143,0,7.5-3.357,7.5-7.5
S508.643,248.5,504.5,248.5z"/>
<path d="M285.308,276.705c-4.143,0-7.5,3.357-7.5,7.5v0.938c0,4.143,3.357,7.5,7.5,7.5s7.5-3.357,7.5-7.5v-0.938
C292.808,280.063,289.45,276.705,285.308,276.705z"/>
<path d="M226.692,276.705c-4.142,0-7.5,3.357-7.5,7.5v0.938c0,4.143,3.358,7.5,7.5,7.5c4.142,0,7.5-3.357,7.5-7.5v-0.938
C234.192,280.063,230.834,276.705,226.692,276.705z"/>
<path d="M285.308,219.357c-4.143,0-7.5,3.357-7.5,7.5v0.938c0,4.143,3.357,7.5,7.5,7.5s7.5-3.357,7.5-7.5v-0.938
C292.808,222.714,289.451,219.357,285.308,219.357z"/>
<path d="M226.692,219.357c-4.142,0-7.5,3.357-7.5,7.5v0.938c0,4.143,3.358,7.5,7.5,7.5c4.142,0,7.5-3.357,7.5-7.5v-0.938
C234.192,222.714,230.834,219.357,226.692,219.357z"/>
</svg>

<svg id="icon-game-tic-tac-toe-ai" viewBox="0 0 435 435">
<path d="m297.824219 112h-160c-14.355469.015625-25.984375 11.648438-26 26v160c.015625 14.351562 11.644531 25.984375 26 26h160c14.351562-.015625 25.984375-11.648438 26-26v-160c-.015625-14.351562-11.648438-25.984375-26-26zm14 186c-.011719 7.726562-6.273438 13.992188-14 14h-160c-7.730469-.007812-13.992188-6.273438-14-14v-160c.007812-7.730469 6.269531-13.992188 14-14h160c7.726562.007812 13.992187 6.269531 14 14zm0 0"/>
<path d="m317.824219 82h-200c-19.875.023438-35.980469 16.125-36 36v200c.019531 19.871094 16.125 35.976562 36 36h200c19.871093-.023438 35.976562-16.128906 36-36v-200c-.023438-19.875-16.128907-35.976562-36-36zm24 236c-.015625 13.25-10.753907 23.984375-24 24h-200c-13.25-.015625-23.984375-10.75-24-24v-200c.011719-13.25 10.75-23.984375 24-24h200c13.246093.015625 23.984375 10.75 24 24zm0 0"/>
<path d="m239.441406 373.644531c-3.316406 0-6 2.6875-6 6v50c0 3.316407 2.683594 6 6 6 3.3125 0 6-2.683593 6-6v-50c0-3.3125-2.6875-6-6-6zm0 0"/>
<path d="m196.207031 373.644531c-3.316406 0-6 2.6875-6 6v50c0 3.316407 2.683594 6 6 6 3.3125 0 6-2.683593 6-6v-50c0-3.3125-2.6875-6-6-6zm0 0"/>
<path d="m152.972656 373.644531c-3.3125 0-6 2.6875-6 6v50c0 3.316407 2.6875 6 6 6s6-2.683593 6-6v-50c0-3.3125-2.6875-6-6-6zm0 0"/>
<path d="m282.675781 373.644531c-3.316406 0-6 2.6875-6 6v50c0 3.316407 2.683594 6 6 6 3.3125 0 6-2.683593 6-6v-50c0-3.3125-2.6875-6-6-6zm0 0"/>
<path d="m202.207031 56v-50c0-3.3125-2.6875-6-6-6-3.316406 0-6 2.6875-6 6v50c0 3.3125 2.683594 6 6 6 3.3125 0 6-2.6875 6-6zm0 0"/>
<path d="m245.441406 56v-50c0-3.3125-2.6875-6-6-6-3.316406 0-6 2.6875-6 6v50c0 3.3125 2.683594 6 6 6 3.3125 0 6-2.6875 6-6zm0 0"/>
<path d="m288.675781 56v-50c0-3.3125-2.6875-6-6-6-3.316406 0-6 2.6875-6 6v50c0 3.3125 2.683594 6 6 6 3.3125 0 6-2.6875 6-6zm0 0"/>
<path d="m158.972656 56v-50c0-3.3125-2.6875-6-6-6s-6 2.6875-6 6v50c0 3.3125 2.6875 6 6 6s6-2.6875 6-6zm0 0"/>
<path d="m429.644531 190.207031h-50c-3.3125 0-6 2.683594-6 6 0 3.3125 2.6875 6 6 6h50c3.316407 0 6-2.6875 6-6 0-3.316406-2.683593-6-6-6zm0 0"/>
<path d="m429.644531 233.441406h-50c-3.3125 0-6 2.683594-6 6 0 3.3125 2.6875 6 6 6h50c3.316407 0 6-2.6875 6-6 0-3.316406-2.683593-6-6-6zm0 0"/>
<path d="m429.644531 276.675781h-50c-3.3125 0-6 2.683594-6 6 0 3.3125 2.6875 6 6 6h50c3.316407 0 6-2.6875 6-6 0-3.316406-2.683593-6-6-6zm0 0"/>
<path d="m429.644531 146.972656h-50c-3.3125 0-6 2.6875-6 6s2.6875 6 6 6h50c3.316407 0 6-2.6875 6-6s-2.683593-6-6-6zm0 0"/>
<path d="m56 233.441406h-50c-3.3125 0-6 2.683594-6 6 0 3.3125 2.6875 6 6 6h50c3.3125 0 6-2.6875 6-6 0-3.316406-2.6875-6-6-6zm0 0"/>
<path d="m56 190.207031h-50c-3.3125 0-6 2.683594-6 6 0 3.3125 2.6875 6 6 6h50c3.3125 0 6-2.6875 6-6 0-3.316406-2.6875-6-6-6zm0 0"/>
<path d="m56 146.972656h-50c-3.3125 0-6 2.6875-6 6s2.6875 6 6 6h50c3.3125 0 6-2.6875 6-6s-2.6875-6-6-6zm0 0"/>
<path d="m56 276.675781h-50c-3.3125 0-6 2.683594-6 6 0 3.3125 2.6875 6 6 6h50c3.3125 0 6-2.6875 6-6 0-3.316406-2.6875-6-6-6zm0 0"/>
<path d="m212.214844 175.28125c-.882813-2.640625-4.179688-3.960938-7.480469-3.960938s-6.492187 1.320313-7.371094 3.960938l-21.890625 71.277344c-.089844.324218-.125.660156-.109375.992187 0 2.859375 4.070313 4.839844 7.261719 4.839844 1.980469 0 3.519531-.660156 4.070312-2.421875l4.507813-15.617188h27.171875l4.507812 15.617188c.550782 1.761719 2.089844 2.421875 3.960938 2.421875 3.300781 0 7.371094-2.089844 7.371094-4.839844-.019532-.339843-.09375-.675781-.222656-.992187zm-18.480469 49.71875 11-37.730469 11 37.730469zm0 0"/>
<path d="m248.734375 171.980469c-2.859375 0-5.832031 1.097656-5.832031 3.738281v72.820312c0 2.53125 2.972656 3.851563 5.832031 3.851563 2.96875 0 5.828125-1.320313 5.828125-3.851563v-72.816406c0-2.644531-2.859375-3.742187-5.828125-3.742187zm0 0"/>
</svg>

<!-- /Chat Profile -->

<!-- Misc -->
<symbol id="icon-down" viewBox="0 0 20 20">
<path d="M4.516 7.548c0.436-0.446 1.043-0.481 1.576 0l3.908 3.747 3.908-3.747c0.533-0.481 1.141-0.446 1.574 0 0.436 0.445 0.408 1.197 0 1.615-0.406 0.418-4.695 4.502-4.695 4.502-0.217 0.223-0.502 0.335-0.787 0.335s-0.57-0.112-0.789-0.335c0 0-4.287-4.084-4.695-4.502s-0.436-1.17 0-1.615z"></path>
</symbol>

<!-- /Misc -->

<!-- Footer -->
<symbol id="icon-heart" viewBox="0 0 20 20">
<path d="M17.19 4.155c-1.672-1.534-4.383-1.534-6.055 0l-1.135 1.042-1.136-1.042c-1.672-1.534-4.382-1.534-6.054 0-1.881 1.727-1.881 4.52 0 6.246l7.19 6.599 7.19-6.599c1.88-1.726 1.88-4.52 0-6.246z"></path>
</symbol>
<!-- /Footer -->
</defs>
</svg>

