<svg aria-hidden="true" style="position: absolute; width: 0; height: 0; overflow: hidden;" version="1.1" xmlns="http://www.w3.org/2000/svg" xmlns:xlink="http://www.w3.org/1999/xlink">
<defs>
<!-- Header -->
<symbol id="icon-chat" viewBox="0 0 20 20">
<path d="M5.8 12.2v-6.2h-3.8c-1.1 0-2 0.9-2 2v6c0 1.1 0.9 2 2 2h1v3l3-3h5c1.1 0 2-0.9 2-2v-1.82c-0.064 0.014-0.132 0.021-0.2 0.021l-7-0.001zM18 1h-9c-1.1 0-2 0.9-2 2v8h7l3 3v-3h1c1.1 0 2-0.899 2-2v-6c0-1.1-0.9-2-2-2z"></path>
</symbol>

<symbol id="icon-search" viewBox="0 0 20 20">
<path d="M17.545 15.467l-3.779-3.779c0.57-0.935 0.898-2.035 0.898-3.21 0-3.417-2.961-6.377-6.378-6.377s-6.186 2.769-6.186 6.186c0 3.416 2.961 6.377 6.377 6.377 1.137 0 2.2-0.309 3.115-0.844l3.799 3.801c0.372 0.371 0.975 0.371 1.346 0l0.943-0.943c0.371-0.371 0.236-0.84-0.135-1.211zM4.004 8.287c0-2.366 1.917-4.283 4.282-4.283s4.474 2.107 4.474 4.474c0 2.365-1.918 4.283-4.283 4.283s-4.473-2.109-4.473-4.474z"></path>
</symbol>
<!-- /Header -->

<!-- Navbar -->
<symbol id="icon-active-now" viewBox="0 0 32 32">
<path d="M16 29.958c-7.709 0-13.958-6.249-13.958-13.958s6.249-13.958 13.958-13.958c7.709 0 13.959 6.249 13.959 13.958s-6.25 13.958-13.959 13.958zM22.92 5.552c-3.723-2.499-6.879-2.088-6.879-2.088l-0.003 9.008c-1.269 0.032-2.36 0.732-2.958 1.761l-7.627-4.886c0 0-2.021 1.979-2.021 6.464s1.937 6.652 1.937 6.652l7.723-4.676c0.601 1.019 1.687 1.709 2.947 1.741l0.003 9.134c0 0 3.157 0.411 6.879-2.087 3.725-2.499 4.316-5.071 4.316-5.071l-7.982-3.887c0.254-0.486 0.41-1.031 0.41-1.617 0-0.53-0.125-1.027-0.334-1.479l8.074-3.814c-0.001-0.001-0.76-2.657-4.485-5.155zM16.126 18.021c-1.116 0-2.021-0.905-2.021-2.021s0.905-2.021 2.021-2.021c1.116 0 2.020 0.905 2.020 2.021s-0.904 2.021-2.020 2.021z"></path>
</symbol>

<symbol id="icon-recent-chat" viewBox="0 0 24 24">
<path d="M18 8.016v-2.016h-12v2.016h12zM14.016 14.016v-2.016h-8.016v2.016h8.016zM6 9v2.016h12v-2.016h-12zM20.016 2.016q0.797 0 1.383 0.586t0.586 1.383v12q0 0.797-0.586 1.406t-1.383 0.609h-14.016l-3.984 3.984v-18q0-0.797 0.586-1.383t1.383-0.586h16.031z"></path>
</symbol>

<symbol id="icon-user-search" viewBox="0 0 28 28">
<path d="M11 5v12c0 0.547-0.453 1-1 1v0 9c0 0.547-0.453 1-1 1h-8c-0.547 0-1-0.453-1-1v-8l3.891-13.641c0.063-0.219 0.266-0.359 0.484-0.359h6.625zM16 5v11h-4v-11h4zM28 19v8c0 0.547-0.453 1-1 1h-8c-0.547 0-1-0.453-1-1v-9c-0.547 0-1-0.453-1-1v-12h6.625c0.219 0 0.422 0.141 0.484 0.359zM11.5 0.5v3.5h-5.5v-3.5c0-0.281 0.219-0.5 0.5-0.5h4.5c0.281 0 0.5 0.219 0.5 0.5zM22 0.5v3.5h-5.5v-3.5c0-0.281 0.219-0.5 0.5-0.5h4.5c0.281 0 0.5 0.219 0.5 0.5z"></path>
</symbol>

<symbol id="icon-user-friend" viewBox="0 0 32 32">
<path d="M17.788 24.32c-0-0.001-0-0.003-0-0.004 0 0.001 0 0.003 0 0.004z"></path>
<path d="M17.831 25.454c-0-0.007-0.001-0.015-0.001-0.022 0 0.007 0.001 0.015 0.001 0.022z"></path>
<path d="M17.807 24.885c-0-0.006-0-0.011-0.001-0.017 0 0.006 0 0.011 0.001 0.017z"></path>
<path d="M30 0h-28c-1.1 0-2 0.9-2 2v28c0 1.1 0.9 2 2 2h15.432c0.001 0 0.003 0 0.004 0s0.003-0 0.004-0h12.56c1.1 0 2-0.9 2-2v-28c0-1.1-0.9-2-2-2zM6 7c0-0.552 0.448-1 1-1s1 0.448 1 1v2c0 0.552-0.448 1-1 1s-1-0.448-1-1v-2zM30 30h-11.721c-0.209-1.315-0.341-2.671-0.418-3.988 0 0.004 0 0.007 0.001 0.011-0.616 0.067-1.237 0.102-1.862 0.102-4.177 0-8.199-1.52-11.328-4.281-0.466-0.411-0.51-1.122-0.099-1.588s1.122-0.51 1.588-0.099c2.717 2.398 6.211 3.718 9.839 3.718 0.596 0 1.189-0.036 1.776-0.107-0.069-3.694 0.215-6.622 0.22-6.669 0.028-0.281-0.064-0.561-0.254-0.77s-0.459-0.329-0.741-0.329h-2.974c0.043-1.082 0.159-2.932 0.467-5.006 0.589-3.961 1.625-7.055 3.005-8.994h12.502v28z"></path>
<path d="M25 10c-0.552 0-1-0.448-1-1v-2c0-0.552 0.448-1 1-1s1 0.448 1 1v2c0 0.552-0.448 1-1 1z"></path>
<path d="M16.89 26.101c-0.114 0.006-0.228 0.011-0.342 0.014 0.114-0.004 0.228-0.008 0.342-0.014z"></path>
<path d="M16 26.125c0.147 0 0.293-0.002 0.439-0.006-0.146 0.004-0.292 0.006-0.439 0.006z"></path>
<path d="M16.846 23.85c0.024-0.001 0.049-0.003 0.073-0.004-0.024 0.002-0.049 0.003-0.073 0.004z"></path>
<path d="M16.409 23.869c0.034-0.001 0.067-0.002 0.101-0.003-0.034 0.001-0.067 0.003-0.101 0.003z"></path>
<path d="M27.427 20.256c-0.411-0.466-1.122-0.51-1.588-0.099-2.27 2.004-5.083 3.254-8.063 3.612 0.013 0.727 0.040 1.484 0.086 2.255 3.499-0.382 6.806-1.832 9.466-4.18 0.466-0.411 0.51-1.122 0.099-1.588z"></path>
<path d="M17.859 26.023c-0.144 0.016-0.288 0.029-0.433 0.041 0.145-0.012 0.289-0.026 0.433-0.041z"></path>
<path d="M17.359 26.070c-0.122 0.010-0.244 0.018-0.367 0.025 0.122-0.007 0.245-0.015 0.367-0.025z"></path>
</symbol>

<symbol id="icon-request-sent" viewBox="0 0 32 32">
<path d="M16 0c-8.838 0-16 7.162-16 16s7.162 16 16 16 16-7.163 16-16-7.163-16-16-16zM23.863 10.969l-2.625 12.369c-0.181 0.881-0.712 1.087-1.45 0.681l-4-2.956-1.919 1.869c-0.225 0.219-0.4 0.4-0.8 0.4-0.519 0-0.431-0.194-0.606-0.688l-1.363-4.475-3.956-1.231c-0.856-0.262-0.862-0.85 0.194-1.269l15.412-5.95c0.7-0.319 1.381 0.169 1.113 1.25z"></path>
</symbol>

<symbol id="icon-request-receive" viewBox="0 0 32 32">
<path d="M16 2c8.837 0 16 7.163 16 16 0 6.025-3.331 11.271-8.25 14h-15.499c-4.92-2.729-8.25-7.975-8.25-14 0-8.837 7.163-16 16-16zM25.060 27.060c2.42-2.42 3.753-5.637 3.753-9.060h-2.813v-2h2.657c-0.219-1.406-0.668-2.755-1.33-4h-3.327v-2h2.009c-0.295-0.368-0.611-0.722-0.949-1.060-1.444-1.444-3.173-2.501-5.060-3.119v2.178h-2v-2.658c-0.656-0.102-1.324-0.155-2-0.155s-1.344 0.053-2 0.155v2.658h-2v-2.178c-1.887 0.617-3.615 1.674-5.060 3.119-0.338 0.338-0.654 0.692-0.949 1.060h2.009v2h-3.327c-0.662 1.245-1.111 2.594-1.33 4h2.657v2h-2.813c0 3.422 1.333 6.64 3.753 9.060 0.335 0.335 0.685 0.648 1.049 0.94h6.011l1.143-16h1.714l1.143 16h6.011c0.364-0.292 0.714-0.606 1.049-0.94z"></path>
</symbol>

<!-- /Navbar -->
<!-- Alerts -->
<symbol id="icon-info" viewBox="0 0 32 32">
<path d="M14 9.5c0-0.825 0.675-1.5 1.5-1.5h1c0.825 0 1.5 0.675 1.5 1.5v1c0 0.825-0.675 1.5-1.5 1.5h-1c-0.825 0-1.5-0.675-1.5-1.5v-1z"></path>
<path d="M20 24h-8v-2h2v-6h-2v-2h6v8h2z"></path>
<path d="M16 0c-8.837 0-16 7.163-16 16s7.163 16 16 16 16-7.163 16-16-7.163-16-16-16zM16 29c-7.18 0-13-5.82-13-13s5.82-13 13-13 13 5.82 13 13-5.82 13-13 13z"></path>
</symbol>

<symbol id="icon-success" viewBox="0 0 32 32">
<path d="M27 4l-15 15-7-7-5 5 12 12 20-20z"></path>
</symbol>

<symbol id="icon-failure" viewBox="0 0 32 32">
<path d="M31.708 25.708c-0-0-0-0-0-0l-9.708-9.708 9.708-9.708c0-0 0-0 0-0 0.105-0.105 0.18-0.227 0.229-0.357 0.133-0.356 0.057-0.771-0.229-1.057l-4.586-4.586c-0.286-0.286-0.702-0.361-1.057-0.229-0.13 0.048-0.252 0.124-0.357 0.228 0 0-0 0-0 0l-9.708 9.708-9.708-9.708c-0-0-0-0-0-0-0.105-0.104-0.227-0.18-0.357-0.228-0.356-0.133-0.771-0.057-1.057 0.229l-4.586 4.586c-0.286 0.286-0.361 0.702-0.229 1.057 0.049 0.13 0.124 0.252 0.229 0.357 0 0 0 0 0 0l9.708 9.708-9.708 9.708c-0 0-0 0-0 0-0.104 0.105-0.18 0.227-0.229 0.357-0.133 0.355-0.057 0.771 0.229 1.057l4.586 4.586c0.286 0.286 0.702 0.361 1.057 0.229 0.13-0.049 0.252-0.124 0.357-0.229 0-0 0-0 0-0l9.708-9.708 9.708 9.708c0 0 0 0 0 0 0.105 0.105 0.227 0.18 0.357 0.229 0.356 0.133 0.771 0.057 1.057-0.229l4.586-4.586c0.286-0.286 0.362-0.702 0.229-1.057-0.049-0.13-0.124-0.252-0.229-0.357z"></path>
</symbol>
<!-- /Alerts -->

<!-- Forms -->
<symbol id="icon-cross" viewBox="0 0 32 32">
<path d="M31.708 25.708c-0-0-0-0-0-0l-9.708-9.708 9.708-9.708c0-0 0-0 0-0 0.105-0.105 0.18-0.227 0.229-0.357 0.133-0.356 0.057-0.771-0.229-1.057l-4.586-4.586c-0.286-0.286-0.702-0.361-1.057-0.229-0.13 0.048-0.252 0.124-0.357 0.228 0 0-0 0-0 0l-9.708 9.708-9.708-9.708c-0-0-0-0-0-0-0.105-0.104-0.227-0.18-0.357-0.228-0.356-0.133-0.771-0.057-1.057 0.229l-4.586 4.586c-0.286 0.286-0.361 0.702-0.229 1.057 0.049 0.13 0.124 0.252 0.229 0.357 0 0 0 0 0 0l9.708 9.708-9.708 9.708c-0 0-0 0-0 0-0.104 0.105-0.18 0.227-0.229 0.357-0.133 0.355-0.057 0.771 0.229 1.057l4.586 4.586c0.286 0.286 0.702 0.361 1.057 0.229 0.13-0.049 0.252-0.124 0.357-0.229 0-0 0-0 0-0l9.708-9.708 9.708 9.708c0 0 0 0 0 0 0.105 0.105 0.227 0.18 0.357 0.229 0.356 0.133 0.771 0.057 1.057-0.229l4.586-4.586c0.286-0.286 0.362-0.702 0.229-1.057-0.049-0.13-0.124-0.252-0.229-0.357z"></path>
</symbol>
<symbol id="icon-show" viewBox="0 0 20 20">
<path d="M0.2 10c1.86-3.592 5.548-6.004 9.8-6.004s7.94 2.412 9.771 5.943l0.029 0.061c-1.86 3.592-5.548 6.004-9.8 6.004s-7.94-2.412-9.771-5.943l-0.029-0.061zM10 14c2.209 0 4-1.791 4-4s-1.791-4-4-4v0c-2.209 0-4 1.791-4 4s1.791 4 4 4v0zM10 12c-1.105 0-2-0.895-2-2s0.895-2 2-2v0c1.105 0 2 0.895 2 2s-0.895 2-2 2v0z"></path>
</symbol>
<symbol id="icon-hide" viewBox="0 0 20 20">
<path d="M12.81 4.36l-1.77 1.78c-0.311-0.087-0.668-0.137-1.037-0.137-2.209 0-4 1.791-4 4 0 0.369 0.050 0.726 0.143 1.065l-0.007-0.028-2.76 2.75c-1.32-1-2.42-2.3-3.18-3.79 1.86-3.591 5.548-6.003 9.799-6.003 0.996 0 1.96 0.132 2.878 0.38l-0.077-0.018zM16.61 6.21c1.33 1 2.43 2.3 3.2 3.79-1.859 3.594-5.549 6.007-9.802 6.007-1.002 0-1.973-0.134-2.895-0.385l0.077 0.018 1.77-1.78c0.311 0.087 0.668 0.137 1.037 0.137 2.209 0 4-1.791 4-4 0-0.369-0.050-0.726-0.143-1.065l0.007 0.028 2.76-2.75zM16.36 2.22l1.42 1.42-14.14 14.14-1.42-1.42 14.14-14.14z"></path>
</symbol>
<!-- /Forms -->

<!-- Chat Panel -->
<symbol id="icon-dot"  viewBox="8 8 4 4">
<path d="M7.8 10c0 1.215 0.986 2.2 2.201 2.2s2.199-0.986 2.199-2.2c0-1.215-0.984-2.199-2.199-2.199s-2.201 0.984-2.201 2.199z"></path>
</symbol>

<symbol id="icon-mark-read"  viewBox="0 0 100 100">
<path d="M13.995,26.46c-0.314-0.294-0.601-0.299-0.86-0.022l0.113,0.551c0.09,0.085,0.322,0.152,0.694,0.203  C14.054,27.074,14.072,26.826,13.995,26.46z M21.283,25.122c0.89-0.952,0.797-1.932-0.281-2.936  c-1.034-0.961-1.992-0.966-2.882-0.014c-0.889,0.955-0.819,1.912,0.214,2.875C19.413,26.052,20.394,26.079,21.283,25.122z   M72.596,80.654c-0.406-0.379-1.004-0.638-1.795-0.78c0.753-1.527,1.25-2.553,1.483-3.074c1.64,0.489,2.997,0.159,4.074-0.992  c1.034-1.113,1.312-2.265,0.83-3.458c2.07,1.109,3.639,1.089,4.717-0.062c0.48-0.515,0.715-1.263,0.702-2.239  c-0.015-0.978-0.398-1.82-1.161-2.533c-0.315-0.293-0.653-0.516-1.016-0.668c-0.361-0.151-0.568-0.248-0.611-0.289  c-0.134-0.125-0.059-0.431,0.224-0.909c0.337-0.725,0.511-1.229,0.526-1.515c1.872,0.334,3.271,0.006,4.195-0.987  c0.704-0.756,1.017-1.724,0.948-2.906c-0.073-1.182-0.586-2.213-1.523-3.09c-0.494-0.462-1.225-0.848-2.198-1.157  c0.088-0.812,0.193-1.42,0.316-1.823c1.946,0.704,3.459,0.476,4.531-0.677c0.632-0.675,0.932-1.582,0.905-2.724  c-0.029-1.137-0.515-2.147-1.458-3.026c-0.535-0.501-1.097-0.803-1.681-0.9c0.344-1.537,0.42-2.654,0.23-3.351  c1.553,0.406,2.678,0.233,3.381-0.522c0.336-0.358,0.513-0.974,0.531-1.85c0.018-0.872-0.286-1.604-0.915-2.188  c-0.405-0.379-1.045-0.639-1.914-0.782c-0.872-0.146-1.588,0.08-2.144,0.675c-0.334,0.36-0.521,0.923-0.571,1.695  c-1.42-0.892-2.222-1.368-2.424-1.438c-0.054-0.211-0.032-0.852,0.069-1.98c1.536,0.691,2.754,0.561,3.644-0.395  c1.333-1.429,1.215-2.877-0.357-4.341c-1.614-1.508-3.089-1.543-4.425-0.115c-0.443,0.479-0.672,1.081-0.683,1.814  c-0.895-0.392-1.519-0.711-1.872-0.965c0.072-0.974,0.051-1.809-0.055-2.504c1.357,0.526,2.464,0.33,3.316-0.584  c1.22-1.313,1.067-2.679-0.459-4.102c-1.479-1.382-2.831-1.417-4.055-0.104c-0.371,0.395-0.569,0.878-0.595,1.446  c-1.078-0.557-1.89-0.944-2.444-1.162c0.186-1.906-0.395-3.49-1.741-4.744c-1.032-0.963-2.264-1.441-3.692-1.437  c0.32-1.785-0.016-3.136-1.003-4.056c-1.661-1.55-3.195-1.567-4.603-0.058c-0.073,0.08-0.23,0.29-0.461,0.63  c-0.232,0.337-0.404,0.568-0.519,0.688c-1.326-0.645-2.368-1.058-3.12-1.239c0.142-1.504-0.281-2.715-1.268-3.636  c-1.752-1.631-3.368-1.652-4.851-0.063c-0.48,0.518-0.737,1.242-0.771,2.175c-1.767-1.347-3.428-1.634-4.987-0.86  c1.116-1.559,1.116-2.862-0.006-3.908c-1.214-1.129-2.319-1.157-3.318-0.084c-1.04,1.111-0.953,2.232,0.26,3.364  c0.675,0.627,1.494,0.873,2.462,0.734l-1.666,2.459c-1.116-0.15-1.985-0.253-2.604-0.31c0.223-1.5-0.114-2.668-1.01-3.505  c-0.54-0.502-1.252-0.796-2.141-0.882c-0.884-0.081-1.606,0.174-2.161,0.769c-0.443,0.478-0.656,1.153-0.633,2.03  c0.023,0.876,0.37,1.627,1.044,2.255c0.404,0.375,1.001,0.636,1.791,0.777c-0.414,0.803-0.763,1.406-1.053,1.805  c-0.827-0.103-1.443-0.161-1.855-0.17c0.179-1.542-0.181-2.732-1.078-3.57c-0.584-0.543-1.298-0.855-2.146-0.939  c-0.846-0.082-1.563,0.194-2.157,0.83c-0.481,0.516-0.706,1.162-0.67,1.935c0.009,0.98,0.354,1.779,1.026,2.409  c0.313,0.292,0.663,0.506,1.043,0.638c0.379,0.13,0.594,0.217,0.639,0.261c0.134,0.124,0.073,0.365-0.176,0.727  c-0.32,0.522-0.489,0.883-0.51,1.086c-0.664-0.099-1.486-0.161-2.468-0.186c0.089-1.178,0.108-1.829,0.055-1.952  c-0.046-0.49-0.341-0.986-0.878-1.488c-1.435-1.34-2.748-1.374-3.93-0.103c-1.147,1.231-1.006,2.518,0.429,3.857  c0.583,0.543,1.179,0.804,1.792,0.779c-0.598,1.45-1.09,2.475-1.48,3.074c-1.677-0.451-3.018-0.14-4.021,0.935  c-0.852,0.915-1.122,2.146-0.809,3.701c-1.847-1.349-3.4-1.349-4.658,0.002c-0.517,0.556-0.768,1.272-0.744,2.147  c0.021,0.875,0.419,1.667,1.181,2.378c0.537,0.502,1.12,0.825,1.748,0.962c-0.037,0.04-0.238,0.524-0.598,1.449  c-0.273,0.563-0.322,1.113-0.149,1.646c-1.722-0.493-3.064-0.223-4.028,0.81c-0.594,0.636-0.86,1.483-0.796,2.543  c0.059,1.061,0.494,1.966,1.302,2.721c0.133,0.125,0.396,0.293,0.784,0.506c0.39,0.214,0.629,0.361,0.717,0.447  c0.135,0.124,0.129,0.491-0.016,1.097c-0.205,0.851-0.313,1.418-0.329,1.701c-1.476-0.485-2.677-0.229-3.604,0.761  c-0.443,0.479-0.668,1.214-0.676,2.21c-0.005,0.998,0.373,1.853,1.135,2.562c0.855,0.797,1.906,1.107,3.157,0.938  c-1.592,2.157-1.466,4.09,0.375,5.808c0.764,0.711,1.681,1.122,2.753,1.229c-0.974,2.215-0.674,4.055,0.899,5.519  c0.805,0.754,1.948,1.148,3.422,1.188c-0.906,2.05-0.64,3.746,0.796,5.086c0.762,0.713,1.659,1.101,2.687,1.168  c1.028,0.068,1.893-0.276,2.597-1.028c0.89-0.956,1.078-2.193,0.563-3.712c1.011,0.72,1.769,1.165,2.275,1.342  c-0.446,1.737-0.604,2.853-0.476,3.343c-1.702-0.694-2.995-0.563-3.886,0.388c-0.519,0.558-0.743,1.314-0.671,2.273  c0.072,0.958,0.444,1.751,1.12,2.379c0.583,0.543,1.357,0.838,2.321,0.885c0.964,0.044,1.727-0.23,2.281-0.825  c0.223-0.241,0.451-0.843,0.684-1.816l1.546,0.773c0.559,0.3,1.124,0.414,1.69,0.352c-0.739,1.686-0.39,3.202,1.047,4.542  c0.626,0.584,1.553,0.944,2.771,1.078c1.218,0.133,2.159-0.158,2.826-0.873c0.781-0.834,1.047-1.663,0.806-2.482  c1.001,0.638,1.906,0.925,2.718,0.864c-0.468,1.939-0.118,3.456,1.047,4.546c0.719,0.668,1.615,1.037,2.684,1.105  c1.07,0.067,1.937-0.254,2.603-0.97c0.334-0.357,0.623-0.982,0.86-1.87c2.562,1.123,4.544,0.932,5.955-0.579  c0.223-0.237,0.539-0.757,0.953-1.561c1.445,0.16,2.456,0.248,3.025,0.263c-0.44,1.369-0.188,2.496,0.756,3.373  c0.493,0.463,1.142,0.711,1.939,0.754c0.804,0.041,1.441-0.196,1.926-0.713c0.408-0.439,0.582-1.056,0.526-1.849  c-0.056-0.796-0.354-1.442-0.89-1.944c-0.405-0.377-1.024-0.659-1.858-0.843c0.645-0.959,1.003-1.661,1.084-2.107  c0.289,0.048,0.766,0.098,1.427,0.157c0.655,0.059,1.109,0.091,1.354,0.098c-0.416,1.168-0.155,2.193,0.788,3.072  c1.347,1.255,2.556,1.309,3.634,0.155C74.077,83.113,73.94,81.91,72.596,80.654z M12.496,35.088  c-0.987-0.922-1.873-0.963-2.649-0.129c-0.817,0.873-0.73,1.772,0.258,2.694c0.943,0.876,1.822,0.88,2.636,0.005  C13.521,36.824,13.438,35.968,12.496,35.088z M10.283,44.614c-0.988-0.92-1.869-0.961-2.647-0.128  c-0.815,0.873-0.729,1.768,0.259,2.69c0.943,0.879,1.82,0.883,2.636,0.008C11.308,46.35,11.227,45.491,10.283,44.614z M49.538,9.129  c0.133,0.125,0.437,0.206,0.911,0.237c0.471,0.032,0.803-0.048,0.988-0.248c0.149-0.158,0.232-0.451,0.251-0.878  c0.021-0.427-0.102-0.768-0.375-1.019c-0.176-0.165-0.505-0.264-0.976-0.299c-0.474-0.032-0.803,0.052-0.988,0.25  c-0.149,0.159-0.221,0.461-0.217,0.909C49.132,8.529,49.269,8.878,49.538,9.129z M6.477,54.771l-0.444,0.475  c0.09,0.532,0.206,0.861,0.341,0.987c0.088,0.083,0.401,0.152,0.939,0.206l0.445-0.476c-0.092-0.532-0.183-0.841-0.271-0.923  C7.35,54.915,7.016,54.823,6.477,54.771z M11.739,61.011c-0.809-0.754-1.528-0.793-2.158-0.118c-0.67,0.716-0.598,1.45,0.211,2.202  c0.807,0.755,1.547,0.773,2.213,0.059C12.634,62.477,12.544,61.764,11.739,61.011z M59.263,12.74  c0.853,0.796,1.652,0.795,2.394,0.001c0.703-0.757,0.625-1.532-0.224-2.327c-0.901-0.835-1.698-0.878-2.401-0.122  C58.288,11.087,58.368,11.902,59.263,12.74z M15.71,67.279c-0.852-0.799-1.65-0.799-2.39-0.002c-0.741,0.795-0.684,1.59,0.169,2.384  c0.898,0.836,1.717,0.859,2.457,0.062C16.685,68.931,16.609,68.117,15.71,67.279z M69.834,15.577  c0.312,0.292,0.646,0.384,1.008,0.27l0.387-0.417c0.124-0.403,0.031-0.752-0.285-1.045c-0.27-0.25-0.599-0.301-0.991-0.149  l-0.392,0.418C69.476,15.019,69.564,15.326,69.834,15.577z M19.607,74.032c-0.223-0.209-0.582-0.34-1.08-0.396  c-0.494-0.052-0.852,0.041-1.077,0.278c-0.663,0.714-0.595,1.452,0.214,2.204c0.223,0.211,0.571,0.328,1.044,0.36  c0.474,0.034,0.842-0.089,1.101-0.364c0.184-0.2,0.265-0.536,0.241-1.006C20.024,74.643,19.877,74.282,19.607,74.032z M72.763,23.1  c0.406,0.376,0.949,0.605,1.628,0.684c0.684,0.077,1.244-0.124,1.694-0.599c0.329-0.357,0.506-0.882,0.52-1.572  c0.017-0.691-0.244-1.29-0.785-1.792c-0.491-0.46-1.086-0.7-1.786-0.717c-0.695-0.019-1.247,0.192-1.654,0.629  c-0.298,0.317-0.453,0.821-0.47,1.512C71.896,21.938,72.179,22.554,72.763,23.1z M33.752,83.432  c-1.032-0.963-1.993-0.968-2.884-0.015c-0.85,0.916-0.761,1.853,0.271,2.816c1.078,1.004,2.042,1.051,2.894,0.134  C34.925,85.414,34.828,84.437,33.752,83.432z M44,86.748c-0.448-0.416-1.041-0.636-1.779-0.655s-1.273,0.149-1.606,0.509  c-0.296,0.316-0.417,0.852-0.368,1.607c0.054,0.754,0.304,1.34,0.753,1.759c0.36,0.334,0.909,0.531,1.649,0.592  c0.744,0.059,1.298-0.109,1.668-0.506c0.3-0.317,0.431-0.843,0.401-1.577C44.688,87.743,44.45,87.168,44,86.748z M88.639,48.597  c0.986,0.919,1.87,0.963,2.646,0.131c0.814-0.877,0.729-1.773-0.257-2.694c-0.944-0.879-1.821-0.882-2.638-0.007  C87.613,46.862,87.697,47.716,88.639,48.597z M53.505,90.595c-0.809-0.752-1.527-0.791-2.157-0.114  c-0.667,0.713-0.598,1.448,0.211,2.202c0.763,0.711,1.479,0.709,2.145-0.005C54.335,92.001,54.268,91.31,53.505,90.595z   M85.897,58.962c0.535,0.502,1.203,0.775,2.007,0.816c0.802,0.041,1.441-0.196,1.926-0.717c0.405-0.434,0.582-1.05,0.526-1.847  c-0.061-0.795-0.378-1.463-0.961-2.007c-0.494-0.461-1.141-0.709-1.941-0.752c-0.802-0.039-1.425,0.177-1.868,0.651  C84.4,56.381,84.502,57.665,85.897,58.962z M60.267,86.987c-0.493-0.461-1.079-0.689-1.75-0.688  c-0.677,0.004-1.217,0.224-1.622,0.662c-0.296,0.318-0.464,0.813-0.502,1.479c-0.037,0.671,0.232,1.278,0.818,1.825  c0.403,0.375,0.955,0.612,1.663,0.712c0.701,0.101,1.278-0.089,1.722-0.565c0.335-0.357,0.509-0.881,0.524-1.573  C61.135,88.148,60.853,87.532,60.267,86.987z M94.218,54.357c0.07-0.08,0.09-0.325,0.052-0.732c-0.315-0.293-0.6-0.3-0.86-0.021  l-0.007,0.547C93.536,54.277,93.808,54.347,94.218,54.357z M83.104,66.277c-0.05,0.771,0.22,1.429,0.801,1.976  c0.405,0.373,0.961,0.612,1.664,0.714c0.702,0.099,1.297-0.11,1.779-0.627c1-1.071,0.869-2.196-0.384-3.368  c-0.493-0.459-1.079-0.689-1.753-0.688c-0.675,0.005-1.196,0.203-1.567,0.604C83.312,65.243,83.133,65.707,83.104,66.277z   M78.399,77.936c-1.078-1.007-2.061-1.03-2.95-0.078c-0.852,0.914-0.741,1.872,0.338,2.879c1.032,0.963,1.975,0.987,2.83,0.071  C79.507,79.855,79.432,78.896,78.399,77.936z M91.83,63.939c0.069-0.079,0.112-0.302,0.118-0.668  c-0.314-0.295-0.604-0.302-0.861-0.021l-0.009,0.547C91.214,63.922,91.462,63.97,91.83,63.939z M83.521,75.686  c-0.581-0.014-0.881,0-0.918,0.038c-0.111,0.119-0.105,0.427,0.028,0.918c0.423,0.171,0.752,0.223,0.991,0.146  C83.711,76.423,83.677,76.059,83.521,75.686z"/>
<path d="M7.8 10c0 1.215 0.986 2.2 2.201 2.2s2.199-0.986 2.199-2.2c0-1.215-0.984-2.199-2.199-2.199s-2.201 0.984-2.201 2.199z"></path>
</symbol>

<symbol id="icon-mark-unread"  viewBox="0 0 100 100">
<path d="M13.995,26.46c-0.314-0.294-0.601-0.299-0.86-0.022l0.113,0.551c0.09,0.085,0.322,0.152,0.694,0.203  C14.054,27.074,14.072,26.826,13.995,26.46z M21.283,25.122c0.89-0.952,0.797-1.932-0.281-2.936  c-1.034-0.961-1.992-0.966-2.882-0.014c-0.889,0.955-0.819,1.912,0.214,2.875C19.413,26.052,20.394,26.079,21.283,25.122z   M72.596,80.654c-0.406-0.379-1.004-0.638-1.795-0.78c0.753-1.527,1.25-2.553,1.483-3.074c1.64,0.489,2.997,0.159,4.074-0.992  c1.034-1.113,1.312-2.265,0.83-3.458c2.07,1.109,3.639,1.089,4.717-0.062c0.48-0.515,0.715-1.263,0.702-2.239  c-0.015-0.978-0.398-1.82-1.161-2.533c-0.315-0.293-0.653-0.516-1.016-0.668c-0.361-0.151-0.568-0.248-0.611-0.289  c-0.134-0.125-0.059-0.431,0.224-0.909c0.337-0.725,0.511-1.229,0.526-1.515c1.872,0.334,3.271,0.006,4.195-0.987  c0.704-0.756,1.017-1.724,0.948-2.906c-0.073-1.182-0.586-2.213-1.523-3.09c-0.494-0.462-1.225-0.848-2.198-1.157  c0.088-0.812,0.193-1.42,0.316-1.823c1.946,0.704,3.459,0.476,4.531-0.677c0.632-0.675,0.932-1.582,0.905-2.724  c-0.029-1.137-0.515-2.147-1.458-3.026c-0.535-0.501-1.097-0.803-1.681-0.9c0.344-1.537,0.42-2.654,0.23-3.351  c1.553,0.406,2.678,0.233,3.381-0.522c0.336-0.358,0.513-0.974,0.531-1.85c0.018-0.872-0.286-1.604-0.915-2.188  c-0.405-0.379-1.045-0.639-1.914-0.782c-0.872-0.146-1.588,0.08-2.144,0.675c-0.334,0.36-0.521,0.923-0.571,1.695  c-1.42-0.892-2.222-1.368-2.424-1.438c-0.054-0.211-0.032-0.852,0.069-1.98c1.536,0.691,2.754,0.561,3.644-0.395  c1.333-1.429,1.215-2.877-0.357-4.341c-1.614-1.508-3.089-1.543-4.425-0.115c-0.443,0.479-0.672,1.081-0.683,1.814  c-0.895-0.392-1.519-0.711-1.872-0.965c0.072-0.974,0.051-1.809-0.055-2.504c1.357,0.526,2.464,0.33,3.316-0.584  c1.22-1.313,1.067-2.679-0.459-4.102c-1.479-1.382-2.831-1.417-4.055-0.104c-0.371,0.395-0.569,0.878-0.595,1.446  c-1.078-0.557-1.89-0.944-2.444-1.162c0.186-1.906-0.395-3.49-1.741-4.744c-1.032-0.963-2.264-1.441-3.692-1.437  c0.32-1.785-0.016-3.136-1.003-4.056c-1.661-1.55-3.195-1.567-4.603-0.058c-0.073,0.08-0.23,0.29-0.461,0.63  c-0.232,0.337-0.404,0.568-0.519,0.688c-1.326-0.645-2.368-1.058-3.12-1.239c0.142-1.504-0.281-2.715-1.268-3.636  c-1.752-1.631-3.368-1.652-4.851-0.063c-0.48,0.518-0.737,1.242-0.771,2.175c-1.767-1.347-3.428-1.634-4.987-0.86  c1.116-1.559,1.116-2.862-0.006-3.908c-1.214-1.129-2.319-1.157-3.318-0.084c-1.04,1.111-0.953,2.232,0.26,3.364  c0.675,0.627,1.494,0.873,2.462,0.734l-1.666,2.459c-1.116-0.15-1.985-0.253-2.604-0.31c0.223-1.5-0.114-2.668-1.01-3.505  c-0.54-0.502-1.252-0.796-2.141-0.882c-0.884-0.081-1.606,0.174-2.161,0.769c-0.443,0.478-0.656,1.153-0.633,2.03  c0.023,0.876,0.37,1.627,1.044,2.255c0.404,0.375,1.001,0.636,1.791,0.777c-0.414,0.803-0.763,1.406-1.053,1.805  c-0.827-0.103-1.443-0.161-1.855-0.17c0.179-1.542-0.181-2.732-1.078-3.57c-0.584-0.543-1.298-0.855-2.146-0.939  c-0.846-0.082-1.563,0.194-2.157,0.83c-0.481,0.516-0.706,1.162-0.67,1.935c0.009,0.98,0.354,1.779,1.026,2.409  c0.313,0.292,0.663,0.506,1.043,0.638c0.379,0.13,0.594,0.217,0.639,0.261c0.134,0.124,0.073,0.365-0.176,0.727  c-0.32,0.522-0.489,0.883-0.51,1.086c-0.664-0.099-1.486-0.161-2.468-0.186c0.089-1.178,0.108-1.829,0.055-1.952  c-0.046-0.49-0.341-0.986-0.878-1.488c-1.435-1.34-2.748-1.374-3.93-0.103c-1.147,1.231-1.006,2.518,0.429,3.857  c0.583,0.543,1.179,0.804,1.792,0.779c-0.598,1.45-1.09,2.475-1.48,3.074c-1.677-0.451-3.018-0.14-4.021,0.935  c-0.852,0.915-1.122,2.146-0.809,3.701c-1.847-1.349-3.4-1.349-4.658,0.002c-0.517,0.556-0.768,1.272-0.744,2.147  c0.021,0.875,0.419,1.667,1.181,2.378c0.537,0.502,1.12,0.825,1.748,0.962c-0.037,0.04-0.238,0.524-0.598,1.449  c-0.273,0.563-0.322,1.113-0.149,1.646c-1.722-0.493-3.064-0.223-4.028,0.81c-0.594,0.636-0.86,1.483-0.796,2.543  c0.059,1.061,0.494,1.966,1.302,2.721c0.133,0.125,0.396,0.293,0.784,0.506c0.39,0.214,0.629,0.361,0.717,0.447  c0.135,0.124,0.129,0.491-0.016,1.097c-0.205,0.851-0.313,1.418-0.329,1.701c-1.476-0.485-2.677-0.229-3.604,0.761  c-0.443,0.479-0.668,1.214-0.676,2.21c-0.005,0.998,0.373,1.853,1.135,2.562c0.855,0.797,1.906,1.107,3.157,0.938  c-1.592,2.157-1.466,4.09,0.375,5.808c0.764,0.711,1.681,1.122,2.753,1.229c-0.974,2.215-0.674,4.055,0.899,5.519  c0.805,0.754,1.948,1.148,3.422,1.188c-0.906,2.05-0.64,3.746,0.796,5.086c0.762,0.713,1.659,1.101,2.687,1.168  c1.028,0.068,1.893-0.276,2.597-1.028c0.89-0.956,1.078-2.193,0.563-3.712c1.011,0.72,1.769,1.165,2.275,1.342  c-0.446,1.737-0.604,2.853-0.476,3.343c-1.702-0.694-2.995-0.563-3.886,0.388c-0.519,0.558-0.743,1.314-0.671,2.273  c0.072,0.958,0.444,1.751,1.12,2.379c0.583,0.543,1.357,0.838,2.321,0.885c0.964,0.044,1.727-0.23,2.281-0.825  c0.223-0.241,0.451-0.843,0.684-1.816l1.546,0.773c0.559,0.3,1.124,0.414,1.69,0.352c-0.739,1.686-0.39,3.202,1.047,4.542  c0.626,0.584,1.553,0.944,2.771,1.078c1.218,0.133,2.159-0.158,2.826-0.873c0.781-0.834,1.047-1.663,0.806-2.482  c1.001,0.638,1.906,0.925,2.718,0.864c-0.468,1.939-0.118,3.456,1.047,4.546c0.719,0.668,1.615,1.037,2.684,1.105  c1.07,0.067,1.937-0.254,2.603-0.97c0.334-0.357,0.623-0.982,0.86-1.87c2.562,1.123,4.544,0.932,5.955-0.579  c0.223-0.237,0.539-0.757,0.953-1.561c1.445,0.16,2.456,0.248,3.025,0.263c-0.44,1.369-0.188,2.496,0.756,3.373  c0.493,0.463,1.142,0.711,1.939,0.754c0.804,0.041,1.441-0.196,1.926-0.713c0.408-0.439,0.582-1.056,0.526-1.849  c-0.056-0.796-0.354-1.442-0.89-1.944c-0.405-0.377-1.024-0.659-1.858-0.843c0.645-0.959,1.003-1.661,1.084-2.107  c0.289,0.048,0.766,0.098,1.427,0.157c0.655,0.059,1.109,0.091,1.354,0.098c-0.416,1.168-0.155,2.193,0.788,3.072  c1.347,1.255,2.556,1.309,3.634,0.155C74.077,83.113,73.94,81.91,72.596,80.654z M12.496,35.088  c-0.987-0.922-1.873-0.963-2.649-0.129c-0.817,0.873-0.73,1.772,0.258,2.694c0.943,0.876,1.822,0.88,2.636,0.005  C13.521,36.824,13.438,35.968,12.496,35.088z M10.283,44.614c-0.988-0.92-1.869-0.961-2.647-0.128  c-0.815,0.873-0.729,1.768,0.259,2.69c0.943,0.879,1.82,0.883,2.636,0.008C11.308,46.35,11.227,45.491,10.283,44.614z M49.538,9.129  c0.133,0.125,0.437,0.206,0.911,0.237c0.471,0.032,0.803-0.048,0.988-0.248c0.149-0.158,0.232-0.451,0.251-0.878  c0.021-0.427-0.102-0.768-0.375-1.019c-0.176-0.165-0.505-0.264-0.976-0.299c-0.474-0.032-0.803,0.052-0.988,0.25  c-0.149,0.159-0.221,0.461-0.217,0.909C49.132,8.529,49.269,8.878,49.538,9.129z M6.477,54.771l-0.444,0.475  c0.09,0.532,0.206,0.861,0.341,0.987c0.088,0.083,0.401,0.152,0.939,0.206l0.445-0.476c-0.092-0.532-0.183-0.841-0.271-0.923  C7.35,54.915,7.016,54.823,6.477,54.771z M11.739,61.011c-0.809-0.754-1.528-0.793-2.158-0.118c-0.67,0.716-0.598,1.45,0.211,2.202  c0.807,0.755,1.547,0.773,2.213,0.059C12.634,62.477,12.544,61.764,11.739,61.011z M59.263,12.74  c0.853,0.796,1.652,0.795,2.394,0.001c0.703-0.757,0.625-1.532-0.224-2.327c-0.901-0.835-1.698-0.878-2.401-0.122  C58.288,11.087,58.368,11.902,59.263,12.74z M15.71,67.279c-0.852-0.799-1.65-0.799-2.39-0.002c-0.741,0.795-0.684,1.59,0.169,2.384  c0.898,0.836,1.717,0.859,2.457,0.062C16.685,68.931,16.609,68.117,15.71,67.279z M69.834,15.577  c0.312,0.292,0.646,0.384,1.008,0.27l0.387-0.417c0.124-0.403,0.031-0.752-0.285-1.045c-0.27-0.25-0.599-0.301-0.991-0.149  l-0.392,0.418C69.476,15.019,69.564,15.326,69.834,15.577z M19.607,74.032c-0.223-0.209-0.582-0.34-1.08-0.396  c-0.494-0.052-0.852,0.041-1.077,0.278c-0.663,0.714-0.595,1.452,0.214,2.204c0.223,0.211,0.571,0.328,1.044,0.36  c0.474,0.034,0.842-0.089,1.101-0.364c0.184-0.2,0.265-0.536,0.241-1.006C20.024,74.643,19.877,74.282,19.607,74.032z M72.763,23.1  c0.406,0.376,0.949,0.605,1.628,0.684c0.684,0.077,1.244-0.124,1.694-0.599c0.329-0.357,0.506-0.882,0.52-1.572  c0.017-0.691-0.244-1.29-0.785-1.792c-0.491-0.46-1.086-0.7-1.786-0.717c-0.695-0.019-1.247,0.192-1.654,0.629  c-0.298,0.317-0.453,0.821-0.47,1.512C71.896,21.938,72.179,22.554,72.763,23.1z M33.752,83.432  c-1.032-0.963-1.993-0.968-2.884-0.015c-0.85,0.916-0.761,1.853,0.271,2.816c1.078,1.004,2.042,1.051,2.894,0.134  C34.925,85.414,34.828,84.437,33.752,83.432z M44,86.748c-0.448-0.416-1.041-0.636-1.779-0.655s-1.273,0.149-1.606,0.509  c-0.296,0.316-0.417,0.852-0.368,1.607c0.054,0.754,0.304,1.34,0.753,1.759c0.36,0.334,0.909,0.531,1.649,0.592  c0.744,0.059,1.298-0.109,1.668-0.506c0.3-0.317,0.431-0.843,0.401-1.577C44.688,87.743,44.45,87.168,44,86.748z M88.639,48.597  c0.986,0.919,1.87,0.963,2.646,0.131c0.814-0.877,0.729-1.773-0.257-2.694c-0.944-0.879-1.821-0.882-2.638-0.007  C87.613,46.862,87.697,47.716,88.639,48.597z M53.505,90.595c-0.809-0.752-1.527-0.791-2.157-0.114  c-0.667,0.713-0.598,1.448,0.211,2.202c0.763,0.711,1.479,0.709,2.145-0.005C54.335,92.001,54.268,91.31,53.505,90.595z   M85.897,58.962c0.535,0.502,1.203,0.775,2.007,0.816c0.802,0.041,1.441-0.196,1.926-0.717c0.405-0.434,0.582-1.05,0.526-1.847  c-0.061-0.795-0.378-1.463-0.961-2.007c-0.494-0.461-1.141-0.709-1.941-0.752c-0.802-0.039-1.425,0.177-1.868,0.651  C84.4,56.381,84.502,57.665,85.897,58.962z M60.267,86.987c-0.493-0.461-1.079-0.689-1.75-0.688  c-0.677,0.004-1.217,0.224-1.622,0.662c-0.296,0.318-0.464,0.813-0.502,1.479c-0.037,0.671,0.232,1.278,0.818,1.825  c0.403,0.375,0.955,0.612,1.663,0.712c0.701,0.101,1.278-0.089,1.722-0.565c0.335-0.357,0.509-0.881,0.524-1.573  C61.135,88.148,60.853,87.532,60.267,86.987z M94.218,54.357c0.07-0.08,0.09-0.325,0.052-0.732c-0.315-0.293-0.6-0.3-0.86-0.021  l-0.007,0.547C93.536,54.277,93.808,54.347,94.218,54.357z M83.104,66.277c-0.05,0.771,0.22,1.429,0.801,1.976  c0.405,0.373,0.961,0.612,1.664,0.714c0.702,0.099,1.297-0.11,1.779-0.627c1-1.071,0.869-2.196-0.384-3.368  c-0.493-0.459-1.079-0.689-1.753-0.688c-0.675,0.005-1.196,0.203-1.567,0.604C83.312,65.243,83.133,65.707,83.104,66.277z   M78.399,77.936c-1.078-1.007-2.061-1.03-2.95-0.078c-0.852,0.914-0.741,1.872,0.338,2.879c1.032,0.963,1.975,0.987,2.83,0.071  C79.507,79.855,79.432,78.896,78.399,77.936z M91.83,63.939c0.069-0.079,0.112-0.302,0.118-0.668  c-0.314-0.295-0.604-0.302-0.861-0.021l-0.009,0.547C91.214,63.922,91.462,63.97,91.83,63.939z M83.521,75.686  c-0.581-0.014-0.881,0-0.918,0.038c-0.111,0.119-0.105,0.427,0.028,0.918c0.423,0.171,0.752,0.223,0.991,0.146  C83.711,76.423,83.677,76.059,83.521,75.686z"/>
<path d="M7.8 10c0 1.215 0.986 2.2 2.201 2.2s2.199-0.986 2.199-2.2c0-1.215-0.984-2.199-2.199-2.199s-2.201 0.984-2.201 2.199z"></path>
</symbol>

<symbol id="icon-pin-chat" viewBox="0 0 20 20">
<path d="M9.5 18.419C4.574 18.419.581 14.426.581 9.5S4.574.581 9.5.581s8.919 3.993 8.919 8.919-3.993 8.919-8.919 8.919zm2.121-5.708l-.082-2.99 1.647-1.963a1.583 1.583 0 0 0-.188-2.232l-.32-.269a1.58 1.58 0 0 0-2.231.203L8.803 7.42l-2.964.439a.282.282 0 0 0-.14.496l5.458 4.58c.186.157.47.019.464-.224zM5.62 13.994a.504.504 0 0 0 .688-.038l2.204-2.307-1.085-.91-1.889 2.571a.504.504 0 0 0 .082.684z"></path>
</symbol>

<symbol id="icon-unpin-chat" viewBox="0 0 1000 1000">
<g transform="translate(0.000000,511.000000) scale(0.100000,-0.100000)">
<path d="M1036.6,4983.2c-102.4-35.6-460.8-380.7-514.2-492c-40.1-84.6-44.5-213.7-8.9-282.7c35.6-69,8499.7-8537.5,8573.2-8577.6c77.9-40.1,204.8-40.1,296.1,2.2c40.1,20,162.5,126.9,273.8,240.4c227.1,233.8,273.8,329.5,227.1,478.6c-22.3,66.8-886,941.7-4272.1,4332.2C2655.1,3643,1341.6,4945.3,1279.3,4974.2C1174.7,5023.2,1150.2,5023.2,1036.6,4983.2z"/><path d="M6370.7,4920.8c-118-37.9-285-202.6-360.7-358.4c-98-200.4-133.6-351.8-133.6-592.2v-211.5l1386.9-1386.9L8648.1,987.1h193.7c247.1,0,389.6,31.2,587.7,124.7c340.6,160.3,478.6,438.6,374,756.9c-33.4,100.2-167,240.4-1487.1,1558.4C6998.5,4747.2,6858.2,4880.7,6758,4914.1C6635.6,4954.2,6482,4956.4,6370.7,4920.8z"/><path d="M5063.9,2901.6L4396,2233.8l1358-1358l1358-1358l672.3,672.3l674.5,674.5L7107.5,2216c-745.8,745.8-1358,1353.5-1364.7,1353.5C5736.2,3569.5,5431.2,3269,5063.9,2901.6z"/><path d="M1408.4,1844.2c-236-51.2-391.8-151.4-703.5-454.2l-285-278.3L1673.3-141.6L2926.7-1395l-928.3-928.3l-926.1-930.5l-472-732.4C54.9-4836.7,70.5-4812.2,126.1-4781c24.5,11.1,371.8,233.8,776.9,492l732.4,472l930.6,926.1l928.3,928.3l1246.7-1246.7L5987.8-4456l289.4,289.4c320.6,320.6,405.2,449.7,456.4,699c28.9,138,28.9,202.6-11.1,650.1l-44.5,498.7L4623.1-264.1L2568.3,1790.8l-487.5,42.3C1517.5,1884.3,1586.5,1882,1408.4,1844.2z"/>
</g>
</symbol>

<symbol id="icon-mute-notification" viewBox="0 0 20 20">
<path d="M11.52 9.206c0-1.4-.778-2.567-1.944-3.111v1.711L11.52 9.75v-.544zm1.945 0c0 .7-.156 1.4-.389 2.022l1.167 1.167c.544-.933.778-2.1.778-3.267 0-3.344-2.333-6.144-5.444-6.844v1.633c2.255.778 3.888 2.8 3.888 5.289zm-11.433-7L1.02 3.217l3.656 3.656H1.02v4.667h3.111l3.889 3.889v-5.211l3.344 3.344c-.544.389-1.089.7-1.789.933v1.633a6.64 6.64 0 0 0 2.878-1.4l1.556 1.556 1.011-1.011-7-7-5.988-6.067zm5.988.778L6.387 4.617 8.02 6.25V2.984z"></path>
</symbol>

<symbol id="icon-unmute-notification" viewBox="0 0 32 32">
<path d="M22.485 25.985c-0.384 0-0.768-0.146-1.061-0.439-0.586-0.586-0.586-1.535 0-2.121 4.094-4.094 4.094-10.755 0-14.849-0.586-0.586-0.586-1.536 0-2.121s1.536-0.586 2.121 0c2.55 2.55 3.954 5.94 3.954 9.546s-1.404 6.996-3.954 9.546c-0.293 0.293-0.677 0.439-1.061 0.439v0zM17.157 23.157c-0.384 0-0.768-0.146-1.061-0.439-0.586-0.586-0.586-1.535 0-2.121 2.534-2.534 2.534-6.658 0-9.192-0.586-0.586-0.586-1.536 0-2.121s1.535-0.586 2.121 0c3.704 3.704 3.704 9.731 0 13.435-0.293 0.293-0.677 0.439-1.061 0.439z"></path>
<path d="M13 30c-0.26 0-0.516-0.102-0.707-0.293l-7.707-7.707h-3.586c-0.552 0-1-0.448-1-1v-10c0-0.552 0.448-1 1-1h3.586l7.707-7.707c0.286-0.286 0.716-0.372 1.090-0.217s0.617 0.519 0.617 0.924v26c0 0.404-0.244 0.769-0.617 0.924-0.124 0.051-0.254 0.076-0.383 0.076z"></path>
</symbol>

<symbol id="icon-add-favourite" viewBox="0 0 32 32">
<path d="M32 12.408l-11.056-1.607-4.944-10.018-4.944 10.018-11.056 1.607 8 7.798-1.889 11.011 9.889-5.199 9.889 5.199-1.889-11.011 8-7.798z"></path>
</symbol>
<symbol id="icon-remove-favourite" viewBox="0 0 32 32">
<path d="M32 12.408l-11.056-1.607-4.944-10.018-4.944 10.018-11.056 1.607 8 7.798-1.889 11.011 9.889-5.199 9.889 5.199-1.889-11.011 8-7.798zM16 23.547l-6.983 3.671 1.334-7.776-5.65-5.507 7.808-1.134 3.492-7.075 3.492 7.075 7.807 1.134-5.65 5.507 1.334 7.776-6.983-3.671z"></path>
</symbol>


<symbol id="icon-delete" viewBox="0 0 32 32">
<path d="M4 10v20c0 1.1 0.9 2 2 2h18c1.1 0 2-0.9 2-2v-20h-22zM10 28h-2v-14h2v14zM14 28h-2v-14h2v14zM18 28h-2v-14h2v14zM22 28h-2v-14h2v14z"></path>
<path d="M26.5 4h-6.5v-2.5c0-0.825-0.675-1.5-1.5-1.5h-7c-0.825 0-1.5 0.675-1.5 1.5v2.5h-6.5c-0.825 0-1.5 0.675-1.5 1.5v2.5h26v-2.5c0-0.825-0.675-1.5-1.5-1.5zM18 4h-6v-1.975h6v1.975z"></path>
</symbol>
<!-- / Chat Panel -->

<!-- Chat Box -->
<symbol id="icon-drag" viewBox="0 0 20 20">
<path d="M19.799 5.165l-2.375-1.83c-0.135-0.093-0.324-0.176-0.521-0.237-0.198-0.061-0.403-0.098-0.567-0.098h-6.836l0.801 5h6.035c0.164 0 0.369-0.037 0.566-0.098s0.387-0.145 0.521-0.236l2.375-1.832c0.135-0.091 0.202-0.212 0.202-0.334s-0.067-0.243-0.201-0.335zM8.5 1h-1c-0.276 0-0.5 0.224-0.5 0.5v3.5h-3.336c-0.166 0-0.37 0.037-0.567 0.099-0.198 0.060-0.387 0.143-0.521 0.236l-2.375 1.83c-0.135 0.091-0.201 0.213-0.201 0.335s0.066 0.242 0.201 0.335l2.375 1.832c0.134 0.091 0.323 0.175 0.521 0.235s0.401 0.098 0.567 0.098h3.336v8.5c0 0.276 0.224 0.5 0.5 0.5h1c0.276 0 0.5-0.224 0.5-0.5v-17c0-0.276-0.224-0.5-0.5-0.5z"></path>
</symbol>

<symbol id="icon-back" viewBox="0 0 20 20">
<path d="M3.828 9l6.071-6.071-1.414-1.414-8.485 8.485 8.485 8.485 1.414-1.414-6.071-6.071h16.172v-2h-16.172z"></path>
</symbol>

<symbol id="icon-dots" viewBox="0 0 20 20">
<path d="M10.001 7.8c-1.215 0-2.201 0.985-2.201 2.2s0.986 2.2 2.201 2.2c1.215 0 2.199-0.985 2.199-2.2s-0.984-2.2-2.199-2.2zM10.001 5.2c1.215 0 2.199-0.986 2.199-2.2s-0.984-2.2-2.199-2.2c-1.215 0-2.201 0.985-2.201 2.2s0.986 2.2 2.201 2.2zM10.001 14.8c-1.215 0-2.201 0.985-2.201 2.2s0.986 2.2 2.201 2.2c1.215 0 2.199-0.985 2.199-2.2s-0.984-2.2-2.199-2.2z"></path>
</symbol>

<symbol id="icon-copy" viewBox="0 0 24 24">
<path d="M11 8c-0.828 0-1.58 0.337-2.121 0.879s-0.879 1.293-0.879 2.121v9c0 0.828 0.337 1.58 0.879 2.121s1.293 0.879 2.121 0.879h9c0.828 0 1.58-0.337 2.121-0.879s0.879-1.293 0.879-2.121v-9c0-0.828-0.337-1.58-0.879-2.121s-1.293-0.879-2.121-0.879zM11 10h9c0.276 0 0.525 0.111 0.707 0.293s0.293 0.431 0.293 0.707v9c0 0.276-0.111 0.525-0.293 0.707s-0.431 0.293-0.707 0.293h-9c-0.276 0-0.525-0.111-0.707-0.293s-0.293-0.431-0.293-0.707v-9c0-0.276 0.111-0.525 0.293-0.707s0.431-0.293 0.707-0.293zM5 14h-1c-0.276 0-0.525-0.111-0.707-0.293s-0.293-0.431-0.293-0.707v-9c0-0.276 0.111-0.525 0.293-0.707s0.431-0.293 0.707-0.293h9c0.276 0 0.525 0.111 0.707 0.293s0.293 0.431 0.293 0.707v1c0 0.552 0.448 1 1 1s1-0.448 1-1v-1c0-0.828-0.337-1.58-0.879-2.121s-1.293-0.879-2.121-0.879h-9c-0.828 0-1.58 0.337-2.121 0.879s-0.879 1.293-0.879 2.121v9c0 0.828 0.337 1.58 0.879 2.121s1.293 0.879 2.121 0.879h1c0.552 0 1-0.448 1-1s-0.448-1-1-1z"></path>
</symbol>

<symbol id="icon-edit" viewBox="0 0 24 24">
<path d="M3.95 16.7v3.4h3.4l9.8-9.9-3.4-3.4-9.8 9.9zm15.8-9.1c.4-.4.4-.9 0-1.3l-2.1-2.1c-.4-.4-.9-.4-1.3 0l-1.6 1.6 3.4 3.4 1.6-1.6z"></path>
</symbol>

<symbol id="icon-like" viewBox="0 0 28 28">
<path d="M26 9.312c0-4.391-2.969-5.313-5.469-5.313-2.328 0-4.953 2.516-5.766 3.484-0.375 0.453-1.156 0.453-1.531 0-0.812-0.969-3.437-3.484-5.766-3.484-2.5 0-5.469 0.922-5.469 5.313 0 2.859 2.891 5.516 2.922 5.547l9.078 8.75 9.063-8.734c0.047-0.047 2.938-2.703 2.938-5.563zM28 9.312c0 3.75-3.437 6.891-3.578 7.031l-9.734 9.375c-0.187 0.187-0.438 0.281-0.688 0.281s-0.5-0.094-0.688-0.281l-9.75-9.406c-0.125-0.109-3.563-3.25-3.563-7 0-4.578 2.797-7.313 7.469-7.313 2.734 0 5.297 2.156 6.531 3.375 1.234-1.219 3.797-3.375 6.531-3.375 4.672 0 7.469 2.734 7.469 7.313z"></path>
</symbol>

<symbol id="icon-unlike" viewBox="0 0 28 28">
<path d="M14 26c-0.25 0-0.5-0.094-0.688-0.281l-9.75-9.406c-0.125-0.109-3.563-3.25-3.563-7 0-4.578 2.797-7.313 7.469-7.313 2.734 0 5.297 2.156 6.531 3.375 1.234-1.219 3.797-3.375 6.531-3.375 4.672 0 7.469 2.734 7.469 7.313 0 3.75-3.437 6.891-3.578 7.031l-9.734 9.375c-0.187 0.187-0.438 0.281-0.688 0.281z"></path>
</symbol>

<symbol id="icon-reply" viewBox="0 0 20 20">
<path d="M15 17v-2.99c0-0.003 0-0.006 0-0.010 0-2.209-1.791-4-4-4 0 0-0 0-0 0h-3v5l-6-6 6-6v5h3c3.314 0 6 2.686 6 6v0 3h-2z"></path>
</symbol>

<symbol id="icon-sent" viewBox="0 0 20 20">
<path d="M0 11l2-2 5 5 11-11 2 2-13 13z"></path>
</symbol>

<symbol id="icon-delivered" viewBox="0 0 32 32">
<path d="M21.82 13.030l-1.002-1.002c-0.185-0.185-0.484-0.185-0.668 0l-6.014 6.013-2.859-2.882c-0.186-0.185-0.484-0.185-0.67 0l-1.002 1.003c-0.185 0.185-0.185 0.484 0 0.668l4.193 4.223c0.185 0.184 0.484 0.184 0.668 0l7.354-7.354c0.186-0.185 0.186-0.484 0-0.669zM16 3c-7.18 0-13 5.82-13 13s5.82 13 13 13 13-5.82 13-13-5.82-13-13-13zM16 26c-5.522 0-10-4.478-10-10 0-5.523 4.478-10 10-10 5.523 0 10 4.477 10 10 0 5.522-4.477 10-10 10z"></path>
</symbol>

<symbol id="icon-seen" viewBox="0 0 32 32">
<path d="M16 3c-7.18 0-13 5.82-13 13s5.82 13 13 13 13-5.82 13-13-5.82-13-13-13zM23.258 12.307l-9.486 9.485c-0.238 0.237-0.623 0.237-0.861 0l-0.191-0.191-0.001 0.001-5.219-5.256c-0.238-0.238-0.238-0.624 0-0.862l1.294-1.293c0.238-0.238 0.624-0.238 0.862 0l3.689 3.716 7.756-7.756c0.238-0.238 0.624-0.238 0.862 0l1.294 1.294c0.239 0.237 0.239 0.623 0.001 0.862z"></path>
</symbol>

<symbol id="icon-emoji" viewBox="0 0 32 32">
<path d="M16 32c8.837 0 16-7.163 16-16s-7.163-16-16-16-16 7.163-16 16 7.163 16 16 16zM16 3c7.18 0 13 5.82 13 13s-5.82 13-13 13-13-5.82-13-13 5.82-13 13-13zM16 18.711c3.623 0 7.070-0.963 10-2.654-0.455 5.576-4.785 9.942-10 9.942s-9.544-4.371-10-9.947c2.93 1.691 6.377 2.658 10 2.658zM8 11c0-1.657 0.895-3 2-3s2 1.343 2 3c0 1.657-0.895 3-2 3s-2-1.343-2-3zM20 11c0-1.657 0.895-3 2-3s2 1.343 2 3c0 1.657-0.895 3-2 3s-2-1.343-2-3z"></path>
</symbol>

<symbol id="icon-location" viewBox="0 0 24 24">
<path d="M22 10c0-2.761-1.12-5.263-2.929-7.071s-4.31-2.929-7.071-2.929-5.263 1.12-7.071 2.929-2.929 4.31-2.929 7.071c0 0.569 0.053 1.128 0.15 1.676 0.274 1.548 0.899 3.004 1.682 4.32 2.732 4.591 7.613 7.836 7.613 7.836 0.331 0.217 0.765 0.229 1.109 0 0 0 4.882-3.245 7.613-7.836 0.783-1.316 1.408-2.772 1.682-4.32 0.098-0.548 0.151-1.107 0.151-1.676zM20 10c0 0.444-0.041 0.887-0.119 1.328-0.221 1.25-0.737 2.478-1.432 3.646-1.912 3.214-5.036 5.747-6.369 6.74-1.398-0.916-4.588-3.477-6.53-6.74-0.695-1.168-1.211-2.396-1.432-3.646-0.077-0.441-0.118-0.884-0.118-1.328 0-2.209 0.894-4.208 2.343-5.657s3.448-2.343 5.657-2.343 4.208 0.894 5.657 2.343 2.343 3.448 2.343 5.657zM16 10c0-1.104-0.449-2.106-1.172-2.828s-1.724-1.172-2.828-1.172-2.106 0.449-2.828 1.172-1.172 1.724-1.172 2.828 0.449 2.106 1.172 2.828 1.724 1.172 2.828 1.172 2.106-0.449 2.828-1.172 1.172-1.724 1.172-2.828zM14 10c0 0.553-0.223 1.051-0.586 1.414s-0.861 0.586-1.414 0.586-1.051-0.223-1.414-0.586-0.586-0.861-0.586-1.414 0.223-1.051 0.586-1.414 0.861-0.586 1.414-0.586 1.051 0.223 1.414 0.586 0.586 0.861 0.586 1.414z"></path>
</symbol>

<symbol id="icon-attach" viewBox="0 0 20 20">
<path d="M5.602 19.8c-1.293 0-2.504-0.555-3.378-1.44-1.695-1.716-2.167-4.711 0.209-7.116 1.391-1.408 6.966-7.053 9.748-9.87 0.988-1 2.245-1.387 3.448-1.060 1.183 0.32 2.151 1.301 2.468 2.498 0.322 1.22-0.059 2.493-1.046 3.493l-9.323 9.44c-0.532 0.539-1.134 0.858-1.738 0.922-0.599 0.064-1.17-0.13-1.57-0.535-0.724-0.736-0.828-2.117 0.378-3.337l6.548-6.63c0.269-0.272 0.705-0.272 0.974 0s0.269 0.714 0 0.986l-6.549 6.631c-0.566 0.572-0.618 1.119-0.377 1.364 0.106 0.106 0.266 0.155 0.451 0.134 0.283-0.029 0.606-0.216 0.909-0.521l9.323-9.439c0.64-0.648 0.885-1.41 0.69-2.145-0.192-0.725-0.778-1.318-1.493-1.513-0.726-0.197-1.48 0.052-2.12 0.7-2.782 2.818-8.356 8.462-9.748 9.87-1.816 1.839-1.381 3.956-0.209 5.143 1.173 1.187 3.262 1.629 5.079-0.212l9.748-9.87c0.269-0.272 0.705-0.272 0.974 0s0.269 0.714 0 0.987l-9.748 9.87c-1.149 1.162-2.436 1.65-3.648 1.65z"></path>
</symbol>

<symbol id="icon-camera" viewBox="0 0 24 24">
<path d="M24 19v-11c0-0.828-0.337-1.58-0.879-2.121s-1.293-0.879-2.121-0.879h-3.465l-1.703-2.555c-0.182-0.27-0.486-0.445-0.832-0.445h-6c-0.326 0.002-0.64 0.158-0.832 0.445l-1.703 2.555h-3.465c-0.828 0-1.58 0.337-2.121 0.879s-0.879 1.293-0.879 2.121v11c0 0.828 0.337 1.58 0.879 2.121s1.293 0.879 2.121 0.879h18c0.828 0 1.58-0.337 2.121-0.879s0.879-1.293 0.879-2.121zM22 19c0 0.276-0.111 0.525-0.293 0.707s-0.431 0.293-0.707 0.293h-18c-0.276 0-0.525-0.111-0.707-0.293s-0.293-0.431-0.293-0.707v-11c0-0.276 0.111-0.525 0.293-0.707s0.431-0.293 0.707-0.293h4c0.346 0 0.65-0.175 0.832-0.445l1.703-2.555h4.93l1.703 2.555c0.192 0.287 0.506 0.443 0.832 0.445h4c0.276 0 0.525 0.111 0.707 0.293s0.293 0.431 0.293 0.707zM17 13c0-1.38-0.561-2.632-1.464-3.536s-2.156-1.464-3.536-1.464-2.632 0.561-3.536 1.464-1.464 2.156-1.464 3.536 0.561 2.632 1.464 3.536 2.156 1.464 3.536 1.464 2.632-0.561 3.536-1.464 1.464-2.156 1.464-3.536zM15 13c0 0.829-0.335 1.577-0.879 2.121s-1.292 0.879-2.121 0.879-1.577-0.335-2.121-0.879-0.879-1.292-0.879-2.121 0.335-1.577 0.879-2.121 1.292-0.879 2.121-0.879 1.577 0.335 2.121 0.879 0.879 1.292 0.879 2.121z"></path>
</symbol>

<symbol id="icon-send" viewBox="0 0 20 20">
<path d="M0 0l20 10-20 10v-20zM0 8v4l10-2-10-2z"></path>
</symbol>
<!-- /Chat Box -->

<!-- Chat Profile -->
<symbol id="icon-profile" viewBox="0 0 20 20">
<path d="M10 20c-5.523 0-10-4.477-10-10s4.477-10 10-10v0c5.523 0 10 4.477 10 10s-4.477 10-10 10v0zM7 6v2c0 1.657 1.343 3 3 3s3-1.343 3-3v0-2c0-1.657-1.343-3-3-3s-3 1.343-3 3v0zM3.35 14.44c1.456 2.155 3.89 3.553 6.65 3.553s5.194-1.398 6.632-3.525l0.018-0.028c-1.951-0.918-4.238-1.453-6.65-1.453s-4.699 0.536-6.748 1.495l0.098-0.041z"></path>
</symbol>

<symbol id="icon-theme" viewBox="0 0 24 24">
<path d="M12 1l3.22 3.22h4.56v4.56L23 12l-3.22 3.22v4.56h-4.56L12 23l-3.22-3.22H4.22v-4.56L1 12l3.22-3.22V4.22h4.56L12 1zm0 5v12c3.31 0 6-2.69 6-6a6.005 6.005 0 0 0-5.775-5.996L12 6z" ></path>
</symbol>

<symbol id="icon-setting" viewBox="0 0 32 32">
<path d="M29.181 19.070c-1.679-2.908-0.669-6.634 2.255-8.328l-3.145-5.447c-0.898 0.527-1.943 0.829-3.058 0.829-3.361 0-6.085-2.742-6.085-6.125h-6.289c0.008 1.044-0.252 2.103-0.811 3.070-1.679 2.908-5.411 3.897-8.339 2.211l-3.144 5.447c0.905 0.515 1.689 1.268 2.246 2.234 1.676 2.903 0.672 6.623-2.241 8.319l3.145 5.447c0.895-0.522 1.935-0.82 3.044-0.82 3.35 0 6.067 2.725 6.084 6.092h6.289c-0.003-1.034 0.259-2.080 0.811-3.038 1.676-2.903 5.399-3.894 8.325-2.219l3.145-5.447c-0.899-0.515-1.678-1.266-2.232-2.226zM16 22.479c-3.578 0-6.479-2.901-6.479-6.479s2.901-6.479 6.479-6.479c3.578 0 6.479 2.901 6.479 6.479s-2.901 6.479-6.479 6.479z"></path>
</symbol>

<symbol id="icon-logout" viewBox="0 0 32 32">
<path d="M22 0c-5.523 0-10 4.477-10 10 0 0.626 0.058 1.238 0.168 1.832l-12.168 12.168v6c0 1.105 0.895 2 2 2h2v-2h4v-4h4v-4h4l2.595-2.595c1.063 0.385 2.209 0.595 3.405 0.595 5.523 0 10-4.477 10-10s-4.477-10-10-10zM24.996 10.004c-1.657 0-3-1.343-3-3s1.343-3 3-3 3 1.343 3 3-1.343 3-3 3z"></path>
</symbol>

<symbol id="icon-avatar" viewBox="0 0 20 20">
<path d="M0 11l2-2 5 5 11-11 2 2-13 13z"></path>
</symbol>

<symbol id="icon-user-plus" viewBox="0 0 32 32">
<path d="M12 23c0-4.726 2.996-8.765 7.189-10.319 0.509-1.142 0.811-2.411 0.811-3.681 0-4.971 0-9-6-9s-6 4.029-6 9c0 3.096 1.797 6.191 4 7.432v1.649c-6.784 0.555-12 3.888-12 7.918h12.416c-0.271-0.954-0.416-1.96-0.416-3z"></path>
<path d="M23 14c-4.971 0-9 4.029-9 9s4.029 9 9 9c4.971 0 9-4.029 9-9s-4.029-9-9-9zM28 24h-4v4h-2v-4h-4v-2h4v-4h2v4h4v2z"></path>
</symbol>

<symbol id="icon-user-minus" viewBox="0 0 32 32">
<path d="M12 23c0-4.726 2.996-8.765 7.189-10.319 0.509-1.142 0.811-2.411 0.811-3.681 0-4.971 0-9-6-9s-6 4.029-6 9c0 3.096 1.797 6.191 4 7.432v1.649c-6.784 0.555-12 3.888-12 7.918h12.416c-0.271-0.954-0.416-1.96-0.416-3z"></path>
<path d="M23 14c-4.971 0-9 4.029-9 9s4.029 9 9 9c4.971 0 9-4.029 9-9s-4.029-9-9-9zM28 24h-10v-2h10v2z"></path>
</symbol>

<symbol id="icon-setting-color" viewBox="0 0 32 32">
<path d="M30.828 1.172c-1.562-1.562-4.095-1.562-5.657 0l-5.379 5.379-3.793-3.793-4.243 4.243 3.326 3.326-14.754 14.754c-0.252 0.252-0.358 0.592-0.322 0.921h-0.008v5c0 0.552 0.448 1 1 1h5c0 0 0.083 0 0.125 0 0.288 0 0.576-0.11 0.795-0.329l14.754-14.754 3.326 3.326 4.243-4.243-3.793-3.793 5.379-5.379c1.562-1.562 1.562-4.095 0-5.657zM5.409 30h-3.409v-3.409l14.674-14.674 3.409 3.409-14.674 14.674z"></path>
</symbol>

<symbol id="icon-setting-wallpaper" viewBox="0 0 24 24">
<path d="M4.9 5.9h6.4V4.1H4.9c-1 0-1.8.8-1.8 1.8v6.4h1.8V5.9zm5.3 8l-3.6 4.4h10.7l-2.7-3.6-1.8 2.4-2.6-3.2zm6.2-4c0-.7-.6-1.3-1.3-1.3s-1.3.6-1.3 1.3.6 1.3 1.3 1.3 1.3-.6 1.3-1.3zm2.7-5.8h-6.4v1.8h6.4v6.4h1.8V5.9c0-1-.8-1.8-1.8-1.8zm0 16h-6.4v1.8h6.4c1 0 1.8-.8 1.8-1.8v-6.4h-1.8v6.4zM4.9 13.7H3.1v6.4c0 1 .8 1.8 1.8 1.8h6.4v-1.8H4.9v-6.4z"></path>
</symbol>

<symbol id="icon-setting-privacy" viewBox="0 0 24 24">
<path d="M12 0.984l-9 4.031v6q0 2.063 0.68 4.008t1.898 3.586 2.859 2.789 3.563 1.617q1.922-0.469 3.563-1.617t2.859-2.789 1.898-3.586 0.68-4.008v-6l-9-4.031zM11.016 6.984h1.969v2.016h-1.969v-2.016zM11.016 11.016h1.969v6h-1.969v-6z"></path>
</symbol>
<symbol id="icon-setting-password" viewBox="0 0 32 32">
<path d="M22 0c-5.523 0-10 4.477-10 10 0 0.626 0.058 1.238 0.168 1.832l-12.168 12.168v6c0 1.105 0.895 2 2 2h2v-2h4v-4h4v-4h4l2.595-2.595c1.063 0.385 2.209 0.595 3.405 0.595 5.523 0 10-4.477 10-10s-4.477-10-10-10zM24.996 10.004c-1.657 0-3-1.343-3-3s1.343-3 3-3 3 1.343 3 3-1.343 3-3 3z"></path>
</symbol>

<symbol id="icon-setting-delete" viewBox="0 0 32 32">
<path d="M4 10v20c0 1.1 0.9 2 2 2h18c1.1 0 2-0.9 2-2v-20h-22zM10 28h-2v-14h2v14zM14 28h-2v-14h2v14zM18 28h-2v-14h2v14zM22 28h-2v-14h2v14z"></path>
<path d="M26.5 4h-6.5v-2.5c0-0.825-0.675-1.5-1.5-1.5h-7c-0.825 0-1.5 0.675-1.5 1.5v2.5h-6.5c-0.825 0-1.5 0.675-1.5 1.5v2.5h26v-2.5c0-0.825-0.675-1.5-1.5-1.5zM18 4h-6v-1.975h6v1.975z"></path>
</symbol>

<!-- /Chat Profile -->

<!-- Misc -->
<symbol id="icon-down" viewBox="0 0 20 20">
<path d="M4.516 7.548c0.436-0.446 1.043-0.481 1.576 0l3.908 3.747 3.908-3.747c0.533-0.481 1.141-0.446 1.574 0 0.436 0.445 0.408 1.197 0 1.615-0.406 0.418-4.695 4.502-4.695 4.502-0.217 0.223-0.502 0.335-0.787 0.335s-0.57-0.112-0.789-0.335c0 0-4.287-4.084-4.695-4.502s-0.436-1.17 0-1.615z"></path>
</symbol>

<!-- /Misc -->

<!-- Footer -->
<symbol id="icon-heart" viewBox="0 0 20 20">
<path d="M17.19 4.155c-1.672-1.534-4.383-1.534-6.055 0l-1.135 1.042-1.136-1.042c-1.672-1.534-4.382-1.534-6.054 0-1.881 1.727-1.881 4.52 0 6.246l7.19 6.599 7.19-6.599c1.88-1.726 1.88-4.52 0-6.246z"></path>
</symbol>
<!-- /Footer -->
</defs>
</svg>

